<svg id="svg" version="1.1" xmlns="http://www.w3.org/2000/svg" xmlns:xlink="http://www.w3.org/1999/xlink" width="400" height="400" viewBox="0, 0, 400,400"><g id="svgg"><path id="path0" d="M191.800 71.589 C 191.360 71.773,189.380 72.492,187.400 73.188 C 182.687 74.843,182.835 74.763,169.600 82.776 C 163.330 86.572,155.770 91.133,152.800 92.912 C 149.830 94.691,146.378 96.788,145.129 97.573 C 143.880 98.358,141.486 99.810,139.808 100.800 C 138.130 101.790,135.731 103.240,134.478 104.022 C 133.225 104.805,131.390 105.879,130.400 106.410 C 129.410 106.940,128.330 107.587,128.000 107.846 C 127.213 108.465,111.932 117.735,105.800 121.315 C 103.160 122.856,99.981 124.810,98.736 125.658 C 97.491 126.506,96.369 127.200,96.241 127.200 C 95.691 127.200,88.421 131.913,86.571 133.469 C 79.782 139.180,81.532 146.050,91.050 151.057 C 98.431 154.940,100.949 156.255,107.200 159.493 C 110.830 161.373,113.980 163.043,114.200 163.204 C 114.584 163.484,121.972 167.349,130.767 171.871 C 133.058 173.049,135.128 174.163,135.367 174.347 C 135.605 174.531,138.860 176.264,142.600 178.198 C 146.340 180.133,150.930 182.520,152.800 183.503 C 154.670 184.486,158.000 186.236,160.200 187.392 C 162.400 188.548,167.643 191.318,171.851 193.547 C 176.059 195.776,179.611 197.600,179.745 197.600 C 179.879 197.600,180.908 198.166,182.033 198.859 C 188.789 203.015,200.745 204.275,210.292 201.836 C 215.478 200.511,215.243 200.622,223.800 195.454 C 227.760 193.062,235.817 188.201,241.704 184.653 C 247.592 181.104,253.802 177.359,255.504 176.330 C 257.207 175.302,259.860 173.715,261.400 172.805 C 262.940 171.894,265.574 170.306,267.253 169.275 C 268.932 168.244,271.182 166.876,272.253 166.236 C 276.709 163.570,279.755 161.702,282.301 160.071 C 283.785 159.120,286.710 157.333,288.800 156.100 C 292.738 153.776,302.749 147.731,305.200 146.198 C 305.970 145.716,307.983 144.479,309.674 143.449 C 319.406 137.519,319.736 128.470,310.386 123.927 C 309.288 123.393,296.325 116.608,288.400 112.418 C 285.166 110.709,279.559 107.768,276.200 106.020 C 274.220 104.989,270.980 103.279,269.000 102.219 C 267.020 101.159,262.970 99.034,260.000 97.498 C 257.030 95.961,251.943 93.286,248.695 91.552 C 245.448 89.818,242.724 88.400,242.644 88.400 C 242.563 88.400,241.080 87.622,239.349 86.671 C 237.617 85.721,233.770 83.673,230.800 82.122 C 223.088 78.092,219.602 76.244,218.000 75.335 C 216.282 74.361,211.446 72.632,208.142 71.811 C 205.453 71.143,193.263 70.977,191.800 71.589 M291.346 175.919 C 288.568 177.718,282.862 181.180,274.600 186.081 C 266.396 190.947,255.802 197.354,250.883 200.425 C 246.060 203.435,236.829 209.027,233.327 211.061 C 232.626 211.467,229.836 213.093,227.127 214.673 C 213.766 222.465,198.143 224.289,183.600 219.754 C 181.678 219.154,167.303 212.041,156.600 206.393 C 147.055 201.357,138.806 197.019,137.000 196.087 C 134.849 194.976,114.707 184.368,110.517 182.139 L 106.434 179.966 104.917 180.754 C 103.551 181.463,97.889 184.887,90.200 189.653 C 83.447 193.838,81.118 198.211,83.160 202.867 C 84.644 206.250,85.848 207.110,98.200 213.610 C 100.400 214.768,104.810 217.104,108.000 218.802 C 111.190 220.499,116.410 223.240,119.600 224.893 C 122.790 226.545,126.840 228.659,128.600 229.591 C 130.360 230.523,134.770 232.818,138.400 234.692 C 142.030 236.566,145.180 238.234,145.400 238.399 C 145.620 238.564,148.320 240.004,151.400 241.600 C 157.066 244.536,161.970 247.109,167.800 250.204 C 188.597 261.244,189.961 261.732,200.200 261.776 C 208.457 261.811,213.378 260.555,219.477 256.852 C 221.195 255.809,225.373 253.282,228.762 251.235 C 232.151 249.189,235.409 247.219,236.002 246.857 C 236.594 246.496,238.501 245.338,240.240 244.285 C 241.978 243.232,245.020 241.362,247.000 240.130 C 248.980 238.897,251.341 237.482,252.246 236.984 C 253.151 236.487,254.861 235.462,256.046 234.706 C 260.406 231.924,262.246 230.809,264.200 229.761 C 265.300 229.172,267.225 227.994,268.478 227.145 C 269.731 226.295,270.845 225.600,270.954 225.600 C 271.063 225.600,272.918 224.517,275.076 223.194 C 277.234 221.870,279.270 220.625,279.600 220.426 C 279.930 220.227,284.022 217.755,288.693 214.932 C 293.364 212.109,297.774 209.459,298.493 209.042 C 299.212 208.625,300.880 207.618,302.200 206.804 C 303.520 205.990,306.464 204.176,308.742 202.774 C 320.544 195.508,320.422 188.160,308.393 181.727 C 292.261 173.098,294.516 173.866,291.346 175.919 M288.600 236.321 C 287.242 237.251,271.756 246.645,264.071 251.200 C 262.772 251.970,260.920 253.093,259.955 253.695 C 257.803 255.039,248.482 260.665,244.400 263.085 C 242.750 264.063,240.019 265.704,238.331 266.732 C 236.643 267.759,233.763 269.478,231.931 270.552 C 230.099 271.625,228.330 272.730,228.000 273.006 C 226.679 274.115,219.254 277.644,217.000 278.234 C 208.382 280.492,208.143 280.533,200.811 280.988 C 196.276 281.270,187.757 279.918,182.400 278.067 C 179.682 277.128,178.447 276.502,156.400 264.885 C 132.359 252.217,112.510 241.827,110.760 240.994 L 109.320 240.309 104.360 243.297 C 85.782 254.488,85.142 254.957,83.382 258.675 C 80.840 264.046,83.616 268.536,92.200 272.940 C 93.740 273.730,95.450 274.640,96.000 274.962 C 96.550 275.285,101.050 277.656,106.000 280.232 C 110.950 282.808,116.260 285.587,117.800 286.406 C 119.340 287.226,123.660 289.476,127.400 291.406 C 131.140 293.337,134.380 295.050,134.600 295.213 C 134.820 295.376,138.240 297.175,142.200 299.211 C 146.160 301.247,149.684 303.158,150.031 303.457 C 150.379 303.755,150.800 304.000,150.967 304.000 C 151.134 304.000,156.610 306.811,163.135 310.248 C 169.661 313.684,177.160 317.625,179.800 319.006 C 191.274 325.008,199.203 325.961,211.113 322.770 C 215.491 321.597,216.176 321.246,227.461 314.400 C 234.758 309.974,239.576 307.064,242.277 305.452 C 243.335 304.821,245.280 303.638,246.600 302.823 C 250.198 300.602,253.148 298.822,255.600 297.393 C 256.810 296.688,263.020 292.949,269.400 289.084 C 285.016 279.625,293.465 274.523,296.704 272.596 C 298.187 271.714,300.161 270.499,301.092 269.896 C 302.023 269.293,302.941 268.800,303.132 268.800 C 303.323 268.800,304.182 268.295,305.040 267.679 C 305.898 267.062,307.680 265.957,309.000 265.222 C 315.819 261.429,318.784 256.054,316.602 251.442 C 314.782 247.595,313.607 246.793,297.800 238.617 C 296.040 237.707,293.970 236.566,293.200 236.083 C 291.386 234.943,290.549 234.986,288.600 236.321 " stroke="none" fill="#d4f9a5" fill-rule="evenodd"></path><path id="path1" d="M173.400 0.273 C 171.640 0.347,169.840 0.579,169.400 0.788 C 168.960 0.996,167.520 1.256,166.200 1.365 C 163.979 1.548,160.769 1.994,157.103 2.628 C 156.258 2.774,155.714 3.061,155.853 3.286 C 156.002 3.527,155.793 3.588,155.329 3.441 C 154.905 3.306,154.207 3.461,153.779 3.785 C 153.351 4.109,152.361 4.380,151.580 4.387 C 150.799 4.394,149.989 4.562,149.780 4.759 C 149.571 4.956,148.680 5.220,147.800 5.344 C 144.452 5.816,143.212 6.095,143.364 6.343 C 143.451 6.485,142.865 6.647,142.061 6.704 C 141.257 6.761,140.112 7.166,139.516 7.604 C 138.920 8.042,137.975 8.400,137.416 8.400 C 136.857 8.400,136.400 8.580,136.400 8.800 C 136.400 9.020,135.691 9.200,134.824 9.200 C 133.957 9.200,133.136 9.380,133.000 9.600 C 132.864 9.820,132.324 10.000,131.800 10.000 C 131.276 10.000,130.736 10.180,130.600 10.400 C 130.464 10.620,130.037 10.800,129.652 10.800 C 129.266 10.800,128.564 11.160,128.092 11.600 C 127.620 12.040,126.787 12.400,126.240 12.400 C 125.694 12.400,125.136 12.580,125.000 12.800 C 124.864 13.020,124.401 13.200,123.971 13.200 C 123.541 13.200,122.877 13.365,122.495 13.567 C 122.113 13.769,120.990 14.310,120.000 14.770 C 119.010 15.229,117.930 15.763,117.600 15.956 C 117.048 16.279,116.358 16.578,113.900 17.559 C 111.326 18.586,110.061 19.245,109.606 19.793 C 109.329 20.127,108.904 20.400,108.663 20.400 C 107.748 20.400,104.414 22.223,104.407 22.727 C 104.403 23.058,104.123 23.166,103.656 23.018 C 103.230 22.883,102.701 23.038,102.415 23.382 C 102.141 23.712,100.901 24.466,99.659 25.057 C 98.416 25.649,96.770 26.598,96.000 27.166 C 94.304 28.419,92.434 29.542,91.537 29.848 C 91.172 29.972,90.784 30.417,90.674 30.837 C 90.565 31.257,90.267 31.600,90.014 31.600 C 89.751 31.600,89.682 31.385,89.853 31.100 C 90.060 30.756,89.944 30.770,89.481 31.145 C 89.111 31.445,88.925 31.878,89.066 32.107 C 89.209 32.338,89.132 32.405,88.894 32.258 C 88.658 32.112,88.193 32.264,87.861 32.596 C 87.529 32.928,87.047 33.200,86.790 33.200 C 86.023 33.200,83.972 34.831,84.225 35.240 C 84.354 35.449,84.281 35.570,84.063 35.510 C 83.577 35.375,80.400 37.270,80.400 37.694 C 80.400 37.862,80.174 38.000,79.898 38.000 C 79.622 38.000,78.631 38.720,77.697 39.600 C 76.763 40.480,75.815 41.200,75.591 41.200 C 75.366 41.200,74.273 42.100,73.162 43.200 C 72.050 44.300,70.954 45.200,70.726 45.200 C 70.498 45.200,69.542 45.965,68.601 46.900 C 67.660 47.835,66.236 49.106,65.436 49.724 C 64.637 50.342,64.090 51.022,64.221 51.234 C 64.352 51.446,64.221 51.570,63.930 51.510 C 63.638 51.449,63.449 51.638,63.510 51.930 C 63.570 52.221,63.447 52.353,63.236 52.222 C 62.734 51.912,51.912 62.734,52.222 63.236 C 52.353 63.447,52.221 63.570,51.930 63.510 C 51.638 63.449,51.449 63.638,51.510 63.930 C 51.570 64.221,51.446 64.352,51.234 64.221 C 51.022 64.090,50.342 64.630,49.724 65.421 C 49.106 66.212,47.835 67.669,46.900 68.658 C 45.965 69.648,45.200 70.834,45.200 71.295 C 45.200 71.756,45.077 72.010,44.926 71.860 C 44.624 71.558,41.200 75.013,41.200 75.619 C 41.200 75.828,40.480 76.763,39.600 77.697 C 38.720 78.631,38.000 79.622,38.000 79.898 C 38.000 80.174,37.862 80.400,37.694 80.400 C 37.270 80.400,35.375 83.577,35.510 84.063 C 35.570 84.281,35.456 84.358,35.255 84.234 C 34.617 83.840,31.792 88.432,32.316 89.013 C 32.472 89.186,32.395 89.211,32.145 89.069 C 31.895 88.926,31.445 89.111,31.145 89.481 C 30.770 89.944,30.756 90.060,31.100 89.853 C 31.385 89.682,31.600 89.751,31.600 90.014 C 31.600 90.267,31.240 90.569,30.800 90.684 C 30.360 90.799,30.000 91.070,30.000 91.285 C 30.000 91.500,29.629 92.198,29.175 92.835 C 28.722 93.471,28.325 94.342,28.292 94.769 C 28.260 95.195,28.112 95.469,27.962 95.377 C 27.463 95.068,25.200 98.701,25.200 99.812 C 25.200 100.135,25.020 100.400,24.800 100.400 C 24.580 100.400,24.400 100.642,24.400 100.938 C 24.400 101.234,24.037 101.804,23.594 102.205 C 23.095 102.657,22.877 103.213,23.021 103.667 C 23.166 104.123,23.055 104.403,22.727 104.407 C 22.223 104.414,20.400 107.748,20.400 108.663 C 20.400 108.904,20.127 109.329,19.793 109.606 C 19.158 110.133,18.344 111.815,16.700 116.000 C 16.484 116.550,16.149 117.270,15.956 117.600 C 15.763 117.930,15.229 119.010,14.770 120.000 C 14.310 120.990,13.769 122.113,13.567 122.495 C 13.365 122.877,13.200 123.541,13.200 123.971 C 13.200 124.401,13.020 124.864,12.800 125.000 C 12.580 125.136,12.400 125.694,12.400 126.240 C 12.400 126.787,12.040 127.620,11.600 128.092 C 11.160 128.564,10.800 129.266,10.800 129.652 C 10.800 130.037,10.620 130.464,10.400 130.600 C 10.180 130.736,10.000 131.366,10.000 132.000 C 10.000 132.634,9.820 133.264,9.600 133.400 C 9.380 133.536,9.200 134.267,9.200 135.024 C 9.200 135.781,9.020 136.400,8.800 136.400 C 8.580 136.400,8.400 136.857,8.400 137.416 C 8.400 137.975,8.042 138.920,7.604 139.516 C 7.166 140.112,6.761 141.257,6.704 142.061 C 6.647 142.865,6.465 143.439,6.300 143.337 C 6.042 143.178,5.834 144.685,5.892 146.296 C 5.902 146.568,5.750 146.693,5.555 146.572 C 5.360 146.451,5.200 147.073,5.200 147.953 C 5.200 148.833,5.020 149.664,4.800 149.800 C 4.580 149.936,4.394 150.712,4.387 151.524 C 4.380 152.336,4.109 153.351,3.785 153.779 C 3.461 154.207,3.306 154.905,3.441 155.329 C 3.602 155.836,3.534 156.006,3.243 155.826 C 2.962 155.653,2.800 155.937,2.800 156.603 C 2.800 157.180,2.633 157.964,2.430 158.345 C 2.226 158.725,2.006 160.229,1.940 161.687 C 1.875 163.144,1.681 164.250,1.511 164.145 C 1.340 164.039,1.200 165.097,1.200 166.496 C 1.200 167.998,0.995 169.245,0.700 169.540 C -0.031 170.271,-0.031 229.729,0.700 230.460 C 0.995 230.755,1.200 232.002,1.200 233.504 C 1.200 234.903,1.340 235.961,1.511 235.855 C 1.681 235.750,1.875 236.856,1.940 238.313 C 2.006 239.771,2.226 241.275,2.430 241.655 C 2.633 242.036,2.800 242.820,2.800 243.397 C 2.800 244.063,2.962 244.347,3.243 244.174 C 3.534 243.994,3.602 244.164,3.441 244.671 C 3.306 245.095,3.461 245.793,3.785 246.221 C 4.109 246.649,4.380 247.664,4.387 248.476 C 4.394 249.288,4.580 250.064,4.800 250.200 C 5.020 250.336,5.200 251.167,5.200 252.047 C 5.200 252.927,5.360 253.549,5.555 253.428 C 5.750 253.307,5.902 253.432,5.892 253.704 C 5.834 255.315,6.042 256.822,6.300 256.663 C 6.465 256.561,6.647 257.135,6.704 257.939 C 6.761 258.743,7.166 259.888,7.604 260.484 C 8.042 261.080,8.400 262.025,8.400 262.584 C 8.400 263.143,8.580 263.600,8.800 263.600 C 9.020 263.600,9.200 264.219,9.200 264.976 C 9.200 265.733,9.380 266.464,9.600 266.600 C 9.820 266.736,10.000 267.366,10.000 268.000 C 10.000 268.634,10.180 269.264,10.400 269.400 C 10.620 269.536,10.800 269.963,10.800 270.348 C 10.800 270.734,11.160 271.436,11.600 271.908 C 12.040 272.380,12.400 273.213,12.400 273.760 C 12.400 274.306,12.580 274.864,12.800 275.000 C 13.020 275.136,13.200 275.599,13.200 276.029 C 13.200 276.459,13.365 277.123,13.567 277.505 C 13.769 277.887,14.310 279.010,14.770 280.000 C 15.229 280.990,15.763 282.070,15.956 282.400 C 16.279 282.952,16.578 283.642,17.559 286.100 C 18.586 288.674,19.245 289.939,19.793 290.394 C 20.127 290.671,20.400 291.096,20.400 291.337 C 20.400 292.252,22.223 295.586,22.727 295.593 C 23.055 295.597,23.166 295.877,23.021 296.333 C 22.877 296.787,23.095 297.343,23.594 297.795 C 24.037 298.196,24.400 298.766,24.400 299.062 C 24.400 299.358,24.580 299.600,24.800 299.600 C 25.020 299.600,25.200 299.865,25.200 300.188 C 25.200 300.767,26.502 303.328,27.288 304.296 C 27.509 304.568,27.878 304.675,28.107 304.534 C 28.336 304.392,28.413 304.455,28.279 304.673 C 27.963 305.183,29.843 308.725,30.951 309.707 C 31.418 310.122,31.530 310.323,31.200 310.154 C 30.685 309.890,30.677 309.941,31.145 310.519 C 31.445 310.889,31.895 311.074,32.145 310.931 C 32.395 310.789,32.472 310.814,32.316 310.987 C 31.792 311.568,34.617 316.160,35.255 315.766 C 35.456 315.642,35.570 315.719,35.510 315.937 C 35.375 316.423,37.270 319.600,37.694 319.600 C 37.862 319.600,38.000 319.826,38.000 320.102 C 38.000 320.378,38.720 321.369,39.600 322.303 C 40.480 323.237,41.200 324.185,41.200 324.409 C 41.200 324.634,42.100 325.727,43.200 326.838 C 44.300 327.950,45.200 329.013,45.200 329.201 C 45.200 329.389,45.965 330.352,46.900 331.342 C 47.835 332.331,49.106 333.788,49.724 334.579 C 50.342 335.370,51.022 335.910,51.234 335.779 C 51.446 335.648,51.570 335.779,51.510 336.070 C 51.449 336.362,51.638 336.551,51.930 336.490 C 52.221 336.430,52.353 336.553,52.222 336.764 C 51.912 337.266,62.734 348.088,63.236 347.778 C 63.447 347.647,63.570 347.779,63.510 348.070 C 63.449 348.362,63.638 348.551,63.930 348.490 C 64.221 348.430,64.352 348.554,64.221 348.766 C 64.090 348.978,64.637 349.658,65.436 350.276 C 66.236 350.894,67.660 352.165,68.601 353.100 C 69.542 354.035,70.467 354.800,70.657 354.800 C 70.847 354.800,71.956 355.700,73.122 356.800 C 74.287 357.900,75.456 358.809,75.720 358.820 C 75.984 358.830,76.920 359.549,77.800 360.417 C 78.680 361.284,79.548 361.996,79.729 361.997 C 79.909 361.999,80.329 362.272,80.661 362.604 C 80.993 362.936,81.475 363.087,81.732 362.940 C 81.990 362.792,82.064 362.822,81.897 363.006 C 81.515 363.426,83.612 364.840,84.137 364.515 C 84.350 364.384,84.408 364.464,84.266 364.693 C 83.957 365.193,84.415 365.592,86.849 366.943 C 87.866 367.507,88.840 367.841,89.013 367.684 C 89.186 367.528,89.211 367.605,89.069 367.855 C 88.720 368.465,89.387 368.960,93.804 371.363 C 94.246 371.603,95.236 372.265,96.004 372.834 C 96.772 373.402,98.416 374.351,99.659 374.943 C 100.901 375.534,102.138 376.284,102.408 376.609 C 102.677 376.934,103.221 377.200,103.616 377.200 C 104.010 377.200,104.393 377.335,104.467 377.500 C 104.651 377.915,107.959 379.600,108.589 379.600 C 108.871 379.600,109.329 379.873,109.606 380.207 C 110.059 380.753,111.545 381.526,113.800 382.387 C 115.421 383.007,117.016 383.702,117.600 384.044 C 117.930 384.237,119.010 384.771,120.000 385.230 C 120.990 385.690,122.113 386.231,122.495 386.433 C 122.877 386.635,123.541 386.800,123.971 386.800 C 124.401 386.800,124.864 386.980,125.000 387.200 C 125.136 387.420,125.694 387.600,126.240 387.600 C 126.787 387.600,127.620 387.960,128.092 388.400 C 128.564 388.840,129.266 389.200,129.652 389.200 C 130.037 389.200,130.464 389.380,130.600 389.600 C 130.736 389.820,131.276 390.000,131.800 390.000 C 132.324 390.000,132.864 390.180,133.000 390.400 C 133.136 390.620,133.957 390.800,134.824 390.800 C 135.691 390.800,136.400 390.980,136.400 391.200 C 136.400 391.420,136.857 391.600,137.416 391.600 C 137.975 391.600,138.920 391.958,139.516 392.396 C 140.112 392.834,141.257 393.239,142.061 393.296 C 142.865 393.353,143.451 393.515,143.364 393.657 C 143.212 393.905,144.452 394.184,147.800 394.656 C 148.680 394.780,149.571 395.044,149.780 395.241 C 149.989 395.438,150.716 395.600,151.395 395.600 C 152.075 395.600,153.337 395.960,154.200 396.400 C 155.063 396.840,156.193 397.200,156.711 397.200 C 157.229 397.200,157.964 397.367,158.345 397.570 C 158.725 397.774,160.229 397.994,161.687 398.060 C 163.144 398.125,164.250 398.319,164.145 398.489 C 164.039 398.660,165.097 398.800,166.496 398.800 C 167.998 398.800,169.245 399.005,169.540 399.300 C 170.254 400.014,229.021 400.030,230.439 399.317 C 230.968 399.051,232.480 398.744,233.800 398.635 C 239.427 398.171,244.873 397.106,246.258 396.199 C 246.761 395.869,247.772 395.600,248.506 395.600 C 249.240 395.600,250.011 395.438,250.220 395.241 C 250.429 395.044,251.320 394.780,252.200 394.656 C 255.548 394.184,256.788 393.905,256.636 393.657 C 256.549 393.515,257.135 393.353,257.939 393.296 C 258.743 393.239,259.888 392.834,260.484 392.396 C 261.080 391.958,262.025 391.600,262.584 391.600 C 263.143 391.600,263.600 391.420,263.600 391.200 C 263.600 390.980,264.309 390.800,265.176 390.800 C 266.043 390.800,266.864 390.620,267.000 390.400 C 267.136 390.180,267.676 390.000,268.200 390.000 C 268.724 390.000,269.264 389.820,269.400 389.600 C 269.536 389.380,269.963 389.200,270.348 389.200 C 270.734 389.200,271.436 388.840,271.908 388.400 C 272.380 387.960,273.213 387.600,273.760 387.600 C 274.306 387.600,274.864 387.420,275.000 387.200 C 275.136 386.980,275.599 386.800,276.029 386.800 C 276.459 386.800,277.123 386.635,277.505 386.433 C 277.887 386.231,279.010 385.690,280.000 385.230 C 280.990 384.771,282.070 384.237,282.400 384.044 C 282.730 383.851,283.450 383.516,284.000 383.300 C 288.185 381.656,289.867 380.842,290.394 380.207 C 290.671 379.873,291.111 379.600,291.372 379.600 C 291.969 379.600,297.015 377.074,297.922 376.321 C 298.295 376.012,299.500 375.328,300.600 374.803 C 301.700 374.277,303.228 373.387,303.996 372.824 C 304.764 372.261,305.754 371.603,306.196 371.363 C 310.613 368.960,311.280 368.465,310.931 367.855 C 310.789 367.605,310.814 367.528,310.987 367.684 C 311.568 368.208,316.160 365.383,315.766 364.745 C 315.642 364.544,315.719 364.430,315.937 364.490 C 316.423 364.625,319.600 362.730,319.600 362.306 C 319.600 362.138,319.825 361.999,320.100 361.997 C 320.375 361.996,321.320 361.284,322.200 360.417 C 323.080 359.549,324.016 358.830,324.280 358.820 C 324.544 358.809,325.713 357.900,326.878 356.800 C 328.044 355.700,329.153 354.800,329.343 354.800 C 329.533 354.800,330.458 354.035,331.399 353.100 C 332.340 352.165,333.764 350.894,334.564 350.276 C 335.363 349.658,335.910 348.978,335.779 348.766 C 335.648 348.554,335.779 348.430,336.070 348.490 C 336.362 348.551,336.551 348.362,336.490 348.070 C 336.430 347.779,336.553 347.647,336.764 347.778 C 337.266 348.088,348.088 337.266,347.778 336.764 C 347.647 336.553,347.779 336.430,348.070 336.490 C 348.362 336.551,348.551 336.362,348.490 336.070 C 348.430 335.779,348.554 335.648,348.766 335.779 C 348.978 335.910,349.658 335.363,350.276 334.564 C 350.894 333.764,352.165 332.340,353.100 331.399 C 354.035 330.458,354.800 329.533,354.800 329.343 C 354.800 329.153,355.700 328.044,356.800 326.878 C 357.900 325.713,358.800 324.589,358.800 324.381 C 358.800 324.172,359.520 323.237,360.400 322.303 C 361.280 321.369,362.000 320.378,362.000 320.102 C 362.000 319.826,362.138 319.600,362.306 319.600 C 362.730 319.600,364.625 316.423,364.490 315.937 C 364.430 315.719,364.544 315.642,364.745 315.766 C 365.383 316.160,368.208 311.568,367.684 310.987 C 367.528 310.814,367.611 310.793,367.869 310.941 C 368.381 311.234,369.320 310.045,370.822 307.200 C 371.345 306.210,372.076 305.040,372.447 304.600 C 373.433 303.431,374.800 300.868,374.800 300.188 C 374.800 299.865,374.980 299.600,375.200 299.600 C 375.420 299.600,375.600 299.352,375.600 299.049 C 375.600 298.746,375.862 298.281,376.182 298.015 C 376.822 297.484,379.600 292.062,379.600 291.345 C 379.600 291.099,379.873 290.671,380.207 290.394 C 380.842 289.867,381.656 288.185,383.300 284.000 C 383.516 283.450,383.851 282.730,384.044 282.400 C 384.237 282.070,384.771 280.990,385.230 280.000 C 385.690 279.010,386.231 277.887,386.433 277.505 C 386.635 277.123,386.800 276.459,386.800 276.029 C 386.800 275.599,386.980 275.136,387.200 275.000 C 387.420 274.864,387.600 274.306,387.600 273.760 C 387.600 273.213,387.960 272.380,388.400 271.908 C 388.840 271.436,389.200 270.734,389.200 270.348 C 389.200 269.963,389.380 269.536,389.600 269.400 C 389.820 269.264,390.000 268.634,390.000 268.000 C 390.000 267.366,390.180 266.736,390.400 266.600 C 390.620 266.464,390.800 265.733,390.800 264.976 C 390.800 264.219,390.980 263.600,391.200 263.600 C 391.420 263.600,391.600 263.143,391.600 262.584 C 391.600 262.025,391.958 261.080,392.396 260.484 C 392.834 259.888,393.239 258.743,393.296 257.939 C 393.353 257.135,393.515 256.549,393.657 256.636 C 393.905 256.788,394.184 255.548,394.656 252.200 C 394.780 251.320,395.044 250.429,395.241 250.220 C 395.438 250.011,395.600 249.240,395.600 248.506 C 395.600 247.772,395.869 246.761,396.199 246.258 C 397.106 244.873,398.171 239.427,398.635 233.800 C 398.744 232.480,399.051 230.968,399.317 230.439 C 400.030 229.021,400.014 170.254,399.300 169.540 C 399.005 169.245,398.800 167.998,398.800 166.496 C 398.800 165.097,398.660 164.039,398.489 164.145 C 398.319 164.250,398.125 163.144,398.060 161.687 C 397.994 160.229,397.774 158.725,397.570 158.345 C 397.367 157.964,397.200 157.229,397.200 156.711 C 397.200 156.193,396.840 155.063,396.400 154.200 C 395.960 153.337,395.600 152.075,395.600 151.395 C 395.600 150.716,395.438 149.989,395.241 149.780 C 395.044 149.571,394.780 148.680,394.656 147.800 C 394.184 144.452,393.905 143.212,393.657 143.364 C 393.515 143.451,393.353 142.865,393.296 142.061 C 393.239 141.257,392.834 140.112,392.396 139.516 C 391.958 138.920,391.600 137.975,391.600 137.416 C 391.600 136.857,391.420 136.400,391.200 136.400 C 390.980 136.400,390.800 135.781,390.800 135.024 C 390.800 134.267,390.620 133.536,390.400 133.400 C 390.180 133.264,390.000 132.634,390.000 132.000 C 390.000 131.366,389.820 130.736,389.600 130.600 C 389.380 130.464,389.200 130.037,389.200 129.652 C 389.200 129.266,388.840 128.564,388.400 128.092 C 387.960 127.620,387.600 126.787,387.600 126.240 C 387.600 125.694,387.420 125.136,387.200 125.000 C 386.980 124.864,386.800 124.401,386.800 123.971 C 386.800 123.541,386.635 122.877,386.433 122.495 C 386.231 122.113,385.690 120.990,385.230 120.000 C 384.771 119.010,384.237 117.930,384.044 117.600 C 383.702 117.016,383.007 115.421,382.387 113.800 C 381.526 111.545,380.753 110.059,380.207 109.606 C 379.873 109.329,379.600 108.871,379.600 108.589 C 379.600 107.959,377.915 104.651,377.500 104.467 C 377.335 104.393,377.200 104.016,377.200 103.629 C 377.200 103.241,376.840 102.598,376.400 102.200 C 375.960 101.802,375.600 101.234,375.600 100.938 C 375.600 100.642,375.420 100.400,375.200 100.400 C 374.980 100.400,374.800 100.135,374.800 99.812 C 374.800 98.701,372.537 95.068,372.038 95.377 C 371.888 95.469,371.740 95.195,371.708 94.769 C 371.675 94.342,371.278 93.471,370.825 92.835 C 370.371 92.198,370.000 91.552,370.000 91.400 C 370.000 90.694,368.292 88.818,367.869 89.059 C 367.611 89.207,367.528 89.186,367.684 89.013 C 368.208 88.432,365.383 83.840,364.745 84.234 C 364.544 84.358,364.430 84.281,364.490 84.063 C 364.625 83.577,362.730 80.400,362.306 80.400 C 362.138 80.400,362.000 80.174,362.000 79.898 C 362.000 79.622,361.280 78.631,360.400 77.697 C 359.520 76.763,358.800 75.808,358.800 75.576 C 358.800 75.343,358.592 75.281,358.338 75.438 C 358.049 75.617,357.985 75.548,358.168 75.252 C 358.340 74.973,357.873 74.193,357.026 73.346 C 356.237 72.557,355.203 71.346,354.729 70.656 C 354.254 69.965,353.311 68.840,352.633 68.155 C 351.955 67.470,350.894 66.251,350.276 65.446 C 349.658 64.641,348.978 64.090,348.766 64.221 C 348.554 64.352,348.430 64.221,348.490 63.930 C 348.551 63.638,348.362 63.449,348.070 63.510 C 347.779 63.570,347.647 63.447,347.778 63.236 C 348.088 62.734,337.266 51.912,336.764 52.222 C 336.553 52.353,336.430 52.221,336.490 51.930 C 336.551 51.638,336.362 51.449,336.070 51.510 C 335.779 51.570,335.648 51.446,335.779 51.234 C 335.910 51.022,335.363 50.342,334.564 49.724 C 333.764 49.106,332.340 47.835,331.399 46.900 C 330.458 45.965,329.502 45.200,329.274 45.200 C 329.046 45.200,327.950 44.300,326.838 43.200 C 325.727 42.100,324.634 41.200,324.409 41.200 C 324.185 41.200,323.237 40.480,322.303 39.600 C 321.369 38.720,320.378 38.000,320.102 38.000 C 319.826 38.000,319.600 37.862,319.600 37.694 C 319.600 37.270,316.423 35.375,315.937 35.510 C 315.719 35.570,315.642 35.456,315.766 35.255 C 316.160 34.617,311.568 31.792,310.987 32.316 C 310.814 32.472,310.789 32.395,310.931 32.145 C 311.074 31.895,310.889 31.445,310.519 31.145 C 309.941 30.677,309.890 30.685,310.154 31.200 C 310.323 31.530,310.124 31.440,309.712 31.000 C 309.013 30.253,308.156 29.675,306.196 28.629 C 305.754 28.393,304.764 27.735,303.996 27.166 C 303.228 26.598,301.584 25.649,300.341 25.057 C 299.099 24.466,297.859 23.712,297.585 23.382 C 297.299 23.038,296.770 22.883,296.344 23.018 C 295.877 23.166,295.597 23.058,295.593 22.727 C 295.586 22.223,292.252 20.400,291.337 20.400 C 291.096 20.400,290.671 20.127,290.394 19.793 C 289.939 19.245,288.674 18.586,286.100 17.559 C 283.642 16.578,282.952 16.279,282.400 15.956 C 282.070 15.763,280.990 15.229,280.000 14.770 C 279.010 14.310,277.887 13.769,277.505 13.567 C 277.123 13.365,276.459 13.200,276.029 13.200 C 275.599 13.200,275.136 13.020,275.000 12.800 C 274.864 12.580,274.306 12.400,273.760 12.400 C 273.213 12.400,272.380 12.040,271.908 11.600 C 271.436 11.160,270.734 10.800,270.348 10.800 C 269.963 10.800,269.536 10.620,269.400 10.400 C 269.264 10.180,268.724 10.000,268.200 10.000 C 267.676 10.000,267.136 9.820,267.000 9.600 C 266.864 9.380,266.043 9.200,265.176 9.200 C 264.309 9.200,263.600 9.020,263.600 8.800 C 263.600 8.580,263.143 8.400,262.584 8.400 C 262.025 8.400,261.080 8.042,260.484 7.604 C 259.888 7.166,258.743 6.761,257.939 6.704 C 257.135 6.647,256.549 6.485,256.636 6.343 C 256.788 6.095,255.548 5.816,252.200 5.344 C 251.320 5.220,250.429 4.956,250.220 4.759 C 250.011 4.562,249.201 4.394,248.420 4.387 C 247.639 4.380,246.649 4.109,246.221 3.785 C 245.793 3.461,245.095 3.306,244.671 3.441 C 244.207 3.588,243.998 3.527,244.147 3.286 C 244.286 3.061,243.742 2.774,242.897 2.628 C 239.106 1.972,235.991 1.541,233.600 1.342 C 232.170 1.224,230.747 0.918,230.439 0.663 C 229.906 0.224,182.218 -0.103,173.400 0.273 M206.657 70.240 C 208.386 70.592,209.971 71.042,210.180 71.240 C 210.389 71.438,211.033 71.600,211.611 71.600 C 212.629 71.600,217.381 73.338,218.208 74.013 C 218.432 74.196,220.322 75.229,222.408 76.310 C 224.494 77.390,228.270 79.360,230.800 80.686 C 233.330 82.012,237.110 83.994,239.200 85.090 C 241.290 86.186,244.620 87.948,246.600 89.006 C 248.580 90.064,252.090 91.914,254.400 93.117 C 256.710 94.320,259.860 95.974,261.400 96.793 C 269.017 100.842,273.269 103.082,276.000 104.486 C 279.812 106.446,284.993 109.172,290.600 112.169 C 296.392 115.264,299.526 116.923,305.800 120.215 C 316.005 125.568,318.400 128.016,318.400 133.092 C 318.400 138.055,315.934 141.093,308.060 145.829 C 305.277 147.503,301.830 149.591,300.400 150.470 C 298.970 151.348,296.270 152.988,294.400 154.114 C 292.530 155.240,288.970 157.430,286.488 158.981 C 284.006 160.531,281.396 162.143,280.688 162.561 C 279.980 162.980,278.015 164.195,276.322 165.261 C 274.629 166.328,273.124 167.200,272.976 167.200 C 272.828 167.200,271.497 168.004,270.018 168.988 C 268.539 169.971,266.985 170.906,266.565 171.065 C 266.144 171.225,264.990 171.921,264.000 172.613 C 263.010 173.305,261.030 174.541,259.600 175.359 C 258.170 176.177,256.010 177.443,254.800 178.173 C 253.590 178.902,249.270 181.491,245.200 183.925 C 241.130 186.359,236.810 188.970,235.600 189.726 C 230.679 192.801,222.222 197.886,219.842 199.200 C 218.447 199.970,217.057 200.808,216.753 201.061 C 216.009 201.682,211.381 202.981,207.128 203.762 C 197.291 205.569,184.813 202.975,176.600 197.414 C 175.940 196.967,173.960 195.879,172.200 194.996 C 168.412 193.096,156.415 186.850,153.000 185.000 C 151.680 184.285,148.170 182.440,145.200 180.900 C 133.685 174.930,130.164 173.066,129.200 172.428 C 128.650 172.064,127.210 171.332,126.000 170.800 C 124.790 170.268,123.350 169.532,122.800 169.165 C 122.250 168.797,120.270 167.721,118.400 166.774 C 116.530 165.826,113.380 164.201,111.400 163.161 C 109.420 162.121,106.270 160.483,104.400 159.520 C 101.188 157.866,97.860 156.103,89.326 151.539 C 78.021 145.492,78.615 135.582,90.681 128.945 C 91.826 128.315,94.792 126.559,97.273 125.042 C 99.754 123.525,102.417 121.932,103.192 121.502 C 103.966 121.072,105.173 120.288,105.873 119.760 C 106.574 119.232,107.239 118.800,107.351 118.800 C 107.464 118.800,111.269 116.550,115.808 113.800 C 120.347 111.050,124.108 108.800,124.167 108.800 C 124.225 108.800,125.786 107.810,127.636 106.600 C 129.486 105.390,131.152 104.400,131.338 104.400 C 131.524 104.400,132.235 103.995,132.917 103.500 C 133.599 103.005,135.546 101.790,137.243 100.800 C 140.880 98.678,142.523 97.689,149.200 93.597 C 156.388 89.193,159.691 87.191,162.392 85.600 C 168.082 82.250,178.685 75.851,179.612 75.208 C 181.261 74.064,183.653 72.954,186.000 72.244 C 187.210 71.877,188.830 71.370,189.600 71.116 C 194.208 69.596,201.624 69.215,206.657 70.240 M299.121 175.451 C 303.836 177.932,307.350 179.814,311.000 181.813 C 320.824 187.195,320.800 197.193,310.949 202.829 C 309.742 203.520,307.882 204.651,306.816 205.342 C 305.749 206.034,302.158 208.220,298.835 210.200 C 287.884 216.726,267.680 228.960,260.800 233.232 C 258.710 234.529,256.889 235.593,256.753 235.596 C 256.617 235.598,255.329 236.365,253.890 237.300 C 252.451 238.235,249.901 239.810,248.223 240.800 C 246.545 241.790,244.323 243.132,243.286 243.782 C 242.249 244.433,240.140 245.706,238.600 246.612 C 237.060 247.518,234.302 249.191,232.471 250.330 C 230.639 251.468,229.049 252.400,228.936 252.400 C 228.823 252.400,227.981 252.916,227.065 253.547 C 214.146 262.444,200.280 265.616,189.800 262.072 C 185.416 260.589,182.620 259.415,179.996 257.955 C 178.568 257.160,174.340 254.927,170.600 252.993 C 166.860 251.058,159.300 247.101,153.800 244.198 C 148.300 241.296,143.260 238.642,142.600 238.301 C 141.940 237.959,139.420 236.642,137.000 235.373 C 126.536 229.887,124.812 228.986,121.400 227.222 C 117.563 225.238,111.130 221.850,104.600 218.374 C 99.483 215.650,95.097 213.349,90.737 211.100 C 77.862 204.460,78.055 194.926,91.216 187.415 C 91.615 187.187,93.440 186.105,95.271 185.011 C 97.102 183.916,98.960 182.817,99.400 182.567 C 99.840 182.317,101.412 181.368,102.893 180.457 C 106.266 178.381,105.985 178.361,111.110 181.057 C 113.470 182.298,117.065 184.188,119.100 185.257 C 126.563 189.176,130.289 191.139,134.200 193.211 C 136.400 194.376,139.640 196.086,141.400 197.010 C 143.160 197.935,146.400 199.642,148.600 200.804 C 150.800 201.966,154.220 203.750,156.200 204.768 C 163.091 208.312,175.013 214.513,177.000 215.586 C 180.353 217.398,183.942 218.627,190.600 220.243 C 194.693 221.237,204.953 221.126,209.810 220.036 C 218.789 218.021,222.813 216.269,232.400 210.201 C 233.170 209.714,235.690 208.221,238.000 206.885 C 240.310 205.549,242.981 203.948,243.935 203.328 C 247.105 201.267,250.967 198.873,253.800 197.213 C 256.286 195.756,266.500 189.627,268.600 188.333 C 271.084 186.801,277.975 182.617,279.000 182.018 C 282.853 179.766,290.805 174.946,291.993 174.142 C 293.921 172.838,294.278 172.904,299.121 175.451 M294.883 235.748 C 296.707 236.709,300.180 238.536,302.600 239.809 C 311.143 244.300,313.418 245.663,315.142 247.323 C 321.272 253.223,318.583 261.561,308.927 266.596 C 308.087 267.034,306.072 268.249,304.449 269.296 C 302.825 270.343,301.321 271.200,301.106 271.200 C 300.891 271.200,300.059 271.715,299.258 272.345 C 298.456 272.975,297.170 273.810,296.400 274.201 C 295.630 274.592,294.190 275.426,293.200 276.055 C 289.775 278.228,272.755 288.400,272.543 288.400 C 272.426 288.400,271.581 288.917,270.665 289.549 C 269.749 290.181,266.930 291.922,264.400 293.416 C 261.870 294.911,258.900 296.711,257.800 297.415 C 256.700 298.120,254.912 299.215,253.826 299.848 C 250.322 301.893,237.711 309.448,232.935 312.363 C 230.919 313.593,228.759 314.894,228.135 315.253 C 227.511 315.613,225.020 317.113,222.600 318.589 C 215.259 323.063,215.333 323.033,207.000 324.862 C 198.158 326.803,188.895 325.135,178.844 319.794 C 174.465 317.466,168.705 314.444,160.000 309.907 C 157.910 308.818,154.760 307.165,153.000 306.235 C 144.259 301.614,141.683 300.265,135.400 297.014 C 131.660 295.079,128.420 293.359,128.200 293.192 C 127.980 293.025,125.190 291.543,122.000 289.900 C 112.807 285.163,106.012 281.592,103.200 280.021 C 101.770 279.222,99.970 278.320,99.200 278.018 C 98.430 277.716,97.530 277.259,97.200 277.003 C 96.870 276.747,95.070 275.763,93.200 274.816 C 91.330 273.869,89.260 272.709,88.600 272.239 C 87.940 271.769,86.889 271.124,86.265 270.806 C 82.460 268.867,80.407 263.060,82.010 258.773 C 83.509 254.766,85.255 253.367,99.505 244.762 C 109.923 238.471,109.077 238.621,115.362 241.952 C 117.803 243.246,121.960 245.429,124.600 246.803 C 127.240 248.177,130.930 250.113,132.800 251.104 C 134.670 252.096,138.450 254.084,141.200 255.523 C 143.950 256.961,148.540 259.392,151.400 260.925 C 154.260 262.459,158.130 264.506,160.000 265.475 C 161.870 266.444,164.030 267.584,164.800 268.009 C 177.653 275.098,184.381 277.931,191.000 279.042 C 198.046 280.225,209.210 279.614,214.400 277.762 C 215.390 277.408,217.134 276.873,218.275 276.571 C 220.243 276.051,224.756 273.713,229.600 270.702 C 237.792 265.610,239.133 264.800,239.374 264.800 C 239.523 264.800,240.669 264.116,241.922 263.280 C 243.175 262.444,246.000 260.702,248.200 259.410 C 250.400 258.118,253.100 256.492,254.200 255.797 C 256.684 254.226,263.858 249.902,266.800 248.202 C 268.010 247.503,270.980 245.707,273.400 244.212 C 275.820 242.717,278.430 241.137,279.200 240.700 C 281.940 239.145,287.422 235.850,288.795 234.932 C 290.673 233.678,291.049 233.728,294.883 235.748 " stroke="none" fill="#1b212e" fill-rule="evenodd"></path><path id="path2" d="M194.600 70.800 C 193.288 70.980,194.852 71.096,199.142 71.137 C 206.954 71.212,213.172 72.596,218.000 75.335 C 219.602 76.244,223.088 78.092,230.800 82.122 C 233.770 83.673,237.617 85.721,239.349 86.671 C 241.080 87.622,242.563 88.400,242.644 88.400 C 242.724 88.400,245.448 89.818,248.695 91.552 C 251.943 93.286,257.030 95.961,260.000 97.498 C 262.970 99.034,267.020 101.159,269.000 102.219 C 270.980 103.279,274.220 104.989,276.200 106.020 C 279.559 107.768,285.166 110.709,288.400 112.418 C 296.325 116.608,309.288 123.393,310.386 123.927 C 319.740 128.472,319.410 137.516,309.674 143.449 C 307.983 144.479,305.970 145.716,305.200 146.198 C 302.749 147.731,292.738 153.776,288.800 156.100 C 286.710 157.333,283.785 159.120,282.301 160.071 C 279.755 161.702,276.709 163.570,272.253 166.236 C 271.182 166.876,268.932 168.244,267.253 169.275 C 265.574 170.306,262.940 171.894,261.400 172.805 C 259.860 173.715,257.207 175.302,255.504 176.330 C 253.802 177.359,247.592 181.104,241.704 184.653 C 235.817 188.201,227.760 193.062,223.800 195.454 C 215.243 200.622,215.478 200.511,210.292 201.836 C 200.745 204.275,188.789 203.015,182.033 198.859 C 180.908 198.166,179.879 197.600,179.745 197.600 C 179.611 197.600,176.059 195.776,171.851 193.547 C 167.643 191.318,162.400 188.548,160.200 187.392 C 158.000 186.236,154.670 184.486,152.800 183.503 C 150.930 182.520,146.340 180.133,142.600 178.198 C 138.860 176.264,135.605 174.531,135.367 174.347 C 135.128 174.163,133.058 173.049,130.767 171.871 C 121.972 167.349,114.584 163.484,114.200 163.204 C 113.980 163.043,110.830 161.373,107.200 159.493 C 100.949 156.255,98.431 154.940,91.050 151.057 C 81.532 146.050,79.782 139.180,86.571 133.469 C 88.421 131.913,95.691 127.200,96.241 127.200 C 96.369 127.200,97.491 126.506,98.736 125.658 C 99.981 124.810,103.160 122.856,105.800 121.315 C 111.932 117.735,127.213 108.465,128.000 107.846 C 128.330 107.587,129.410 106.940,130.400 106.410 C 131.390 105.879,133.225 104.805,134.478 104.022 C 135.731 103.240,138.130 101.790,139.808 100.800 C 141.486 99.810,143.880 98.358,145.129 97.573 C 146.378 96.788,149.830 94.691,152.800 92.912 C 155.770 91.133,163.330 86.572,169.600 82.776 C 182.835 74.763,182.687 74.843,187.400 73.188 C 194.155 70.815,194.131 70.315,187.370 72.553 C 183.006 73.997,183.353 73.803,162.200 86.595 C 146.181 96.282,146.706 95.965,142.924 98.236 C 141.426 99.135,137.230 101.675,133.600 103.880 C 117.891 113.420,114.698 115.352,101.800 123.114 C 82.037 135.009,79.453 137.975,82.990 144.713 C 84.667 147.908,85.932 148.987,91.233 151.745 C 93.085 152.708,96.040 154.262,97.800 155.197 C 99.560 156.133,103.250 158.067,106.000 159.495 C 108.750 160.923,112.440 162.857,114.200 163.794 C 115.960 164.730,122.620 168.244,129.000 171.601 C 135.380 174.959,142.130 178.518,144.000 179.511 C 147.650 181.450,152.324 183.896,160.600 188.199 C 163.460 189.686,168.770 192.477,172.400 194.401 C 187.125 202.205,188.686 202.787,197.034 203.585 C 200.918 203.956,202.048 203.910,206.151 203.208 C 213.935 201.878,214.745 201.489,234.511 189.600 C 244.569 183.550,255.274 177.124,258.299 175.319 C 261.325 173.514,264.340 171.685,265.000 171.252 C 265.660 170.820,267.100 169.938,268.200 169.291 C 270.563 167.901,282.358 160.719,290.000 156.017 C 292.970 154.190,295.940 152.384,296.600 152.004 C 314.614 141.642,318.671 137.866,317.827 132.242 C 317.024 126.889,316.006 126.198,285.200 110.096 C 276.922 105.770,272.962 103.691,268.950 101.568 C 266.778 100.418,263.020 98.452,260.600 97.199 C 256.719 95.188,239.550 86.126,221.826 76.732 C 216.567 73.945,214.043 72.895,209.400 71.566 C 205.750 70.522,199.129 70.179,194.600 70.800 M289.800 176.267 C 287.820 177.498,277.920 183.490,267.800 189.584 C 257.680 195.677,246.610 202.378,243.200 204.475 C 223.808 216.402,220.392 218.188,214.000 219.741 C 204.190 222.125,197.973 222.188,186.800 220.017 C 182.616 219.204,181.510 218.710,167.000 211.178 C 162.600 208.894,157.380 206.190,155.400 205.169 C 152.030 203.432,150.112 202.423,141.000 197.598 C 113.269 182.914,106.647 179.552,105.850 179.752 C 105.115 179.936,102.779 181.280,97.155 184.754 C 96.580 185.109,95.230 185.919,94.155 186.554 C 82.910 193.190,79.966 197.652,82.965 203.513 C 84.967 207.424,85.848 207.936,130.600 231.210 C 133.680 232.812,142.230 237.306,149.600 241.196 C 156.970 245.087,163.540 248.549,164.200 248.889 C 166.982 250.323,173.489 253.714,179.240 256.725 C 188.895 261.780,190.186 262.123,199.600 262.135 C 205.836 262.143,207.801 262.011,209.400 261.478 C 211.597 260.745,211.606 260.745,205.400 261.621 C 201.965 262.106,195.643 261.888,191.000 261.123 C 188.296 260.678,181.548 257.502,167.800 250.204 C 161.970 247.109,157.066 244.536,151.400 241.600 C 148.320 240.004,145.620 238.564,145.400 238.399 C 145.180 238.234,142.030 236.566,138.400 234.692 C 134.770 232.818,130.360 230.523,128.600 229.591 C 126.840 228.659,122.790 226.545,119.600 224.893 C 116.410 223.240,111.190 220.499,108.000 218.802 C 104.810 217.104,100.400 214.768,98.200 213.610 C 85.848 207.110,84.644 206.250,83.160 202.867 C 81.118 198.211,83.447 193.838,90.200 189.653 C 97.889 184.887,103.551 181.463,104.917 180.754 L 106.434 179.966 110.517 182.139 C 114.707 184.368,134.849 194.976,137.000 196.087 C 138.806 197.019,147.055 201.357,156.600 206.393 C 167.303 212.041,181.678 219.154,183.600 219.754 C 198.143 224.289,213.766 222.465,227.127 214.673 C 229.836 213.093,232.626 211.467,233.327 211.061 C 236.829 209.027,246.060 203.435,250.883 200.425 C 255.802 197.354,266.396 190.947,274.600 186.081 C 282.862 181.180,288.568 177.718,291.346 175.919 C 294.516 173.866,292.261 173.098,308.393 181.727 C 320.422 188.160,320.544 195.508,308.742 202.774 C 306.464 204.176,303.520 205.990,302.200 206.804 C 300.880 207.618,299.212 208.625,298.493 209.042 C 297.774 209.459,293.364 212.109,288.693 214.932 C 284.022 217.755,279.930 220.227,279.600 220.426 C 279.270 220.625,277.234 221.870,275.076 223.194 C 272.918 224.517,271.063 225.600,270.954 225.600 C 270.845 225.600,269.731 226.295,268.478 227.145 C 267.225 227.994,265.300 229.172,264.200 229.761 C 262.246 230.809,260.406 231.924,256.046 234.706 C 254.861 235.462,253.151 236.487,252.246 236.984 C 251.341 237.482,248.980 238.897,247.000 240.130 C 245.020 241.362,241.978 243.232,240.240 244.285 C 238.501 245.338,236.585 246.501,235.982 246.868 C 217.287 258.254,216.047 258.968,213.474 259.834 C 212.415 260.190,211.640 260.573,211.751 260.684 C 212.061 260.995,217.229 258.925,218.805 257.860 C 219.572 257.341,222.270 255.692,224.800 254.195 C 227.330 252.698,230.594 250.736,232.053 249.836 C 233.512 248.936,235.582 247.673,236.653 247.028 C 237.724 246.383,242.290 243.611,246.800 240.868 C 251.310 238.125,256.710 234.857,258.800 233.606 C 260.890 232.356,265.030 229.838,268.000 228.012 C 270.970 226.187,275.740 223.298,278.600 221.594 C 281.460 219.890,289.290 215.176,296.000 211.118 C 302.710 207.061,309.100 203.214,310.200 202.570 C 316.305 198.998,319.238 193.354,317.253 189.000 C 315.431 185.003,313.906 183.908,300.400 176.904 C 298.090 175.706,296.029 174.562,295.820 174.363 C 294.993 173.573,293.242 174.127,289.800 176.267 M283.600 238.834 C 279.970 241.039,275.650 243.650,274.000 244.635 C 272.350 245.621,268.944 247.681,266.431 249.214 C 263.918 250.746,261.788 252.000,261.698 252.000 C 261.609 252.000,260.605 252.610,259.468 253.355 C 257.448 254.679,233.152 269.356,226.400 273.331 C 221.746 276.071,220.756 276.519,216.497 277.807 C 214.461 278.424,212.885 279.018,212.995 279.129 C 213.195 279.328,214.398 279.008,219.000 277.533 C 221.778 276.642,224.851 274.926,238.200 266.809 C 239.960 265.739,242.750 264.063,244.400 263.085 C 248.482 260.665,257.803 255.039,259.955 253.695 C 260.920 253.093,262.772 251.970,264.071 251.200 C 270.926 247.136,287.220 237.267,288.658 236.307 C 290.659 234.971,291.375 234.936,293.200 236.083 C 293.970 236.566,296.040 237.707,297.800 238.617 C 313.607 246.793,314.782 247.595,316.602 251.442 C 318.784 256.054,315.819 261.429,309.000 265.222 C 307.680 265.957,305.898 267.062,305.040 267.679 C 304.182 268.295,303.323 268.800,303.132 268.800 C 302.941 268.800,302.023 269.293,301.092 269.896 C 300.161 270.499,298.187 271.714,296.704 272.596 C 293.465 274.523,285.016 279.625,269.400 289.084 C 263.020 292.949,256.810 296.688,255.600 297.393 C 253.148 298.822,250.198 300.602,246.600 302.823 C 245.280 303.638,243.335 304.821,242.277 305.452 C 239.576 307.064,234.758 309.974,227.461 314.400 C 215.908 321.408,215.384 321.670,210.276 322.996 C 208.254 323.520,207.050 323.954,207.600 323.960 C 208.720 323.973,212.280 323.138,214.380 322.370 C 215.951 321.796,218.455 320.406,224.200 316.919 C 226.400 315.584,230.630 313.026,233.600 311.236 C 236.570 309.445,239.270 307.815,239.600 307.613 C 241.376 306.528,248.155 302.434,261.505 294.386 C 269.703 289.444,278.163 284.342,280.305 283.050 C 282.447 281.757,284.740 280.384,285.400 279.999 C 286.060 279.614,290.830 276.729,296.000 273.587 C 301.170 270.445,306.930 266.978,308.800 265.883 C 320.365 259.107,320.908 250.084,310.088 244.498 C 308.829 243.849,306.090 242.411,304.000 241.302 C 301.910 240.194,298.817 238.566,297.126 237.685 C 295.435 236.803,293.640 235.793,293.137 235.441 C 291.529 234.315,290.345 234.736,283.600 238.834 M105.000 242.269 C 103.020 243.490,100.500 245.036,99.400 245.705 C 98.300 246.374,95.211 248.252,92.536 249.879 C 77.278 259.155,78.017 266.152,95.200 275.101 C 98.610 276.877,102.390 278.858,103.600 279.504 C 104.810 280.150,108.050 281.852,110.800 283.286 C 113.550 284.720,117.420 286.748,119.400 287.792 C 121.380 288.836,124.890 290.683,127.200 291.897 C 129.510 293.110,133.065 294.980,135.100 296.051 C 137.135 297.123,140.555 298.923,142.700 300.051 C 144.845 301.179,147.860 302.778,149.400 303.603 C 150.940 304.428,154.630 306.363,157.600 307.902 C 162.720 310.556,165.406 311.961,175.200 317.115 C 183.764 321.621,186.239 322.813,188.257 323.399 C 191.942 324.471,191.902 324.018,188.200 322.765 C 186.220 322.095,182.440 320.410,179.800 319.021 C 177.160 317.632,169.661 313.684,163.135 310.248 C 156.610 306.811,151.134 304.000,150.967 304.000 C 150.800 304.000,150.379 303.755,150.031 303.457 C 149.684 303.158,146.160 301.247,142.200 299.211 C 138.240 297.175,134.820 295.376,134.600 295.213 C 134.380 295.050,131.140 293.337,127.400 291.406 C 123.660 289.476,119.340 287.226,117.800 286.406 C 116.260 285.587,110.950 282.808,106.000 280.232 C 101.050 277.656,96.550 275.285,96.000 274.962 C 95.450 274.640,93.740 273.730,92.200 272.940 C 83.616 268.536,80.840 264.046,83.382 258.675 C 85.142 254.957,85.782 254.488,104.360 243.297 L 109.320 240.309 110.760 240.994 C 112.510 241.827,132.359 252.217,156.400 264.885 C 179.033 276.811,179.651 277.122,182.970 278.254 C 187.205 279.700,187.496 279.340,183.318 277.823 C 179.494 276.434,176.582 275.017,165.800 269.299 C 156.569 264.403,152.719 262.367,148.200 259.995 C 146.000 258.840,142.712 257.107,140.893 256.145 C 137.668 254.439,131.455 251.177,125.000 247.801 C 123.240 246.881,119.168 244.749,115.952 243.064 C 109.026 239.436,109.536 239.473,105.000 242.269 M188.200 279.595 C 193.504 281.343,207.834 281.310,211.800 279.540 C 212.418 279.264,212.327 279.231,211.400 279.394 C 205.915 280.359,197.316 280.643,192.800 280.008 C 186.566 279.132,186.879 279.160,188.200 279.595 M193.000 324.400 C 193.660 324.568,195.010 324.704,196.000 324.703 L 197.800 324.700 196.000 324.380 C 195.010 324.203,193.660 324.067,193.000 324.077 L 191.800 324.095 193.000 324.400 M202.400 324.400 C 201.015 324.692,201.019 324.695,202.800 324.707 C 203.790 324.715,205.050 324.576,205.600 324.400 C 206.954 323.966,204.460 323.966,202.400 324.400 " stroke="none" fill="#839b76" fill-rule="evenodd"></path><path id="path3" d="M198.300 70.289 C 199.015 70.378,200.185 70.378,200.900 70.289 C 201.615 70.201,201.030 70.128,199.600 70.128 C 198.170 70.128,197.585 70.201,198.300 70.289 M168.296 82.550 C 166.375 83.731,165.838 84.289,167.400 83.481 C 168.654 82.833,170.345 81.626,170.000 81.625 C 169.890 81.625,169.123 82.041,168.296 82.550 M159.500 87.829 C 158.005 88.640,158.096 88.978,159.600 88.200 C 160.260 87.859,160.800 87.494,160.800 87.390 C 160.800 87.132,160.757 87.147,159.500 87.829 M245.200 88.988 C 245.200 89.098,246.280 89.734,247.600 90.400 C 248.920 91.066,250.000 91.522,250.000 91.412 C 250.000 91.302,248.920 90.666,247.600 90.000 C 246.280 89.334,245.200 88.878,245.200 88.988 M252.800 92.990 C 252.800 93.100,254.060 93.824,255.600 94.600 C 257.140 95.376,258.400 95.920,258.400 95.810 C 258.400 95.700,257.140 94.976,255.600 94.200 C 254.060 93.424,252.800 92.880,252.800 92.990 M261.200 97.600 C 261.970 98.022,262.780 98.366,263.000 98.366 C 263.220 98.366,262.770 98.022,262.000 97.600 C 261.230 97.178,260.420 96.834,260.200 96.834 C 259.980 96.834,260.430 97.178,261.200 97.600 M270.400 102.179 C 270.400 102.289,270.940 102.659,271.600 103.000 C 272.260 103.341,272.800 103.531,272.800 103.421 C 272.800 103.311,272.260 102.941,271.600 102.600 C 270.940 102.259,270.400 102.069,270.400 102.179 M134.100 103.246 C 132.737 104.119,132.295 104.706,133.500 104.043 C 134.418 103.539,135.856 102.427,135.600 102.419 C 135.490 102.416,134.815 102.788,134.100 103.246 M130.100 105.596 C 129.385 106.032,128.800 106.475,128.800 106.581 C 128.800 106.686,129.430 106.401,130.200 105.947 C 130.970 105.493,131.600 105.049,131.600 104.960 C 131.600 104.705,131.474 104.758,130.100 105.596 M111.300 117.026 C 110.365 117.587,109.600 118.140,109.600 118.255 C 109.600 118.471,112.299 116.938,112.980 116.336 C 113.667 115.728,113.027 115.991,111.300 117.026 M81.714 141.000 C 81.717 142.100,81.795 142.503,81.887 141.895 C 81.979 141.286,81.977 140.386,81.882 139.895 C 81.787 139.403,81.711 139.900,81.714 141.000 M314.575 140.500 L 313.400 141.800 314.700 140.625 C 315.415 139.979,316.000 139.394,316.000 139.325 C 316.000 139.016,315.670 139.288,314.575 140.500 M82.000 143.353 C 82.000 143.782,83.190 146.000,83.421 146.000 C 83.531 146.000,83.323 145.415,82.959 144.700 C 82.217 143.240,82.000 142.936,82.000 143.353 M305.700 146.446 C 304.337 147.319,303.895 147.906,305.100 147.243 C 306.018 146.739,307.456 145.627,307.200 145.619 C 307.090 145.616,306.415 145.988,305.700 146.446 M84.091 147.123 C 84.763 148.130,86.762 149.724,88.500 150.640 C 90.246 151.561,89.776 150.979,87.873 149.864 C 86.922 149.307,85.544 148.255,84.810 147.526 C 83.990 146.712,83.713 146.557,84.091 147.123 M93.600 153.221 C 94.642 153.930,96.400 154.828,96.400 154.650 C 96.400 154.428,93.639 152.798,93.277 152.806 C 93.125 152.809,93.270 152.996,93.600 153.221 M108.400 160.990 C 108.400 161.100,109.660 161.824,111.200 162.600 C 112.740 163.376,114.000 163.920,114.000 163.810 C 114.000 163.700,112.740 162.976,111.200 162.200 C 109.660 161.424,108.400 160.880,108.400 160.990 M116.000 164.998 C 116.000 165.267,120.049 167.284,120.229 167.105 C 120.311 167.023,119.393 166.473,118.189 165.882 C 116.985 165.292,116.000 164.894,116.000 164.998 M123.600 168.998 C 123.600 169.267,127.649 171.284,127.829 171.105 C 127.911 171.023,126.993 170.473,125.789 169.882 C 124.585 169.292,123.600 168.894,123.600 168.998 M285.700 178.446 C 284.337 179.319,283.895 179.906,285.100 179.243 C 286.018 178.739,287.456 177.627,287.200 177.619 C 287.090 177.616,286.415 177.988,285.700 178.446 M308.400 180.979 C 308.400 181.089,308.940 181.459,309.600 181.800 C 310.260 182.141,310.800 182.331,310.800 182.221 C 310.800 182.111,310.260 181.741,309.600 181.400 C 308.940 181.059,308.400 180.869,308.400 180.979 M276.700 183.829 C 275.205 184.640,275.296 184.978,276.800 184.200 C 277.460 183.859,278.000 183.494,278.000 183.390 C 278.000 183.132,277.957 183.147,276.700 183.829 M313.600 184.125 C 313.600 184.194,314.185 184.779,314.900 185.425 L 316.200 186.600 315.025 185.300 C 313.930 184.088,313.600 183.816,313.600 184.125 M94.881 185.772 C 93.023 187.085,92.762 187.461,94.331 186.562 C 95.063 186.143,95.850 185.575,96.080 185.300 C 96.671 184.593,96.393 184.702,94.881 185.772 M238.700 187.029 C 237.205 187.840,237.296 188.178,238.800 187.400 C 239.460 187.059,240.000 186.694,240.000 186.590 C 240.000 186.332,239.957 186.347,238.700 187.029 M270.500 187.596 C 269.785 188.032,269.200 188.475,269.200 188.581 C 269.200 188.686,269.830 188.401,270.600 187.947 C 271.370 187.493,272.000 187.049,272.000 186.960 C 272.000 186.705,271.874 186.758,270.500 187.596 M125.600 189.388 C 125.600 189.498,126.680 190.134,128.000 190.800 C 129.320 191.466,130.400 191.922,130.400 191.812 C 130.400 191.702,129.320 191.066,128.000 190.400 C 126.680 189.734,125.600 189.278,125.600 189.388 M163.200 189.798 C 163.200 190.067,167.249 192.084,167.429 191.905 C 167.511 191.823,166.593 191.273,165.389 190.682 C 164.185 190.092,163.200 189.694,163.200 189.798 M232.700 190.629 C 231.205 191.440,231.296 191.778,232.800 191.000 C 233.460 190.659,234.000 190.294,234.000 190.190 C 234.000 189.932,233.957 189.947,232.700 190.629 M133.200 193.388 C 133.200 193.498,134.280 194.134,135.600 194.800 C 136.920 195.466,138.000 195.922,138.000 195.812 C 138.000 195.702,136.920 195.066,135.600 194.400 C 134.280 193.734,133.200 193.278,133.200 193.388 M82.465 196.217 C 81.795 197.688,81.923 198.002,82.647 196.665 C 82.986 196.040,83.188 195.454,83.096 195.363 C 83.005 195.271,82.721 195.656,82.465 196.217 M141.600 197.784 C 141.600 197.894,142.320 198.351,143.200 198.800 C 144.080 199.249,144.800 199.526,144.800 199.416 C 144.800 199.306,144.080 198.849,143.200 198.400 C 142.320 197.951,141.600 197.674,141.600 197.784 M81.709 199.600 C 81.709 200.590,81.787 200.995,81.882 200.500 C 81.978 200.005,81.978 199.195,81.882 198.700 C 81.787 198.205,81.709 198.610,81.709 199.600 M314.181 199.700 L 312.600 201.400 314.300 199.819 C 315.235 198.949,316.000 198.184,316.000 198.119 C 316.000 197.816,315.652 198.119,314.181 199.700 M149.200 201.741 C 149.200 202.008,152.890 204.043,153.063 203.871 C 153.140 203.793,152.303 203.239,151.202 202.640 C 150.101 202.040,149.200 201.636,149.200 201.741 M82.000 202.153 C 82.000 202.582,83.190 204.800,83.421 204.800 C 83.531 204.800,83.323 204.215,82.959 203.500 C 82.217 202.040,82.000 201.736,82.000 202.153 M196.500 203.887 C 197.105 203.978,198.095 203.978,198.700 203.887 C 199.305 203.795,198.810 203.720,197.600 203.720 C 196.390 203.720,195.895 203.795,196.500 203.887 M202.900 203.876 C 203.285 203.976,203.915 203.976,204.300 203.876 C 204.685 203.775,204.370 203.693,203.600 203.693 C 202.830 203.693,202.515 203.775,202.900 203.876 M85.000 206.800 C 85.859 207.680,86.652 208.400,86.762 208.400 C 86.872 208.400,86.259 207.680,85.400 206.800 C 84.541 205.920,83.748 205.200,83.638 205.200 C 83.528 205.200,84.141 205.920,85.000 206.800 M239.400 206.453 C 238.300 207.134,237.220 207.876,237.000 208.103 C 236.557 208.558,239.314 206.990,240.834 205.921 C 242.431 204.798,241.539 205.129,239.400 206.453 M87.200 208.587 C 87.200 208.697,88.100 209.243,89.200 209.800 C 90.300 210.357,91.200 210.723,91.200 210.613 C 91.200 210.503,90.300 209.957,89.200 209.400 C 88.100 208.843,87.200 208.477,87.200 208.587 M234.100 209.596 C 233.385 210.032,232.800 210.475,232.800 210.581 C 232.800 210.686,233.430 210.401,234.200 209.947 C 234.970 209.493,235.600 209.049,235.600 208.960 C 235.600 208.705,235.474 208.758,234.100 209.596 M170.800 212.979 C 170.800 213.089,171.340 213.459,172.000 213.800 C 172.660 214.141,173.200 214.331,173.200 214.221 C 173.200 214.111,172.660 213.741,172.000 213.400 C 171.340 213.059,170.800 212.869,170.800 212.979 M289.897 214.766 C 288.253 215.819,288.025 216.191,289.475 215.454 C 290.176 215.097,290.861 214.624,290.998 214.403 C 291.319 213.884,291.223 213.915,289.897 214.766 M220.400 217.400 C 219.850 217.714,219.580 217.972,219.800 217.972 C 220.020 217.972,220.650 217.714,221.200 217.400 C 221.750 217.086,222.020 216.828,221.800 216.828 C 221.580 216.828,220.950 217.086,220.400 217.400 M180.800 218.200 C 181.350 218.514,181.980 218.772,182.200 218.772 C 182.420 218.772,182.150 218.514,181.600 218.200 C 181.050 217.886,180.420 217.628,180.200 217.628 C 179.980 217.628,180.250 217.886,180.800 218.200 M183.400 219.200 C 183.840 219.389,184.470 219.544,184.800 219.544 C 185.178 219.544,185.104 219.417,184.600 219.200 C 184.160 219.011,183.530 218.856,183.200 218.856 C 182.822 218.856,182.896 218.983,183.400 219.200 M206.100 221.076 C 206.485 221.176,207.115 221.176,207.500 221.076 C 207.885 220.975,207.570 220.893,206.800 220.893 C 206.030 220.893,205.715 220.975,206.100 221.076 M201.705 221.487 C 202.314 221.579,203.214 221.577,203.705 221.482 C 204.197 221.387,203.700 221.311,202.600 221.314 C 201.500 221.317,201.097 221.395,201.705 221.487 M277.897 221.966 C 276.253 223.019,276.025 223.391,277.475 222.654 C 278.176 222.297,278.861 221.824,278.998 221.603 C 279.319 221.084,279.223 221.115,277.897 221.966 M274.100 224.226 C 273.165 224.787,272.400 225.340,272.400 225.455 C 272.400 225.671,275.099 224.138,275.780 223.536 C 276.467 222.928,275.827 223.191,274.100 224.226 M117.600 224.579 C 117.600 224.689,118.140 225.059,118.800 225.400 C 119.460 225.741,120.000 225.931,120.000 225.821 C 120.000 225.711,119.460 225.341,118.800 225.000 C 118.140 224.659,117.600 224.469,117.600 224.579 M269.500 227.029 C 268.005 227.840,268.096 228.178,269.600 227.400 C 270.260 227.059,270.800 226.694,270.800 226.590 C 270.800 226.332,270.757 226.347,269.500 227.029 M265.096 229.750 C 263.175 230.931,262.638 231.489,264.200 230.681 C 265.454 230.033,267.145 228.826,266.800 228.825 C 266.690 228.825,265.923 229.241,265.096 229.750 M132.800 232.591 C 132.800 232.701,134.240 233.515,136.000 234.400 C 137.760 235.285,139.200 235.919,139.200 235.809 C 139.200 235.699,137.760 234.885,136.000 234.000 C 134.240 233.115,132.800 232.481,132.800 232.591 M258.300 233.829 C 256.805 234.640,256.896 234.978,258.400 234.200 C 259.060 233.859,259.600 233.494,259.600 233.390 C 259.600 233.132,259.557 233.147,258.300 233.829 M289.845 234.728 C 289.733 234.908,290.173 234.977,290.821 234.882 C 291.470 234.787,292.000 234.640,292.000 234.555 C 292.000 234.250,290.043 234.407,289.845 234.728 M141.200 236.996 C 141.200 237.270,143.649 238.484,143.832 238.301 C 143.919 238.214,143.362 237.844,142.595 237.478 C 141.828 237.112,141.200 236.895,141.200 236.996 M297.600 237.779 C 297.600 237.889,298.140 238.259,298.800 238.600 C 299.460 238.941,300.000 239.131,300.000 239.021 C 300.000 238.911,299.460 238.541,298.800 238.200 C 298.140 237.859,297.600 237.669,297.600 237.779 M144.400 238.579 C 144.400 238.689,144.940 239.059,145.600 239.400 C 146.260 239.741,146.800 239.931,146.800 239.821 C 146.800 239.711,146.260 239.341,145.600 239.000 C 144.940 238.659,144.400 238.469,144.400 238.579 M112.033 240.951 C 112.442 241.321,115.600 242.795,115.600 242.616 C 115.600 242.389,112.581 240.800,112.149 240.800 C 111.994 240.800,111.942 240.868,112.033 240.951 M244.100 242.446 C 242.737 243.319,242.295 243.906,243.500 243.243 C 244.418 242.739,245.856 241.627,245.600 241.619 C 245.490 241.616,244.815 241.988,244.100 242.446 M305.200 241.779 C 305.200 241.889,305.740 242.259,306.400 242.600 C 307.060 242.941,307.600 243.131,307.600 243.021 C 307.600 242.911,307.060 242.541,306.400 242.200 C 305.740 241.859,305.200 241.669,305.200 241.779 M101.900 243.829 C 100.405 244.640,100.496 244.978,102.000 244.200 C 102.660 243.859,103.200 243.494,103.200 243.390 C 103.200 243.132,103.157 243.147,101.900 243.829 M120.000 244.979 C 120.000 245.089,120.540 245.459,121.200 245.800 C 121.860 246.141,122.400 246.331,122.400 246.221 C 122.400 246.111,121.860 245.741,121.200 245.400 C 120.540 245.059,120.000 244.869,120.000 244.979 M158.000 245.779 C 158.000 245.889,158.540 246.259,159.200 246.600 C 159.860 246.941,160.400 247.131,160.400 247.021 C 160.400 246.911,159.860 246.541,159.200 246.200 C 158.540 245.859,158.000 245.669,158.000 245.779 M269.897 246.766 C 268.253 247.819,268.025 248.191,269.475 247.454 C 270.176 247.097,270.861 246.624,270.998 246.403 C 271.319 245.884,271.223 245.915,269.897 246.766 M122.800 246.596 C 122.800 246.870,125.249 248.084,125.432 247.901 C 125.519 247.814,124.962 247.444,124.195 247.078 C 123.428 246.712,122.800 246.495,122.800 246.596 M266.100 249.026 C 265.165 249.587,264.400 250.140,264.400 250.255 C 264.400 250.471,267.099 248.938,267.780 248.336 C 268.467 247.728,267.827 247.991,266.100 249.026 M91.496 250.150 C 89.575 251.331,89.038 251.889,90.600 251.081 C 91.854 250.433,93.545 249.226,93.200 249.225 C 93.090 249.225,92.323 249.641,91.496 250.150 M262.600 251.200 C 261.940 251.637,261.580 251.992,261.800 251.988 C 262.201 251.982,264.376 250.423,264.000 250.412 C 263.890 250.408,263.260 250.763,262.600 251.200 M87.722 252.629 L 86.600 253.658 87.900 252.754 C 88.615 252.257,89.200 251.793,89.200 251.725 C 89.200 251.409,88.758 251.680,87.722 252.629 M225.097 253.966 C 223.453 255.019,223.225 255.391,224.675 254.654 C 225.376 254.297,226.061 253.824,226.198 253.603 C 226.519 253.084,226.423 253.115,225.097 253.966 M173.200 253.798 C 173.200 254.067,177.249 256.084,177.429 255.905 C 177.511 255.823,176.593 255.273,175.389 254.682 C 174.185 254.092,173.200 253.694,173.200 253.798 M220.687 256.631 C 219.429 257.418,218.400 258.158,218.400 258.277 C 218.400 258.395,218.879 258.178,219.465 257.794 C 220.051 257.410,221.131 256.741,221.865 256.308 C 223.016 255.629,223.490 255.200,223.087 255.200 C 223.026 255.200,221.946 255.844,220.687 256.631 M254.500 256.046 C 253.137 256.919,252.695 257.506,253.900 256.843 C 254.818 256.339,256.256 255.227,256.000 255.219 C 255.890 255.216,255.215 255.588,254.500 256.046 M82.465 258.617 C 81.795 260.088,81.923 260.402,82.647 259.065 C 82.986 258.440,83.188 257.854,83.096 257.763 C 83.005 257.671,82.721 258.056,82.465 258.617 M180.800 257.796 C 180.800 258.070,183.249 259.284,183.432 259.101 C 183.519 259.014,182.962 258.644,182.195 258.278 C 181.428 257.912,180.800 257.695,180.800 257.796 M249.500 259.029 C 248.005 259.840,248.096 260.178,249.600 259.400 C 250.260 259.059,250.800 258.694,250.800 258.590 C 250.800 258.332,250.757 258.347,249.500 259.029 M81.709 262.000 C 81.709 262.990,81.787 263.395,81.882 262.900 C 81.978 262.405,81.978 261.595,81.882 261.100 C 81.787 260.605,81.709 261.010,81.709 262.000 M314.000 262.200 C 313.028 263.190,312.323 264.000,312.433 264.000 C 312.543 264.000,313.428 263.190,314.400 262.200 C 315.372 261.210,316.077 260.400,315.967 260.400 C 315.857 260.400,314.972 261.210,314.000 262.200 M208.800 261.600 C 207.996 261.857,207.957 261.923,208.600 261.932 C 209.040 261.938,209.760 261.789,210.200 261.600 C 211.219 261.162,210.168 261.162,208.800 261.600 M192.705 262.283 C 193.202 262.379,193.922 262.375,194.305 262.275 C 194.687 262.175,194.280 262.096,193.400 262.101 C 192.520 262.105,192.207 262.187,192.705 262.283 M197.916 262.697 C 199.299 262.775,201.459 262.774,202.716 262.695 C 203.972 262.616,202.840 262.552,200.200 262.553 C 197.560 262.553,196.532 262.618,197.916 262.697 M308.700 265.829 C 307.205 266.640,307.296 266.978,308.800 266.200 C 309.460 265.859,310.000 265.494,310.000 265.390 C 310.000 265.132,309.957 265.147,308.700 265.829 M84.600 268.768 C 85.040 269.277,86.210 270.226,87.200 270.876 C 88.976 272.044,88.532 271.610,85.400 269.117 C 84.330 268.265,84.065 268.149,84.600 268.768 M225.900 273.227 C 225.075 273.663,224.400 274.108,224.400 274.218 C 224.400 274.327,225.120 274.049,226.000 273.600 C 226.880 273.151,227.600 272.697,227.600 272.592 C 227.600 272.330,227.597 272.331,225.900 273.227 M172.833 272.951 C 173.242 273.321,176.400 274.795,176.400 274.616 C 176.400 274.389,173.381 272.800,172.949 272.800 C 172.794 272.800,172.742 272.868,172.833 272.951 M294.500 274.446 C 293.137 275.319,292.695 275.906,293.900 275.243 C 294.818 274.739,296.256 273.627,296.000 273.619 C 295.890 273.616,295.215 273.988,294.500 274.446 M94.000 274.579 C 94.000 274.689,94.540 275.059,95.200 275.400 C 95.860 275.741,96.400 275.931,96.400 275.821 C 96.400 275.711,95.860 275.341,95.200 275.000 C 94.540 274.659,94.000 274.469,94.000 274.579 M196.917 280.297 C 198.411 280.374,200.751 280.374,202.117 280.296 C 203.482 280.218,202.260 280.155,199.400 280.155 C 196.540 280.156,195.422 280.220,196.917 280.297 M277.300 284.796 C 276.585 285.232,276.000 285.675,276.000 285.781 C 276.000 285.886,276.630 285.601,277.400 285.147 C 278.170 284.693,278.800 284.249,278.800 284.160 C 278.800 283.905,278.674 283.958,277.300 284.796 M115.200 285.779 C 115.200 285.889,115.740 286.259,116.400 286.600 C 117.060 286.941,117.600 287.131,117.600 287.021 C 117.600 286.911,117.060 286.541,116.400 286.200 C 115.740 285.859,115.200 285.669,115.200 285.779 M122.800 289.787 C 122.800 289.897,123.700 290.443,124.800 291.000 C 125.900 291.557,126.800 291.923,126.800 291.813 C 126.800 291.703,125.900 291.157,124.800 290.600 C 123.700 290.043,122.800 289.677,122.800 289.787 M129.600 293.397 C 129.600 293.668,132.849 295.284,133.030 295.103 C 133.114 295.019,132.376 294.559,131.391 294.081 C 130.406 293.602,129.600 293.294,129.600 293.397 M136.400 296.997 C 136.400 297.268,139.649 298.884,139.830 298.703 C 139.914 298.619,139.176 298.159,138.191 297.681 C 137.206 297.202,136.400 296.894,136.400 296.997 M255.896 297.750 C 253.975 298.931,253.438 299.489,255.000 298.681 C 256.254 298.033,257.945 296.826,257.600 296.825 C 257.490 296.825,256.723 297.241,255.896 297.750 M251.300 300.446 C 249.937 301.319,249.495 301.906,250.700 301.243 C 251.618 300.739,253.056 299.627,252.800 299.619 C 252.690 299.616,252.015 299.988,251.300 300.446 M231.100 312.629 C 229.605 313.440,229.696 313.778,231.200 313.000 C 231.860 312.659,232.400 312.294,232.400 312.190 C 232.400 311.932,232.357 311.947,231.100 312.629 M170.000 314.579 C 170.000 314.689,170.540 315.059,171.200 315.400 C 171.860 315.741,172.400 315.931,172.400 315.821 C 172.400 315.711,171.860 315.341,171.200 315.000 C 170.540 314.659,170.000 314.469,170.000 314.579 M176.800 318.197 C 176.800 318.468,180.049 320.084,180.230 319.903 C 180.314 319.819,179.576 319.359,178.591 318.881 C 177.606 318.402,176.800 318.094,176.800 318.197 M185.200 322.600 C 185.750 322.914,186.380 323.172,186.600 323.172 C 186.820 323.172,186.550 322.914,186.000 322.600 C 185.450 322.286,184.820 322.028,184.600 322.028 C 184.380 322.028,184.650 322.286,185.200 322.600 M197.113 325.095 C 198.276 325.176,200.076 325.176,201.113 325.093 C 202.151 325.011,201.200 324.945,199.000 324.946 C 196.800 324.947,195.951 325.014,197.113 325.095 " stroke="none" fill="#6a7c59" fill-rule="evenodd"></path><path id="path4" d="M193.600 70.172 C 192.170 70.437,190.370 70.862,189.600 71.116 C 188.830 71.370,187.210 71.877,186.000 72.244 C 183.653 72.954,181.261 74.064,179.612 75.208 C 179.056 75.594,175.495 77.747,171.701 79.992 C 165.822 83.470,163.827 84.800,164.489 84.800 C 164.565 84.800,168.825 82.280,173.958 79.200 C 190.396 69.335,199.048 67.922,213.800 72.692 C 214.900 73.047,221.650 76.427,228.800 80.202 C 235.950 83.977,245.400 88.920,249.800 91.187 C 254.200 93.453,257.980 95.444,258.200 95.610 C 258.590 95.905,265.002 99.296,268.200 100.898 C 269.080 101.339,272.590 103.184,276.000 104.998 C 279.410 106.811,288.950 111.858,297.200 116.211 C 315.132 125.674,316.884 126.981,318.016 131.733 L 318.318 133.000 318.359 131.778 C 318.431 129.629,315.280 125.539,312.036 123.571 C 311.466 123.226,308.660 121.715,305.800 120.215 C 299.526 116.923,296.392 115.264,290.600 112.169 C 284.993 109.172,279.812 106.446,276.000 104.486 C 273.269 103.082,269.017 100.842,261.400 96.793 C 259.860 95.974,256.710 94.320,254.400 93.117 C 252.090 91.914,248.580 90.064,246.600 89.006 C 244.620 87.948,241.290 86.186,239.200 85.090 C 237.110 83.994,233.330 82.012,230.800 80.686 C 228.270 79.360,224.494 77.390,222.408 76.310 C 220.322 75.229,218.432 74.196,218.208 74.013 C 217.381 73.338,212.629 71.600,211.611 71.600 C 211.033 71.600,210.389 71.438,210.180 71.240 C 208.729 69.864,198.731 69.220,193.600 70.172 M161.904 85.909 C 159.879 87.074,157.165 88.717,149.200 93.597 C 142.523 97.689,140.880 98.678,137.243 100.800 C 135.546 101.790,133.599 103.005,132.917 103.500 C 132.235 103.995,131.524 104.400,131.338 104.400 C 131.152 104.400,129.486 105.390,127.636 106.600 C 125.786 107.810,124.225 108.800,124.167 108.800 C 124.108 108.800,120.347 111.050,115.808 113.800 C 111.269 116.550,107.464 118.800,107.351 118.800 C 107.239 118.800,106.574 119.232,105.873 119.760 C 105.173 120.288,103.966 121.072,103.192 121.502 C 102.417 121.932,99.754 123.525,97.273 125.042 C 94.792 126.559,91.826 128.315,90.681 128.945 C 85.686 131.692,81.600 136.058,81.600 138.648 C 81.600 139.022,82.150 138.228,82.822 136.883 C 84.621 133.281,89.867 129.662,112.800 116.198 C 117.185 113.624,128.469 106.774,129.522 106.048 C 130.115 105.639,132.580 104.133,135.000 102.703 C 137.420 101.272,143.630 97.535,148.800 94.398 C 153.970 91.261,159.413 87.983,160.897 87.115 C 162.380 86.246,163.695 85.370,163.820 85.167 C 164.143 84.645,164.019 84.693,161.904 85.909 M318.054 134.621 C 317.763 139.021,311.293 144.075,291.600 155.288 C 290.830 155.726,287.680 157.656,284.600 159.577 C 281.520 161.497,278.418 163.413,277.707 163.834 C 270.615 168.035,266.002 170.935,266.160 171.094 C 266.266 171.200,267.456 170.592,268.804 169.743 C 270.152 168.894,271.736 167.930,272.324 167.600 C 272.911 167.270,274.744 166.173,276.396 165.161 C 278.048 164.150,279.980 162.980,280.688 162.561 C 281.396 162.143,284.006 160.531,286.488 158.981 C 288.970 157.430,292.530 155.240,294.400 154.114 C 296.270 152.988,298.970 151.348,300.400 150.470 C 301.830 149.591,305.277 147.503,308.060 145.829 C 314.945 141.688,318.821 137.454,318.278 134.667 C 318.118 133.845,318.106 133.843,318.054 134.621 M81.301 141.000 C 81.305 141.880,81.387 142.193,81.483 141.695 C 81.579 141.198,81.575 140.478,81.475 140.095 C 81.375 139.713,81.296 140.120,81.301 141.000 M81.616 143.326 C 81.567 145.605,84.930 149.187,89.326 151.539 C 97.860 156.103,101.188 157.866,104.400 159.520 C 106.270 160.483,109.420 162.121,111.400 163.161 C 113.380 164.201,116.530 165.826,118.400 166.774 C 120.270 167.721,122.250 168.797,122.800 169.165 C 123.350 169.532,124.790 170.268,126.000 170.800 C 127.210 171.332,128.650 172.064,129.200 172.428 C 130.164 173.066,133.685 174.930,145.200 180.900 C 148.170 182.440,151.680 184.285,153.000 185.000 C 154.320 185.715,158.370 187.841,162.000 189.724 C 165.630 191.607,169.827 193.807,171.326 194.614 C 172.825 195.421,174.140 195.994,174.247 195.887 C 174.354 195.780,173.577 195.251,172.521 194.712 C 171.464 194.173,168.440 192.598,165.800 191.213 C 163.160 189.827,160.460 188.417,159.800 188.080 C 159.140 187.743,154.100 185.089,148.600 182.183 C 143.100 179.277,136.440 175.774,133.800 174.400 C 131.160 173.027,127.290 171.002,125.200 169.902 C 120.379 167.363,117.445 165.830,109.000 161.434 C 105.260 159.488,102.020 157.761,101.800 157.598 C 101.580 157.434,98.340 155.723,94.600 153.795 C 85.333 149.018,83.938 147.904,82.188 143.881 C 81.840 143.080,81.625 142.872,81.616 143.326 M253.200 178.630 C 246.490 182.687,238.840 187.291,236.200 188.861 C 233.560 190.430,230.320 192.385,229.000 193.205 C 218.434 199.765,215.336 201.399,211.794 202.281 C 210.257 202.664,209.324 203.042,209.719 203.121 C 210.580 203.295,215.967 201.716,216.753 201.061 C 217.057 200.808,218.447 199.970,219.842 199.200 C 222.222 197.886,230.679 192.801,235.600 189.726 C 236.810 188.970,241.130 186.359,245.200 183.925 C 249.270 181.491,253.590 178.902,254.800 178.172 C 256.010 177.442,258.467 176.001,260.260 174.969 C 263.140 173.312,266.157 171.206,265.600 171.241 C 265.490 171.248,259.910 174.573,253.200 178.630 M291.993 174.142 C 290.744 174.987,282.058 180.246,279.000 182.008 C 278.007 182.581,273.625 185.230,269.265 187.893 C 268.751 188.207,268.435 188.568,268.563 188.696 C 268.691 188.824,269.111 188.661,269.498 188.334 C 270.057 187.861,278.226 182.877,281.519 181.000 C 281.905 180.780,284.837 179.025,288.034 177.100 C 291.231 175.175,294.040 173.600,294.277 173.600 C 295.141 173.600,312.182 182.853,313.879 184.244 C 320.296 189.502,319.078 197.397,311.100 202.257 C 308.255 203.990,308.072 204.448,310.834 202.923 C 318.848 198.497,320.714 190.600,315.099 184.864 C 313.502 183.232,312.481 182.585,306.000 179.100 C 293.875 172.581,294.155 172.680,291.993 174.142 M102.800 180.480 C 101.370 181.378,99.840 182.318,99.400 182.567 C 98.960 182.817,97.102 183.916,95.271 185.011 C 93.440 186.105,91.615 187.187,91.216 187.415 C 85.067 190.924,81.715 194.852,81.391 198.927 L 81.227 201.000 81.577 199.120 C 82.386 194.786,84.924 191.856,91.094 188.137 C 92.582 187.239,96.230 185.021,99.200 183.207 C 106.688 178.634,105.518 178.746,111.812 182.006 C 117.039 184.714,118.645 185.408,116.966 184.231 C 115.198 182.993,106.788 178.801,106.115 178.823 C 105.722 178.836,104.230 179.582,102.800 180.480 M118.220 185.167 C 118.429 185.368,120.310 186.429,122.400 187.523 C 124.490 188.618,132.870 193.029,141.023 197.326 C 149.176 201.623,158.086 206.297,160.823 207.712 C 163.560 209.127,168.652 211.763,172.139 213.570 C 175.625 215.377,178.547 216.787,178.631 216.702 C 178.715 216.618,177.933 216.091,176.892 215.532 C 174.875 214.447,162.179 207.843,156.200 204.768 C 154.220 203.750,150.800 201.966,148.600 200.804 C 146.400 199.642,143.160 197.935,141.400 197.010 C 139.640 196.086,136.400 194.376,134.200 193.211 C 130.382 191.189,125.786 188.763,120.627 186.049 C 118.174 184.758,117.566 184.535,118.220 185.167 M262.188 192.186 C 259.115 194.048,255.340 196.312,253.800 197.216 C 248.175 200.520,246.034 201.873,244.731 202.948 C 243.014 204.365,243.812 203.958,247.926 201.318 C 249.755 200.145,252.455 198.491,253.926 197.644 C 258.352 195.093,267.373 189.580,267.780 189.177 C 268.587 188.376,267.588 188.914,262.188 192.186 M176.221 197.115 C 178.615 198.805,187.188 202.740,189.000 202.979 C 190.450 203.171,190.394 203.123,188.400 202.465 C 185.959 201.659,179.025 198.378,176.708 196.931 C 174.637 195.638,174.307 195.763,176.221 197.115 M81.618 201.850 C 81.561 204.579,85.148 208.218,90.737 211.100 C 95.097 213.349,99.483 215.650,104.600 218.374 C 111.130 221.850,117.563 225.238,121.400 227.222 C 124.812 228.986,126.536 229.887,137.000 235.373 C 139.420 236.642,141.940 237.959,142.600 238.301 C 143.260 238.642,148.300 241.296,153.800 244.198 C 159.300 247.101,166.860 251.058,170.600 252.993 C 174.340 254.927,178.568 257.160,179.996 257.955 C 182.620 259.415,185.416 260.589,189.800 262.072 C 200.280 265.616,214.146 262.444,227.065 253.547 C 227.981 252.916,228.823 252.400,228.936 252.400 C 229.049 252.400,230.639 251.468,232.471 250.330 C 234.302 249.191,237.065 247.526,238.611 246.630 C 240.157 245.733,241.957 244.584,242.611 244.075 C 244.207 242.833,241.562 244.312,234.533 248.593 C 231.636 250.357,228.486 252.273,227.533 252.850 C 226.580 253.428,223.879 255.074,221.530 256.510 C 211.373 262.718,197.734 264.683,188.600 261.256 C 184.165 259.591,182.153 258.694,179.909 257.378 C 178.616 256.620,177.469 256.000,177.360 256.000 C 177.192 256.000,171.660 253.106,150.600 242.001 C 148.620 240.957,144.660 238.885,141.800 237.398 C 138.940 235.910,133.450 233.030,129.600 230.998 C 119.434 225.633,113.482 222.507,109.400 220.389 C 107.420 219.362,103.820 217.468,101.400 216.181 C 98.980 214.895,94.846 212.721,92.214 211.352 C 85.561 207.892,83.422 206.007,82.171 202.501 C 81.814 201.501,81.629 201.284,81.618 201.850 M192.600 203.623 C 194.737 204.065,196.204 204.050,194.800 203.600 C 194.250 203.424,193.170 203.283,192.400 203.286 L 191.000 203.292 192.600 203.623 M205.834 203.500 C 205.670 203.665,203.345 203.903,200.668 204.029 L 195.800 204.258 200.000 204.303 C 202.310 204.328,205.280 204.105,206.600 203.808 C 208.647 203.347,208.789 203.262,207.567 203.234 C 206.778 203.215,205.999 203.335,205.834 203.500 M239.790 205.856 C 234.067 209.185,232.650 210.022,229.000 212.228 C 221.552 216.729,218.110 218.143,210.000 220.029 C 208.350 220.413,207.378 220.744,207.840 220.764 C 210.249 220.868,220.143 217.810,223.600 215.893 C 225.479 214.851,231.459 211.311,233.200 210.209 C 233.970 209.722,236.400 208.271,238.600 206.985 C 240.800 205.699,242.771 204.501,242.980 204.323 C 243.812 203.616,242.834 204.085,239.790 205.856 M302.200 207.664 C 298.900 209.674,295.338 211.787,294.284 212.359 C 293.230 212.932,291.880 213.806,291.284 214.302 C 289.930 215.429,293.180 213.646,299.600 209.741 C 302.130 208.201,305.046 206.458,306.079 205.866 C 307.638 204.974,308.828 203.987,308.324 204.004 C 308.256 204.007,305.500 205.654,302.200 207.664 M284.384 218.420 C 281.423 220.191,276.030 223.449,272.400 225.661 C 268.770 227.872,263.820 230.864,261.400 232.310 C 258.980 233.756,255.200 236.047,253.000 237.400 C 250.800 238.753,247.875 240.535,246.500 241.359 C 245.125 242.184,244.000 242.950,244.000 243.063 C 244.000 243.367,248.993 240.467,254.000 237.255 C 255.210 236.479,256.920 235.456,257.800 234.982 C 258.680 234.508,260.521 233.419,261.890 232.560 C 265.168 230.506,267.465 229.106,279.536 221.798 C 285.111 218.423,289.776 215.558,289.903 215.431 C 290.513 214.820,289.350 215.450,284.384 218.420 M179.200 216.938 C 179.200 217.343,182.544 218.648,185.400 219.358 C 186.940 219.741,188.851 220.222,189.646 220.427 C 190.442 220.632,191.432 220.787,191.846 220.771 C 192.261 220.755,191.520 220.477,190.200 220.154 C 185.421 218.981,183.090 218.262,179.700 216.913 C 179.425 216.804,179.200 216.815,179.200 216.938 M195.755 221.338 C 196.553 221.526,199.081 221.510,201.491 221.301 L 205.800 220.927 200.064 220.963 C 196.019 220.989,194.749 221.100,195.755 221.338 M288.795 234.932 C 287.422 235.850,281.940 239.145,279.200 240.700 C 278.430 241.137,275.820 242.717,273.400 244.212 C 270.980 245.707,268.010 247.503,266.800 248.202 C 263.858 249.902,256.684 254.226,254.200 255.797 C 253.100 256.492,250.400 258.118,248.200 259.410 C 246.000 260.702,243.175 262.444,241.922 263.280 C 240.669 264.116,239.523 264.800,239.374 264.800 C 239.130 264.800,235.599 266.938,229.522 270.765 C 228.270 271.554,225.793 272.993,224.018 273.962 C 222.243 274.931,220.877 275.810,220.982 275.916 C 221.088 276.021,222.395 275.388,223.887 274.509 C 225.379 273.630,227.183 272.571,227.895 272.155 C 231.850 269.847,240.073 264.909,241.800 263.804 C 242.900 263.100,246.950 260.630,250.800 258.314 C 254.650 255.999,260.860 252.250,264.600 249.984 C 268.340 247.718,272.390 245.291,273.600 244.589 C 274.810 243.887,279.105 241.308,283.144 238.857 C 287.182 236.405,290.724 234.400,291.014 234.400 C 292.010 234.400,311.731 245.113,313.855 246.808 C 320.577 252.172,319.047 260.055,310.280 265.233 C 307.560 266.840,302.984 269.628,301.345 270.676 C 300.935 270.939,300.802 271.164,301.049 271.176 C 301.295 271.189,302.825 270.343,304.449 269.296 C 306.072 268.249,308.087 267.034,308.927 266.596 C 318.583 261.561,321.272 253.223,315.142 247.323 C 313.418 245.663,311.143 244.300,302.600 239.809 C 300.180 238.536,296.707 236.709,294.883 235.748 C 291.049 233.728,290.673 233.678,288.795 234.932 M106.305 240.709 C 104.310 241.857,95.586 247.109,93.200 248.597 C 85.166 253.611,83.309 255.300,82.008 258.778 C 81.527 260.065,81.214 261.541,81.312 262.059 C 81.458 262.827,81.501 262.773,81.546 261.764 C 81.721 257.778,85.199 253.921,92.600 249.506 C 95.020 248.063,99.564 245.333,102.699 243.441 C 109.319 239.444,109.634 239.389,113.696 241.531 C 115.293 242.373,118.760 244.195,121.400 245.581 C 126.428 248.219,131.093 250.687,135.800 253.202 C 137.340 254.025,140.400 255.645,142.600 256.803 C 144.800 257.961,148.040 259.676,149.800 260.614 C 151.560 261.553,154.980 263.354,157.400 264.618 C 159.820 265.882,163.330 267.728,165.200 268.719 C 167.070 269.710,170.220 271.334,172.200 272.326 C 174.180 273.319,176.430 274.525,177.200 275.005 C 180.653 277.161,189.127 279.547,194.200 279.792 C 195.960 279.877,196.860 279.865,196.200 279.765 C 195.540 279.665,193.200 279.311,191.000 278.979 C 184.539 278.002,177.816 275.187,164.800 268.009 C 164.030 267.584,161.870 266.444,160.000 265.475 C 158.130 264.506,154.260 262.459,151.400 260.925 C 148.540 259.392,143.950 256.961,141.200 255.523 C 138.450 254.084,134.670 252.096,132.800 251.104 C 130.930 250.113,127.240 248.177,124.600 246.803 C 121.960 245.429,117.803 243.246,115.362 241.952 C 110.269 239.252,109.113 239.094,106.305 240.709 M81.600 264.152 C 81.600 265.916,85.553 271.200,86.872 271.200 C 87.132 271.200,86.604 270.567,85.699 269.792 C 84.784 269.009,83.510 267.295,82.827 265.928 C 82.152 264.577,81.600 263.778,81.600 264.152 M88.491 272.092 C 89.092 272.591,91.162 273.793,93.091 274.763 C 95.021 275.733,96.870 276.738,97.200 276.997 C 97.530 277.256,98.430 277.716,99.200 278.018 C 99.970 278.320,101.770 279.222,103.200 280.021 C 106.012 281.592,112.807 285.163,122.000 289.900 C 125.190 291.543,127.980 293.025,128.200 293.192 C 128.420 293.359,131.570 295.024,135.200 296.891 C 138.830 298.757,143.024 300.962,144.519 301.790 C 146.015 302.617,147.327 303.206,147.436 303.097 C 147.544 302.989,146.951 302.545,146.117 302.111 C 134.664 296.150,123.209 290.129,105.459 280.740 C 98.452 277.033,92.632 274.000,92.526 274.000 C 92.421 274.000,91.224 273.366,89.867 272.592 C 88.331 271.715,87.812 271.526,88.491 272.092 M290.800 277.032 C 285.630 280.201,281.130 282.930,280.800 283.098 C 280.051 283.477,271.012 288.900,266.200 291.856 C 264.220 293.073,261.851 294.490,260.936 295.006 C 260.021 295.522,258.311 296.561,257.136 297.315 C 255.028 298.669,240.756 307.257,231.100 312.983 C 229.395 313.994,228.000 314.913,228.000 315.025 C 228.000 315.314,229.307 314.607,233.200 312.212 C 235.070 311.061,238.527 308.968,240.882 307.560 C 243.237 306.152,246.668 304.100,248.508 303.000 C 250.348 301.900,252.741 300.482,253.826 299.848 C 254.912 299.215,256.700 298.120,257.800 297.415 C 258.900 296.711,261.870 294.911,264.400 293.416 C 266.930 291.922,269.749 290.181,270.665 289.549 C 271.581 288.917,272.426 288.400,272.543 288.400 C 272.756 288.400,289.821 278.200,293.200 276.053 C 294.190 275.424,295.720 274.535,296.600 274.077 C 298.034 273.330,300.902 271.197,300.400 271.250 C 300.290 271.261,295.970 273.863,290.800 277.032 M214.600 277.637 C 211.911 278.659,208.644 279.239,203.600 279.588 L 199.400 279.879 203.117 279.940 C 205.161 279.973,208.141 279.730,209.740 279.400 C 212.972 278.732,218.651 276.855,217.400 276.868 C 216.960 276.872,215.700 277.218,214.600 277.637 M149.000 303.986 C 150.714 305.208,154.844 307.290,155.082 307.051 C 155.192 306.941,153.779 306.076,151.941 305.129 C 147.919 303.056,147.429 302.866,149.000 303.986 M155.800 307.527 C 156.409 308.177,162.462 311.271,162.686 311.047 C 162.794 310.939,161.379 310.076,159.541 309.129 C 155.577 307.086,155.260 306.950,155.800 307.527 M163.400 311.520 C 163.620 311.750,166.500 313.328,169.800 315.025 C 173.100 316.721,175.980 318.244,176.200 318.407 C 177.073 319.056,185.665 323.268,185.814 323.120 C 185.901 323.032,183.953 321.936,181.486 320.682 C 179.019 319.429,175.290 317.491,173.200 316.376 C 163.593 311.253,162.745 310.833,163.400 311.520 M222.400 318.256 C 216.517 321.822,214.254 322.877,211.000 323.575 C 207.852 324.251,207.623 324.331,208.742 324.368 C 210.201 324.417,214.344 323.243,216.371 322.206 C 220.162 320.267,228.353 315.157,227.580 315.213 C 227.481 315.220,225.150 316.590,222.400 318.256 M186.480 323.388 C 187.171 324.142,193.346 325.228,197.800 325.378 L 202.600 325.540 198.200 325.211 C 194.381 324.926,190.899 324.336,187.200 323.349 C 186.650 323.202,186.326 323.219,186.480 323.388 M204.400 324.800 L 202.600 325.080 204.400 325.112 C 205.390 325.129,206.560 324.989,207.000 324.800 L 207.800 324.456 207.000 324.488 C 206.560 324.506,205.390 324.646,204.400 324.800 " stroke="none" fill="#4c6146" fill-rule="evenodd"></path></g></svg>