<svg id="svg" version="1.1" xmlns="http://www.w3.org/2000/svg" xmlns:xlink="http://www.w3.org/1999/xlink" width="400" height="400" viewBox="0, 0, 400,400"><g id="svgg"><path id="path0" d="M165.949 90.661 C 165.508 91.191,165.378 94.449,165.286 107.144 C 165.188 120.937,165.091 123.057,164.537 123.669 C 163.950 124.318,162.388 124.381,144.012 124.486 C 127.869 124.579,123.998 124.703,123.461 125.149 C 122.496 125.951,122.461 144.938,123.423 146.311 C 124.033 147.182,124.215 147.200,132.551 147.200 C 142.278 147.200,143.637 147.475,146.544 150.035 C 150.321 153.359,150.000 148.379,150.000 203.648 L 150.000 252.243 148.821 254.103 C 146.734 257.393,145.595 257.731,135.912 257.924 C 129.864 258.045,127.509 258.228,127.201 258.599 C 126.753 259.139,125.811 263.829,125.152 268.800 C 124.933 270.450,124.405 273.600,123.978 275.800 C 122.499 283.427,121.750 282.936,134.710 282.833 C 152.727 282.689,163.534 283.162,164.440 284.135 C 165.160 284.908,165.200 285.782,165.200 300.813 C 165.200 315.673,165.246 316.718,165.931 317.338 C 167.096 318.392,184.777 318.330,185.738 317.269 C 186.331 316.614,186.400 314.874,186.400 300.683 C 186.400 281.881,185.358 284.000,194.600 284.000 C 203.839 284.000,202.800 281.906,202.800 300.525 C 202.800 314.085,202.885 316.343,203.423 317.111 C 204.308 318.376,222.608 318.517,223.738 317.269 C 224.330 316.614,224.400 314.879,224.400 300.758 C 224.400 281.831,223.954 283.382,229.496 283.021 C 269.395 280.424,287.414 264.795,287.395 232.800 C 287.384 213.533,279.711 202.428,262.700 197.059 C 259.095 195.921,259.061 195.149,262.500 192.577 C 275.724 182.685,279.559 163.559,271.630 147.052 C 266.619 136.620,254.533 129.258,237.400 126.200 C 231.519 125.151,229.097 124.817,227.310 124.808 C 224.395 124.794,224.400 124.822,224.400 107.020 C 224.400 92.133,224.372 91.572,223.600 90.800 C 222.280 89.480,204.274 89.570,203.514 90.900 C 203.130 91.572,202.949 95.696,202.800 107.189 L 202.600 122.577 201.600 123.083 C 200.110 123.836,188.420 123.795,187.376 123.033 C 186.637 122.492,186.591 121.720,186.400 106.733 C 186.290 98.080,186.054 90.775,185.876 90.500 C 185.323 89.645,166.668 89.796,165.949 90.661 M213.585 149.615 C 228.220 152.009,235.801 158.774,235.757 169.400 C 235.697 183.644,222.923 190.400,196.049 190.400 C 188.528 190.400,188.002 190.352,187.614 189.626 C 186.969 188.421,187.051 150.351,187.700 149.490 C 188.670 148.203,205.449 148.285,213.585 149.615 M211.800 212.225 C 233.522 213.226,245.415 221.290,245.390 235.000 C 245.368 246.930,236.715 253.675,217.400 256.819 C 209.807 258.055,188.483 258.463,187.591 257.390 C 186.587 256.183,186.623 214.384,187.629 212.751 C 188.236 211.765,197.464 211.565,211.800 212.225 " stroke="none" fill="#f49647" fill-rule="evenodd"></path><path id="path1" d="M164.000 0.400 C 164.000 0.620,163.537 0.800,162.972 0.800 C 161.320 0.800,161.803 2.450,163.590 2.911 C 166.927 3.772,170.092 2.668,169.180 0.962 C 168.639 -0.049,164.000 -0.552,164.000 0.400 M173.200 0.392 C 173.200 1.335,180.088 1.773,183.700 1.060 C 186.891 0.430,185.065 0.000,179.200 0.000 C 175.544 0.000,173.200 0.153,173.200 0.392 M214.800 0.392 C 214.800 1.291,223.471 1.828,226.100 1.092 C 228.689 0.368,226.969 0.000,221.000 0.000 C 217.214 0.000,214.800 0.153,214.800 0.392 M229.200 0.400 C 229.200 0.620,229.391 0.800,229.624 0.800 C 229.857 0.800,229.952 0.953,229.836 1.141 C 228.901 2.654,236.564 3.994,237.993 2.567 C 238.665 1.896,238.022 0.800,236.957 0.800 C 236.431 0.800,236.000 0.620,236.000 0.400 C 236.000 0.165,234.600 0.000,232.600 0.000 C 230.600 0.000,229.200 0.165,229.200 0.400 M153.500 2.832 C 152.359 3.497,152.683 3.892,154.784 4.396 C 157.161 4.966,159.398 4.416,159.720 3.183 C 159.953 2.291,154.916 2.007,153.500 2.832 M239.729 3.040 C 239.252 4.284,243.176 5.286,245.333 4.472 C 246.395 4.072,246.612 4.142,247.614 5.215 C 248.727 6.407,249.377 6.584,252.052 6.426 C 253.145 6.362,253.755 6.591,254.518 7.354 C 255.861 8.697,257.571 9.128,258.191 8.280 C 258.616 7.698,258.716 7.702,259.315 8.321 C 261.178 10.247,261.492 10.400,263.571 10.400 C 265.299 10.400,265.710 10.535,265.873 11.157 C 266.087 11.975,267.955 12.546,269.047 12.127 C 269.464 11.967,269.946 12.198,270.373 12.765 C 270.850 13.397,271.554 13.692,272.808 13.786 C 273.843 13.863,274.644 14.141,274.746 14.459 C 275.008 15.274,275.660 15.587,277.113 15.594 C 277.895 15.598,278.516 15.838,278.651 16.189 C 278.776 16.513,279.535 16.899,280.339 17.047 C 281.142 17.195,282.229 17.650,282.754 18.058 C 283.279 18.466,283.902 18.800,284.140 18.800 C 284.377 18.800,286.018 19.525,287.786 20.411 C 291.147 22.095,291.696 22.401,294.022 23.890 C 294.803 24.391,295.729 24.800,296.079 24.800 C 296.428 24.800,296.818 25.070,296.945 25.400 C 297.071 25.730,297.549 26.000,298.007 26.000 C 298.464 26.000,299.255 26.450,299.765 27.000 C 300.275 27.550,301.082 28.000,301.558 28.000 C 302.035 28.000,302.524 28.257,302.645 28.572 C 302.765 28.887,303.345 29.344,303.932 29.588 C 305.015 30.038,306.445 30.879,309.634 32.942 C 313.364 35.355,314.400 36.121,314.400 36.464 C 314.400 36.660,314.850 36.991,315.400 37.200 C 315.950 37.409,316.400 37.765,316.400 37.990 C 316.400 38.216,316.661 38.400,316.979 38.400 C 317.298 38.400,318.020 38.805,318.583 39.300 C 319.640 40.228,320.260 40.720,323.000 42.805 C 326.262 45.287,327.449 46.282,331.348 49.800 C 333.543 51.780,336.072 54.051,336.969 54.847 C 339.928 57.472,343.777 61.363,345.804 63.778 C 346.902 65.086,348.250 66.616,348.800 67.178 C 351.694 70.136,354.230 73.103,357.195 77.000 C 359.280 79.740,359.772 80.360,360.700 81.417 C 361.195 81.980,361.600 82.632,361.600 82.865 C 361.600 83.098,362.293 84.124,363.140 85.144 C 364.975 87.356,368.754 93.031,369.238 94.300 C 369.426 94.795,369.765 95.200,369.990 95.200 C 370.216 95.200,370.400 95.470,370.400 95.800 C 370.400 96.130,370.760 96.760,371.200 97.200 C 371.640 97.640,372.000 98.350,372.000 98.777 C 372.000 99.205,372.347 99.798,372.772 100.095 C 373.196 100.393,373.664 101.115,373.811 101.701 C 373.958 102.288,374.319 102.967,374.614 103.211 C 374.908 103.455,375.261 104.168,375.399 104.794 C 375.536 105.421,375.885 106.024,376.173 106.134 C 376.461 106.245,376.825 106.844,376.981 107.465 C 377.137 108.087,377.448 108.817,377.672 109.087 C 378.303 109.847,381.199 115.622,381.209 116.140 C 381.214 116.393,381.570 117.050,382.000 117.600 C 382.430 118.150,382.786 118.981,382.791 119.446 C 382.796 119.911,383.160 120.750,383.600 121.309 C 384.040 121.869,384.400 122.769,384.400 123.309 C 384.400 123.850,384.737 124.721,385.149 125.246 C 385.561 125.771,386.027 126.965,386.184 127.900 C 386.341 128.835,386.742 129.751,387.073 129.937 C 387.450 130.148,387.722 131.006,387.799 132.229 C 387.891 133.683,388.137 134.326,388.761 134.741 C 389.409 135.171,389.600 135.713,389.600 137.123 C 389.600 138.417,389.840 139.204,390.426 139.828 C 390.998 140.437,391.281 141.330,391.345 142.732 C 391.404 144.025,391.702 145.049,392.166 145.563 C 392.574 146.013,392.974 147.211,393.075 148.284 C 393.598 153.863,396.000 155.280,396.000 150.009 C 396.000 146.830,395.923 146.473,395.200 146.284 C 394.503 146.102,394.400 145.738,394.400 143.452 C 394.400 141.238,394.275 140.761,393.600 140.400 C 392.949 140.052,392.800 139.562,392.800 137.773 C 392.800 136.188,392.633 135.511,392.200 135.345 C 391.780 135.183,391.600 134.528,391.600 133.161 C 391.600 131.640,391.423 131.096,390.800 130.707 C 390.291 130.389,389.998 129.770,389.995 129.004 C 389.986 127.220,389.575 126.000,388.982 126.000 C 388.647 126.000,388.359 125.215,388.186 123.826 C 388.032 122.596,387.682 121.564,387.379 121.447 C 387.085 121.334,386.724 120.601,386.577 119.817 C 386.430 119.033,386.122 118.275,385.893 118.134 C 385.633 117.973,385.598 118.074,385.800 118.400 C 386.014 118.746,385.967 118.827,385.662 118.638 C 385.408 118.481,385.200 118.016,385.200 117.603 C 385.200 117.191,384.840 116.740,384.400 116.600 C 383.799 116.409,383.600 115.995,383.600 114.936 C 383.600 113.862,383.409 113.475,382.800 113.316 C 382.154 113.147,382.000 112.770,382.000 111.357 C 382.000 110.040,381.802 109.483,381.200 109.107 C 380.658 108.769,380.400 108.174,380.400 107.266 C 380.400 106.262,380.199 105.873,379.600 105.716 C 378.994 105.557,378.800 105.170,378.800 104.116 C 378.800 103.062,378.606 102.675,378.000 102.516 C 377.426 102.366,377.200 101.970,377.200 101.116 C 377.200 100.262,376.974 99.866,376.400 99.716 C 375.847 99.571,375.600 99.170,375.600 98.415 C 375.600 97.815,375.261 97.017,374.846 96.642 C 374.431 96.266,373.989 95.443,373.862 94.812 C 373.724 94.121,373.297 93.558,372.788 93.396 C 372.287 93.237,372.028 92.903,372.154 92.577 C 372.270 92.274,372.165 91.902,371.921 91.751 C 371.652 91.585,371.589 91.659,371.762 91.938 C 371.919 92.192,371.879 92.400,371.674 92.400 C 371.468 92.400,371.192 91.860,371.060 91.200 C 370.919 90.496,370.568 90.000,370.210 90.000 C 369.867 90.000,369.600 89.650,369.600 89.200 C 369.600 88.667,369.333 88.400,368.800 88.400 C 368.148 88.400,368.000 88.133,368.000 86.963 C 368.000 85.862,367.813 85.476,367.200 85.316 C 366.759 85.201,366.400 84.770,366.400 84.357 C 366.400 83.944,366.040 83.382,365.600 83.107 C 365.160 82.832,364.800 82.222,364.800 81.750 C 364.800 81.230,364.486 80.811,364.000 80.684 C 363.521 80.559,363.200 80.138,363.200 79.637 C 363.200 79.177,362.840 78.440,362.400 78.000 C 361.960 77.560,361.600 76.930,361.600 76.600 C 361.600 76.267,361.244 76.000,360.800 76.000 C 360.335 76.000,360.000 75.733,360.000 75.363 C 360.000 75.012,359.640 74.631,359.200 74.516 C 358.750 74.398,358.400 73.970,358.400 73.538 C 358.400 73.115,357.687 72.011,356.816 71.084 C 354.503 68.626,354.166 68.211,353.882 67.469 C 353.741 67.101,353.349 66.800,353.013 66.800 C 352.676 66.800,352.400 66.536,352.400 66.214 C 352.400 65.892,352.040 65.435,351.600 65.200 C 351.160 64.965,350.800 64.520,350.800 64.213 C 350.800 63.905,350.440 63.540,350.000 63.400 C 349.560 63.260,349.200 62.888,349.200 62.573 C 349.200 62.258,348.840 62.000,348.400 62.000 C 347.867 62.000,347.600 61.733,347.600 61.200 C 347.600 60.667,347.333 60.400,346.800 60.400 C 346.267 60.400,346.000 60.133,346.000 59.600 C 346.000 59.148,345.733 58.800,345.387 58.800 C 345.051 58.800,344.654 58.485,344.507 58.101 C 344.158 57.193,342.794 55.837,341.874 55.484 C 341.475 55.331,341.269 55.012,341.415 54.776 C 341.562 54.538,341.311 54.250,340.853 54.130 C 340.399 54.011,339.918 53.573,339.786 53.157 C 339.654 52.741,339.300 52.400,339.000 52.400 C 338.700 52.400,338.340 52.040,338.200 51.600 C 338.060 51.160,337.688 50.800,337.373 50.800 C 337.058 50.800,336.800 50.542,336.800 50.227 C 336.800 49.912,336.440 49.540,336.000 49.400 C 335.560 49.260,335.200 48.888,335.200 48.573 C 335.200 48.258,335.051 48.000,334.868 48.000 C 334.685 48.000,333.740 47.283,332.768 46.406 C 331.796 45.529,330.837 44.809,330.638 44.806 C 330.439 44.803,329.591 44.080,328.754 43.200 C 327.917 42.320,326.886 41.600,326.463 41.600 C 326.017 41.600,325.601 41.246,325.474 40.760 C 325.352 40.296,325.062 40.038,324.826 40.184 C 324.588 40.331,324.226 39.993,324.009 39.424 C 323.795 38.861,323.345 38.400,323.010 38.400 C 322.674 38.400,322.400 38.144,322.400 37.832 C 322.400 37.519,321.860 37.145,321.199 37.000 C 320.539 36.855,319.264 36.031,318.367 35.168 C 317.469 34.306,316.553 33.600,316.330 33.600 C 316.108 33.600,315.469 33.240,314.909 32.800 C 314.350 32.360,313.376 32.000,312.746 32.000 C 311.867 32.000,311.600 31.814,311.600 31.200 C 311.600 30.667,311.333 30.400,310.800 30.400 C 310.360 30.400,310.000 30.169,310.000 29.888 C 310.000 29.606,309.459 29.171,308.797 28.921 C 308.136 28.672,307.696 28.632,307.821 28.834 C 307.945 29.035,307.857 29.200,307.624 29.200 C 307.391 29.200,307.200 28.874,307.200 28.475 C 307.200 27.319,305.700 26.000,304.384 26.000 C 303.686 26.000,303.241 25.807,303.300 25.529 C 303.355 25.270,302.860 24.866,302.200 24.632 C 301.540 24.398,300.765 23.890,300.477 23.503 C 300.190 23.117,299.446 22.800,298.824 22.800 C 298.030 22.800,297.631 22.562,297.484 22.000 C 297.325 21.394,296.938 21.200,295.884 21.200 C 294.830 21.200,294.443 21.006,294.284 20.400 C 294.125 19.794,293.738 19.600,292.684 19.600 C 291.630 19.600,291.243 19.406,291.084 18.800 C 290.929 18.208,290.538 18.000,289.582 18.000 C 288.857 18.000,288.082 17.718,287.820 17.359 C 287.560 17.004,286.532 16.626,285.510 16.511 C 284.150 16.358,283.617 16.107,283.472 15.552 C 283.357 15.114,282.920 14.800,282.425 14.800 C 281.957 14.800,281.471 14.530,281.345 14.200 C 281.218 13.870,280.772 13.600,280.353 13.600 C 279.935 13.600,279.284 13.240,278.907 12.800 C 278.481 12.302,277.727 12.000,276.911 12.000 C 276.133 12.000,275.275 11.675,274.800 11.200 C 274.194 10.594,273.467 10.400,271.800 10.400 C 269.867 10.400,269.600 10.303,269.600 9.600 C 269.600 8.891,269.333 8.800,267.247 8.800 C 265.230 8.800,264.863 8.686,264.684 8.000 C 264.509 7.332,264.138 7.200,262.437 7.200 C 260.933 7.200,260.191 6.991,259.600 6.400 C 258.981 5.781,258.267 5.600,256.447 5.600 C 254.430 5.600,254.063 5.486,253.884 4.800 C 253.698 4.089,253.338 4.000,250.637 4.000 C 248.133 4.000,247.460 3.860,246.800 3.200 C 245.730 2.130,240.127 2.004,239.729 3.040 M146.263 4.883 C 145.972 5.994,145.910 5.948,148.121 6.251 C 150.370 6.559,152.400 5.848,152.400 4.751 C 152.400 3.506,146.590 3.630,146.263 4.883 M140.507 6.400 C 139.982 7.014,139.327 7.200,137.699 7.200 C 135.324 7.200,134.780 7.760,135.539 9.426 C 136.307 11.111,139.967 10.022,139.993 8.100 C 140.001 7.506,141.445 7.426,141.800 8.000 C 142.497 9.128,145.600 7.803,145.600 6.377 C 145.600 5.220,141.502 5.238,140.507 6.400 M130.449 9.680 C 130.164 10.451,129.871 10.546,128.082 10.451 C 126.429 10.363,125.906 10.500,125.332 11.171 C 124.861 11.721,124.144 12.000,123.200 12.000 C 122.364 12.000,121.505 12.288,121.117 12.700 C 120.176 13.697,119.072 14.592,118.710 14.650 C 118.539 14.678,118.052 14.723,117.627 14.750 C 117.202 14.778,116.747 15.137,116.616 15.549 C 116.444 16.093,115.871 16.356,114.529 16.507 C 113.418 16.632,112.535 16.972,112.320 17.358 C 112.122 17.711,111.534 18.000,111.013 18.000 C 109.651 18.000,108.800 18.401,108.800 19.043 C 108.800 19.416,108.325 19.600,107.363 19.600 C 106.262 19.600,105.876 19.787,105.716 20.400 C 105.557 21.006,105.170 21.200,104.116 21.200 C 103.062 21.200,102.675 21.394,102.516 22.000 C 102.368 22.564,101.970 22.800,101.167 22.800 C 100.438 22.800,99.874 23.087,99.600 23.600 C 99.365 24.040,98.818 24.400,98.386 24.400 C 97.954 24.400,97.240 24.760,96.800 25.200 C 96.360 25.640,95.653 26.000,95.229 26.000 C 94.167 26.000,93.200 27.062,93.200 28.229 C 93.200 29.074,93.016 29.200,91.787 29.200 C 90.901 29.200,90.289 29.423,90.145 29.800 C 90.018 30.130,89.647 30.400,89.320 30.400 C 88.993 30.400,88.636 30.739,88.528 31.154 C 88.393 31.668,87.831 31.989,86.765 32.159 C 85.904 32.297,85.200 32.573,85.200 32.774 C 85.200 32.974,84.570 33.346,83.800 33.600 C 83.030 33.854,82.400 34.318,82.400 34.631 C 82.400 34.944,82.136 35.200,81.814 35.200 C 81.492 35.200,81.035 35.560,80.800 36.000 C 80.565 36.440,80.018 36.800,79.586 36.800 C 79.154 36.800,78.440 37.160,78.000 37.600 C 77.560 38.040,77.016 38.400,76.790 38.400 C 76.565 38.400,76.209 38.851,75.999 39.403 C 75.789 39.955,75.479 40.383,75.309 40.356 C 74.532 40.229,74.252 40.445,74.769 40.772 C 75.188 41.038,74.888 41.253,73.628 41.592 C 72.688 41.845,72.021 42.155,72.146 42.279 C 72.271 42.404,71.927 42.857,71.383 43.285 C 70.838 43.714,70.472 44.192,70.568 44.349 C 70.665 44.506,70.352 44.663,69.872 44.697 C 69.393 44.732,68.753 45.130,68.451 45.581 C 68.149 46.031,67.654 46.400,67.351 46.400 C 67.048 46.400,66.800 46.649,66.800 46.953 C 66.800 47.258,66.440 47.601,66.001 47.716 C 65.562 47.831,65.033 48.347,64.826 48.862 C 64.620 49.378,64.439 49.643,64.425 49.451 C 64.411 49.259,64.132 49.324,63.804 49.596 C 63.477 49.868,63.307 50.250,63.428 50.445 C 63.549 50.640,63.277 50.800,62.824 50.800 C 62.276 50.800,62.000 51.059,62.000 51.573 C 62.000 51.998,61.640 52.460,61.200 52.600 C 60.760 52.740,60.400 53.112,60.400 53.427 C 60.400 53.742,60.040 54.000,59.600 54.000 C 59.067 54.000,58.800 54.267,58.800 54.800 C 58.800 55.240,58.538 55.600,58.218 55.600 C 57.464 55.600,55.600 57.464,55.600 58.218 C 55.600 58.538,55.240 58.800,54.800 58.800 C 54.267 58.800,54.000 59.067,54.000 59.600 C 54.000 60.133,53.733 60.400,53.200 60.400 C 52.667 60.400,52.400 60.667,52.400 61.200 C 52.400 61.733,52.133 62.000,51.600 62.000 C 51.067 62.000,50.800 62.267,50.800 62.800 C 50.800 63.240,50.636 63.555,50.436 63.500 C 50.038 63.390,47.600 65.945,47.600 66.472 C 47.600 66.652,47.330 66.800,47.000 66.800 C 46.670 66.800,46.400 67.048,46.400 67.351 C 46.400 67.654,46.031 68.149,45.581 68.451 C 45.130 68.753,44.732 69.393,44.697 69.872 C 44.663 70.352,44.506 70.665,44.349 70.568 C 44.192 70.472,43.690 70.868,43.232 71.450 C 42.774 72.032,42.397 72.349,42.394 72.154 C 42.380 71.372,41.612 73.063,41.606 73.887 C 41.602 74.485,41.416 74.704,41.036 74.559 C 40.697 74.428,40.367 74.673,40.209 75.171 C 40.064 75.627,39.683 76.000,39.360 76.000 C 39.038 76.000,38.659 76.315,38.518 76.700 C 38.376 77.085,38.036 77.536,37.761 77.702 C 37.487 77.869,37.144 78.545,36.999 79.206 C 36.854 79.866,36.390 80.591,35.967 80.817 C 35.545 81.043,35.200 81.542,35.200 81.926 C 35.200 82.309,34.840 82.883,34.400 83.200 C 33.960 83.517,33.600 84.007,33.600 84.288 C 33.600 84.570,33.240 85.160,32.800 85.600 C 32.360 86.040,32.000 86.829,32.000 87.353 C 32.000 87.970,31.718 88.381,31.200 88.516 C 30.760 88.631,30.400 89.012,30.400 89.363 C 30.400 89.713,30.216 90.000,29.990 90.000 C 29.765 90.000,29.405 90.461,29.191 91.024 C 28.954 91.647,28.620 91.936,28.339 91.762 C 28.052 91.585,27.985 91.652,28.162 91.938 C 28.319 92.192,28.246 92.400,28.000 92.400 C 27.754 92.400,27.656 92.567,27.782 92.771 C 27.908 92.975,27.649 93.257,27.206 93.398 C 26.763 93.539,26.387 93.777,26.370 93.927 C 26.223 95.284,25.884 96.116,25.203 96.797 C 24.761 97.239,24.400 98.050,24.400 98.600 C 24.400 99.188,24.170 99.600,23.843 99.600 C 23.236 99.600,22.800 100.439,22.800 101.606 C 22.800 102.013,22.440 102.460,22.000 102.600 C 21.405 102.789,21.200 103.205,21.200 104.227 C 21.200 105.134,21.011 105.600,20.643 105.600 C 20.031 105.600,19.600 106.441,19.600 107.633 C 19.600 108.055,19.240 108.760,18.800 109.200 C 18.275 109.725,18.000 110.533,18.000 111.553 C 18.000 112.770,17.827 113.152,17.200 113.316 C 16.591 113.475,16.400 113.862,16.400 114.936 C 16.400 115.998,16.201 116.409,15.594 116.602 C 15.151 116.743,14.888 117.018,15.009 117.214 C 15.130 117.410,14.908 117.896,14.515 118.294 C 14.122 118.692,13.737 119.459,13.659 119.999 C 13.582 120.539,13.177 121.221,12.759 121.513 C 12.203 121.903,12.000 122.531,12.000 123.860 C 12.000 125.338,11.852 125.714,11.200 125.884 C 10.527 126.060,10.400 126.430,10.400 128.220 C 10.400 129.995,10.268 130.388,9.600 130.600 C 8.564 130.929,8.394 134.400,9.414 134.400 C 11.013 134.400,12.000 133.167,12.000 131.168 C 12.000 129.615,12.165 129.140,12.828 128.785 C 13.500 128.425,13.634 128.025,13.535 126.671 C 13.428 125.202,13.521 124.985,14.306 124.872 C 15.090 124.760,15.200 124.507,15.200 122.819 C 15.200 121.230,15.340 120.857,16.000 120.684 C 16.583 120.532,16.800 120.138,16.800 119.237 C 16.800 118.488,17.155 117.645,17.700 117.100 C 18.352 116.448,18.600 115.730,18.600 114.496 C 18.600 113.308,18.750 112.849,19.094 112.981 C 19.625 113.185,20.400 112.037,20.400 111.046 C 20.400 110.713,20.940 109.640,21.600 108.662 C 22.260 107.684,22.800 106.713,22.800 106.504 C 22.800 106.295,23.160 105.798,23.600 105.400 C 24.040 105.002,24.400 104.458,24.400 104.192 C 24.400 103.926,24.760 103.250,25.200 102.691 C 25.640 102.131,26.000 101.309,26.000 100.864 C 26.000 100.405,26.347 99.944,26.800 99.800 C 27.368 99.620,27.600 99.195,27.600 98.336 C 27.600 97.479,27.824 97.066,28.366 96.925 C 28.787 96.815,29.249 96.261,29.391 95.694 C 29.533 95.127,29.998 94.220,30.425 93.678 C 30.851 93.136,31.200 92.466,31.200 92.189 C 31.200 91.912,31.431 91.597,31.714 91.489 C 31.996 91.380,32.671 90.423,33.214 89.361 C 33.756 88.299,34.875 86.647,35.700 85.691 C 36.525 84.734,37.200 83.708,37.200 83.410 C 37.200 83.112,38.116 81.908,39.235 80.734 C 40.354 79.560,41.529 78.105,41.845 77.500 C 42.162 76.895,42.596 76.400,42.810 76.400 C 43.025 76.400,43.200 76.023,43.200 75.563 C 43.200 75.062,43.521 74.641,44.000 74.516 C 44.440 74.401,44.801 74.103,44.803 73.853 C 44.805 73.604,45.660 72.485,46.703 71.367 C 47.746 70.248,49.500 68.281,50.600 66.996 C 51.700 65.711,52.884 64.362,53.231 63.999 C 53.577 63.636,53.977 63.038,54.118 62.669 C 54.259 62.301,54.651 62.000,54.987 62.000 C 55.324 62.000,55.600 61.724,55.600 61.387 C 55.600 61.051,55.878 60.668,56.218 60.538 C 57.020 60.230,60.230 57.020,60.538 56.218 C 60.668 55.878,61.051 55.600,61.387 55.600 C 61.724 55.600,62.000 55.313,62.000 54.963 C 62.000 54.612,62.348 54.234,62.772 54.123 C 63.197 54.012,63.641 53.669,63.760 53.361 C 63.878 53.052,64.147 52.800,64.358 52.800 C 64.568 52.800,65.429 52.166,66.270 51.391 C 67.112 50.616,69.060 48.821,70.600 47.402 C 72.140 45.983,73.625 44.817,73.900 44.811 C 74.175 44.805,74.400 44.533,74.400 44.208 C 74.400 43.882,74.850 43.502,75.400 43.364 C 75.950 43.226,76.400 42.949,76.400 42.748 C 76.400 42.547,76.895 42.164,77.500 41.898 C 78.105 41.631,78.835 41.095,79.123 40.706 C 79.410 40.318,79.884 40.000,80.176 40.000 C 80.468 40.000,80.801 39.640,80.916 39.200 C 81.031 38.760,81.412 38.400,81.763 38.400 C 82.113 38.400,82.400 38.242,82.400 38.049 C 82.400 37.855,82.963 37.464,83.652 37.179 C 84.340 36.893,85.326 36.238,85.841 35.722 C 86.357 35.206,87.795 34.227,89.036 33.546 C 90.277 32.865,91.605 31.995,91.987 31.613 C 92.369 31.231,93.592 30.487,94.706 29.959 C 95.820 29.432,96.820 28.685,96.928 28.300 C 97.063 27.821,97.527 27.600,98.400 27.600 C 99.338 27.600,99.730 27.389,99.884 26.800 C 100.030 26.242,100.430 26.000,101.204 26.000 C 101.815 26.000,102.412 25.747,102.530 25.438 C 102.649 25.128,103.286 24.757,103.945 24.612 C 104.605 24.467,105.349 24.102,105.599 23.801 C 106.140 23.149,110.560 20.800,111.246 20.800 C 111.509 20.800,112.283 20.374,112.966 19.853 C 113.649 19.332,114.803 18.775,115.531 18.615 C 116.259 18.455,116.948 18.080,117.062 17.781 C 117.177 17.483,118.065 17.119,119.035 16.974 C 120.046 16.822,120.800 16.494,120.800 16.206 C 120.800 15.903,121.612 15.595,122.843 15.432 C 124.399 15.226,124.934 14.975,125.089 14.381 C 125.253 13.753,125.645 13.600,127.084 13.600 C 128.538 13.600,128.914 13.450,129.084 12.800 C 129.260 12.127,129.630 12.000,131.420 12.000 C 133.195 12.000,133.588 11.868,133.800 11.200 C 133.940 10.760,134.222 10.400,134.427 10.400 C 134.632 10.400,134.800 10.040,134.800 9.600 C 134.800 8.345,130.916 8.417,130.449 9.680 M186.200 14.053 C 148.261 16.330,111.353 31.444,79.463 57.762 C 73.080 63.030,73.040 62.556,80.504 69.900 C 85.849 75.159,85.769 75.140,89.426 72.075 C 96.831 65.869,105.396 59.588,111.200 56.109 C 126.163 47.138,138.749 41.619,154.400 37.167 C 160.620 35.397,167.913 33.733,171.800 33.196 C 173.120 33.014,176.180 32.575,178.600 32.222 C 205.797 28.249,241.036 33.234,266.800 44.699 C 283.707 52.223,295.583 59.769,311.704 73.229 C 313.810 74.987,314.237 74.777,320.101 69.088 C 326.416 62.963,326.390 63.092,322.074 59.289 C 308.625 47.439,289.723 35.477,274.200 28.995 C 267.439 26.172,265.796 25.542,260.000 23.555 C 247.645 19.320,239.057 17.307,223.600 15.023 C 214.740 13.713,198.761 13.299,186.200 14.053 M58.712 78.300 C 34.076 107.601,20.713 137.251,15.038 175.200 C 13.547 185.172,13.186 209.685,14.380 219.800 C 17.217 243.821,25.022 269.485,34.633 286.400 C 35.321 287.610,36.563 289.860,37.393 291.400 C 42.234 300.380,49.785 311.115,58.705 321.700 C 62.839 326.606,62.769 326.616,69.032 320.159 C 74.373 314.653,74.763 313.922,73.293 312.163 C 54.159 289.260,43.883 270.087,36.439 243.400 C 30.962 223.767,29.245 197.156,32.204 177.775 C 32.538 175.589,32.987 172.588,33.203 171.106 C 34.503 162.177,39.440 145.172,43.511 135.600 C 43.932 134.610,44.614 132.990,45.028 132.000 C 50.422 119.076,60.308 103.442,71.689 89.838 C 74.974 85.912,74.993 85.979,68.894 79.894 C 62.494 73.508,62.712 73.542,58.712 78.300 M330.712 79.982 C 324.720 86.056,324.741 85.987,327.843 89.600 C 340.331 104.147,349.216 118.801,357.189 138.000 C 369.399 167.401,372.355 206.099,364.799 237.600 C 363.040 244.931,358.792 258.585,357.021 262.600 C 356.730 263.260,355.639 265.780,354.596 268.200 C 348.677 281.943,340.315 295.301,329.129 308.886 C 324.551 314.445,324.477 313.929,330.734 320.120 C 337.257 326.573,336.971 326.564,342.122 320.491 C 363.381 295.427,378.803 262.557,383.547 232.200 C 385.311 220.908,385.656 217.651,386.015 208.859 C 387.052 183.467,383.694 160.179,375.855 138.400 C 373.440 131.689,373.199 131.057,371.741 127.600 C 364.152 109.605,350.786 88.499,339.256 76.300 C 336.975 73.887,336.540 74.075,330.712 79.982 M7.467 135.467 C 6.795 136.139,7.189 139.600,7.938 139.600 C 8.790 139.600,9.788 138.586,10.169 137.334 C 10.541 136.111,8.342 134.591,7.467 135.467 M6.229 140.629 C 5.268 141.590,5.346 145.600,6.326 145.600 C 7.477 145.600,8.322 143.323,7.848 141.500 C 7.418 139.841,7.157 139.700,6.229 140.629 M4.700 146.300 C 4.117 146.432,4.000 146.916,4.000 149.192 C 4.000 151.762,4.050 151.912,4.831 151.708 C 6.917 151.162,6.788 145.826,4.700 146.300 M3.100 153.774 C 2.030 154.560,2.079 159.200,3.157 159.200 C 4.090 159.200,4.408 158.432,4.372 156.267 C 4.331 153.822,3.977 153.129,3.100 153.774 M395.467 154.267 C 394.524 155.209,395.686 161.318,396.768 161.112 C 397.979 160.880,397.896 154.000,396.682 154.000 C 396.160 154.000,395.613 154.120,395.467 154.267 M0.800 162.972 C 0.800 163.537,0.620 164.000,0.400 164.000 C -0.680 164.000,-0.016 167.818,1.188 168.530 C 2.666 169.402,2.910 168.808,2.721 164.788 C 2.591 162.007,0.800 160.315,0.800 162.972 M397.050 163.250 C 396.232 167.342,397.087 171.161,398.811 171.112 L 400.000 171.078 400.000 167.539 C 400.000 165.446,399.837 164.000,399.600 164.000 C 399.380 164.000,399.200 163.550,399.200 163.000 C 399.200 161.386,397.381 161.597,397.050 163.250 M398.766 174.500 C 398.301 176.197,398.477 184.311,399.038 187.100 C 399.658 190.180,400.000 187.872,400.000 180.600 C 400.000 172.721,399.682 171.150,398.766 174.500 M0.000 178.400 C 0.000 183.216,0.365 184.874,0.948 182.700 C 1.263 181.523,1.270 174.649,0.957 173.833 C 0.315 172.158,0.000 173.659,0.000 178.400 M399.050 212.700 C 398.479 216.062,398.307 223.823,398.766 225.500 C 399.687 228.868,400.000 227.271,400.000 219.200 C 400.000 211.705,399.639 209.233,399.050 212.700 M0.000 221.600 C 0.000 226.416,0.365 228.074,0.948 225.900 C 1.261 224.733,1.261 218.467,0.948 217.300 C 0.365 215.126,0.000 216.784,0.000 221.600 M397.175 230.491 C 396.649 232.446,396.827 237.387,397.446 238.006 C 398.107 238.667,399.200 238.013,399.200 236.957 C 399.200 236.431,399.380 236.000,399.600 236.000 C 400.552 236.000,400.070 229.312,399.100 229.052 C 397.693 228.675,397.657 228.701,397.175 230.491 M0.500 231.789 C -0.093 232.474,-0.177 236.000,0.400 236.000 C 0.620 236.000,0.800 236.431,0.800 236.957 C 0.800 239.074,2.388 238.716,2.754 236.516 C 3.390 232.702,2.082 229.960,0.500 231.789 M395.630 240.494 C 394.799 243.461,395.176 245.774,396.516 245.928 L 397.632 246.056 397.516 242.533 C 397.379 238.359,396.495 237.404,395.630 240.494 M2.400 243.400 C 2.400 245.921,2.445 246.049,3.295 245.928 C 5.002 245.684,4.992 241.119,3.284 240.872 C 2.448 240.751,2.400 240.889,2.400 243.400 M394.960 246.706 C 394.123 247.265,393.444 249.009,393.163 251.323 C 393.001 252.662,392.576 253.985,392.160 254.444 C 391.702 254.950,391.404 255.983,391.345 257.268 C 391.281 258.670,390.998 259.563,390.426 260.172 C 389.840 260.796,389.600 261.583,389.600 262.877 C 389.600 264.254,389.403 264.837,388.798 265.251 C 388.257 265.622,387.913 266.450,387.738 267.800 C 387.596 268.900,387.247 269.938,386.963 270.107 C 386.679 270.275,386.328 271.210,386.182 272.183 C 386.036 273.156,385.575 274.260,385.158 274.638 C 384.741 275.015,384.399 275.791,384.397 276.362 C 384.396 276.933,384.037 277.940,383.600 278.600 C 383.163 279.260,382.800 280.160,382.794 280.600 C 382.787 281.040,382.430 281.850,382.000 282.400 C 381.570 282.950,381.214 283.620,381.209 283.890 C 381.196 284.586,378.057 290.635,376.372 293.208 C 376.009 293.762,375.572 294.662,375.401 295.208 C 375.230 295.753,374.755 296.629,374.345 297.154 C 373.935 297.679,373.600 298.400,373.600 298.758 C 373.600 299.115,373.240 299.632,372.800 299.907 C 372.360 300.182,372.000 300.667,372.000 300.986 C 372.000 301.497,370.643 303.837,369.655 305.031 C 369.458 305.268,369.174 305.852,369.023 306.328 C 368.871 306.805,368.502 307.441,368.201 307.742 C 367.901 308.042,366.963 309.358,366.117 310.667 C 365.272 311.976,363.909 313.864,363.090 314.864 C 362.270 315.864,361.600 316.863,361.600 317.083 C 361.600 317.303,361.195 317.952,360.700 318.526 C 360.205 319.099,359.486 319.981,359.102 320.484 C 355.364 325.388,352.560 328.791,349.652 331.955 C 347.753 334.020,345.390 336.609,344.400 337.707 C 341.816 340.574,340.094 342.276,337.023 345.000 C 335.535 346.320,333.751 347.965,333.059 348.655 C 330.737 350.971,326.911 354.219,323.000 357.195 C 320.260 359.280,319.640 359.772,318.583 360.700 C 318.020 361.195,317.388 361.600,317.179 361.600 C 316.971 361.600,316.485 361.875,316.100 362.212 C 313.789 364.231,311.504 366.000,311.206 366.000 C 311.017 366.000,310.042 366.625,309.040 367.390 C 308.039 368.154,306.765 368.894,306.210 369.033 C 305.654 369.173,305.200 369.457,305.200 369.664 C 305.200 369.872,304.674 370.225,304.032 370.449 C 303.390 370.673,302.765 371.113,302.645 371.428 C 302.524 371.743,301.976 372.000,301.427 372.000 C 300.840 372.000,300.253 372.328,300.003 372.795 C 299.768 373.233,299.087 373.712,298.488 373.861 C 297.890 374.010,296.950 374.424,296.400 374.782 C 294.358 376.110,293.555 376.553,287.800 379.533 C 286.040 380.444,284.399 381.192,284.154 381.195 C 283.909 381.198,283.279 381.534,282.754 381.942 C 282.229 382.350,281.116 382.810,280.279 382.964 C 279.442 383.118,278.658 383.504,278.536 383.822 C 278.403 384.169,277.772 384.400,276.957 384.400 C 276.146 384.400,275.287 384.713,274.822 385.178 C 274.395 385.605,273.360 386.075,272.522 386.222 C 271.685 386.369,270.767 386.784,270.483 387.145 C 270.149 387.567,269.302 387.818,268.097 387.852 C 266.673 387.891,266.095 388.105,265.666 388.752 C 265.227 389.412,264.693 389.600,263.251 389.602 C 261.706 389.604,261.156 389.828,259.926 390.958 C 258.788 392.003,258.400 392.178,258.226 391.724 C 257.915 390.913,255.794 391.411,254.120 392.688 C 253.146 393.431,252.549 393.608,251.672 393.416 C 250.240 393.101,247.318 394.199,247.010 395.167 C 246.818 395.775,246.551 395.810,244.826 395.457 C 242.289 394.937,239.600 395.636,239.600 396.816 C 239.600 398.012,246.067 397.998,247.093 396.800 C 247.663 396.134,248.273 396.000,250.726 396.000 C 253.338 396.000,253.699 395.909,253.884 395.200 C 254.066 394.506,254.430 394.400,256.643 394.400 C 258.760 394.400,259.278 394.264,259.693 393.600 C 260.098 392.950,260.626 392.800,262.496 392.800 C 264.277 392.800,264.800 392.664,264.800 392.200 C 264.800 391.757,265.263 391.600,266.567 391.600 C 268.668 391.600,269.600 391.297,269.600 390.613 C 269.600 390.300,270.425 390.027,271.800 389.885 C 273.138 389.747,274.414 389.333,275.054 388.829 C 275.634 388.373,276.629 388.000,277.266 388.000 C 277.927 388.000,278.524 387.742,278.655 387.400 C 278.782 387.070,279.226 386.800,279.643 386.800 C 280.059 386.800,280.400 386.626,280.400 386.413 C 280.400 386.199,280.652 386.122,280.960 386.240 C 281.267 386.358,281.655 386.234,281.821 385.965 C 282.027 385.632,281.957 385.579,281.600 385.800 C 281.254 386.014,281.173 385.967,281.362 385.662 C 281.519 385.408,282.013 385.200,282.461 385.200 C 282.938 385.200,283.361 384.869,283.484 384.400 C 283.648 383.773,284.030 383.600,285.247 383.600 C 286.267 383.600,287.075 383.325,287.600 382.800 C 288.055 382.345,288.933 382.000,289.637 382.000 C 290.538 382.000,290.932 381.783,291.084 381.200 C 291.243 380.594,291.630 380.400,292.684 380.400 C 293.738 380.400,294.125 380.206,294.284 379.600 C 294.443 378.994,294.830 378.800,295.884 378.800 C 296.938 378.800,297.325 378.606,297.484 378.000 C 297.632 377.434,298.030 377.200,298.843 377.200 C 299.560 377.200,300.181 376.899,300.493 376.400 C 300.768 375.960,301.389 375.600,301.874 375.600 C 302.358 375.600,302.996 375.256,303.291 374.835 C 303.585 374.414,304.360 374.009,305.013 373.935 C 305.906 373.833,306.342 373.478,306.772 372.500 C 307.087 371.785,307.582 371.178,307.872 371.150 C 308.162 371.123,308.580 371.055,308.800 371.000 C 309.020 370.945,309.380 370.878,309.600 370.850 C 309.820 370.822,310.000 370.530,310.000 370.200 C 310.000 369.867,310.356 369.600,310.800 369.600 C 311.333 369.600,311.600 369.333,311.600 368.800 C 311.600 368.159,311.867 368.000,312.938 368.000 C 313.768 368.000,314.551 367.696,315.000 367.200 C 315.398 366.760,316.062 366.400,316.475 366.400 C 316.887 366.400,317.334 366.116,317.467 365.769 C 317.600 365.423,318.135 364.977,318.655 364.779 C 319.175 364.582,319.600 364.145,319.600 363.810 C 319.600 363.474,319.945 363.200,320.367 363.200 C 321.559 363.200,322.400 362.769,322.400 362.157 C 322.400 361.851,322.760 361.600,323.200 361.600 C 323.733 361.600,324.000 361.333,324.000 360.800 C 324.000 360.335,324.267 360.000,324.637 360.000 C 324.988 360.000,325.369 359.640,325.484 359.200 C 325.600 358.758,326.030 358.400,326.446 358.400 C 326.860 358.400,327.963 357.680,328.897 356.800 C 329.831 355.920,330.738 355.200,330.911 355.200 C 331.085 355.200,331.829 354.598,332.566 353.861 C 333.302 353.125,334.196 352.410,334.552 352.274 C 334.908 352.137,335.200 351.749,335.200 351.413 C 335.200 351.076,335.487 350.800,335.837 350.800 C 336.188 350.800,336.569 350.440,336.684 350.000 C 336.799 349.560,337.130 349.200,337.420 349.200 C 337.709 349.200,338.060 348.840,338.200 348.400 C 338.340 347.960,338.700 347.600,339.000 347.600 C 339.300 347.600,339.654 347.259,339.786 346.843 C 339.918 346.427,340.399 345.989,340.853 345.870 C 341.308 345.751,341.573 345.479,341.441 345.266 C 341.309 345.053,341.849 344.496,342.641 344.029 C 343.432 343.562,344.169 342.841,344.277 342.427 C 344.385 342.013,344.817 341.584,345.237 341.474 C 345.657 341.365,346.000 341.000,346.000 340.664 C 346.000 340.329,346.360 339.940,346.800 339.800 C 347.240 339.660,347.600 339.309,347.600 339.020 C 347.600 338.730,347.960 338.399,348.400 338.284 C 348.840 338.169,349.200 337.809,349.200 337.484 C 349.200 337.159,349.560 336.799,350.000 336.684 C 350.440 336.569,350.800 336.209,350.800 335.884 C 350.800 335.559,351.160 335.199,351.600 335.084 C 352.040 334.969,352.400 334.588,352.400 334.237 C 352.400 333.887,352.558 333.600,352.752 333.600 C 352.946 333.600,353.844 332.620,354.749 331.421 C 355.654 330.223,356.845 328.791,357.397 328.240 C 357.949 327.688,358.400 326.868,358.400 326.418 C 358.400 325.867,358.661 325.600,359.200 325.600 C 359.665 325.600,360.000 325.333,360.000 324.963 C 360.000 324.612,360.360 324.231,360.800 324.116 C 361.240 324.001,361.600 323.611,361.600 323.250 C 361.600 322.888,361.960 322.368,362.400 322.093 C 362.840 321.818,363.200 321.166,363.200 320.643 C 363.200 320.030,363.483 319.619,364.000 319.484 C 364.453 319.366,364.800 318.938,364.800 318.499 C 364.800 318.073,365.160 317.398,365.600 317.000 C 366.040 316.602,366.400 315.965,366.400 315.585 C 366.400 315.204,366.760 314.799,367.200 314.684 C 367.813 314.524,368.000 314.138,368.000 313.037 C 368.000 311.867,368.148 311.600,368.800 311.600 C 369.333 311.600,369.600 311.333,369.600 310.800 C 369.600 310.356,369.867 310.000,370.200 310.000 C 370.734 310.000,370.971 309.539,370.855 308.724 C 370.834 308.573,371.175 308.335,371.614 308.196 C 372.053 308.056,372.321 307.795,372.209 307.615 C 372.098 307.435,372.455 306.994,373.003 306.635 C 373.578 306.258,374.000 305.599,374.000 305.080 C 374.000 304.584,374.360 303.870,374.800 303.493 C 375.240 303.116,375.600 302.362,375.600 301.818 C 375.600 301.238,375.931 300.651,376.400 300.400 C 376.913 300.126,377.200 299.562,377.200 298.833 C 377.200 298.030,377.436 297.632,378.000 297.484 C 378.606 297.325,378.800 296.938,378.800 295.884 C 378.800 294.830,378.994 294.443,379.600 294.284 C 380.213 294.124,380.400 293.738,380.400 292.637 C 380.400 291.675,380.584 291.200,380.957 291.200 C 381.677 291.200,382.000 290.322,382.000 288.367 C 382.000 287.067,382.136 286.800,382.800 286.800 C 383.463 286.800,383.600 286.533,383.600 285.247 C 383.600 284.030,383.773 283.648,384.400 283.484 C 384.869 283.361,385.200 282.938,385.200 282.461 C 385.200 282.013,385.408 281.519,385.662 281.362 C 385.967 281.173,386.014 281.254,385.800 281.600 C 385.598 281.926,385.633 282.027,385.893 281.866 C 386.122 281.725,386.425 280.994,386.566 280.243 C 386.706 279.492,387.064 278.784,387.361 278.670 C 387.657 278.557,388.029 277.602,388.187 276.549 C 388.345 275.496,388.751 274.432,389.089 274.184 C 389.447 273.922,389.788 272.871,389.903 271.667 C 390.028 270.371,390.291 269.600,390.608 269.600 C 391.297 269.600,391.600 268.672,391.600 266.567 C 391.600 265.263,391.757 264.800,392.200 264.800 C 392.664 264.800,392.800 264.277,392.800 262.496 C 392.800 260.626,392.950 260.098,393.600 259.693 C 394.264 259.278,394.400 258.760,394.400 256.643 C 394.400 254.430,394.506 254.066,395.200 253.884 C 395.926 253.694,396.000 253.338,396.000 250.037 C 396.000 246.497,395.875 246.095,394.960 246.706 M4.000 250.795 C 4.000 253.743,4.804 254.829,5.889 253.345 C 6.944 251.903,6.266 248.668,4.831 248.292 C 4.050 248.088,4.000 248.238,4.000 250.795 M5.600 256.511 C 5.600 259.960,7.026 261.208,7.874 258.500 C 8.457 256.637,7.619 254.418,6.367 254.512 C 5.724 254.561,5.600 254.884,5.600 256.511 M7.279 262.496 C 7.413 264.825,8.234 265.436,9.586 264.212 C 10.425 263.453,10.249 262.249,9.137 261.137 C 7.740 259.740,7.145 260.175,7.279 262.496 M8.878 267.500 C 8.979 269.071,9.144 269.421,9.831 269.519 C 10.585 269.626,10.646 269.845,10.480 271.843 C 10.315 273.834,10.380 274.070,11.148 274.271 C 11.873 274.460,12.000 274.790,12.000 276.484 C 12.000 278.138,12.135 278.510,12.800 278.684 C 13.243 278.800,13.600 279.230,13.600 279.647 C 13.600 280.061,13.600 280.490,13.600 280.600 C 13.600 280.710,13.967 281.167,14.415 281.615 C 14.863 282.063,15.115 282.615,14.974 282.842 C 14.834 283.068,15.098 283.353,15.560 283.474 C 16.210 283.644,16.400 284.008,16.400 285.084 C 16.400 286.138,16.594 286.525,17.200 286.684 C 17.784 286.837,18.001 287.232,18.005 288.147 C 18.014 290.003,18.422 291.200,19.047 291.200 C 19.415 291.200,19.600 291.680,19.600 292.637 C 19.600 293.738,19.787 294.124,20.400 294.284 C 21.006 294.443,21.200 294.830,21.200 295.884 C 21.200 296.938,21.394 297.325,22.000 297.484 C 22.574 297.634,22.800 298.030,22.800 298.884 C 22.800 299.738,23.026 300.134,23.600 300.284 C 24.118 300.419,24.400 300.830,24.400 301.447 C 24.400 301.971,24.760 302.760,25.200 303.200 C 25.640 303.640,26.000 304.334,26.000 304.742 C 26.000 305.557,27.709 307.600,28.391 307.600 C 28.627 307.600,28.928 308.140,29.060 308.800 C 29.192 309.460,29.548 310.000,29.850 310.000 C 30.152 310.000,30.400 310.360,30.400 310.800 C 30.400 311.315,30.667 311.600,31.149 311.600 C 31.713 311.600,31.961 311.994,32.154 313.200 C 32.319 314.235,32.620 314.800,33.005 314.800 C 33.332 314.800,33.600 315.158,33.600 315.597 C 33.600 316.035,33.960 316.618,34.400 316.893 C 34.840 317.168,35.200 317.816,35.200 318.334 C 35.200 318.938,35.486 319.350,36.000 319.484 C 36.443 319.600,36.800 320.030,36.800 320.447 C 36.800 320.861,37.129 321.529,37.531 321.931 C 37.932 322.332,38.377 322.962,38.518 323.331 C 38.659 323.699,38.952 324.000,39.169 324.000 C 39.657 324.000,41.600 325.907,41.600 326.386 C 41.600 326.579,42.320 327.464,43.200 328.353 C 44.080 329.242,44.800 330.239,44.800 330.570 C 44.800 330.901,45.160 331.365,45.600 331.600 C 46.040 331.835,46.400 332.183,46.400 332.372 C 46.400 332.889,48.656 335.200,49.160 335.200 C 49.402 335.200,49.579 335.335,49.553 335.500 C 49.422 336.325,49.659 336.800,50.200 336.800 C 50.530 336.800,50.800 337.058,50.800 337.373 C 50.800 337.688,51.160 338.060,51.600 338.200 C 52.040 338.340,52.400 338.712,52.400 339.027 C 52.400 339.545,52.885 339.776,53.700 339.647 C 53.865 339.621,54.000 339.977,54.000 340.437 C 54.000 340.938,54.321 341.359,54.800 341.484 C 55.240 341.599,55.600 341.860,55.600 342.065 C 55.600 342.670,57.512 344.400,58.182 344.400 C 58.522 344.400,58.800 344.687,58.800 345.037 C 58.800 345.388,59.160 345.769,59.600 345.884 C 60.043 346.000,60.400 346.430,60.400 346.847 C 60.400 347.333,60.683 347.600,61.200 347.600 C 61.733 347.600,62.000 347.867,62.000 348.400 C 62.000 348.840,62.258 349.200,62.573 349.200 C 62.888 349.200,63.260 349.560,63.400 350.000 C 63.540 350.440,63.900 350.800,64.200 350.800 C 64.500 350.800,64.860 351.160,65.000 351.600 C 65.140 352.040,65.602 352.400,66.027 352.400 C 66.468 352.400,66.800 352.674,66.800 353.037 C 66.800 353.388,67.160 353.769,67.600 353.884 C 68.040 353.999,68.400 354.342,68.400 354.647 C 68.400 354.951,68.670 355.200,69.001 355.200 C 69.331 355.200,70.204 355.838,70.939 356.618 C 71.675 357.398,72.800 358.184,73.439 358.363 C 74.077 358.543,74.550 358.911,74.489 359.180 C 74.427 359.449,74.742 359.764,75.189 359.881 C 75.635 359.998,76.000 360.348,76.000 360.659 C 76.000 360.970,76.315 361.343,76.700 361.486 C 77.085 361.630,77.635 362.074,77.923 362.474 C 78.210 362.873,78.902 363.200,79.460 363.200 C 80.138 363.200,80.544 363.465,80.684 364.000 C 80.799 364.440,81.211 364.800,81.600 364.800 C 81.989 364.800,82.401 365.160,82.516 365.600 C 82.634 366.053,83.062 366.400,83.501 366.400 C 83.927 366.400,84.602 366.760,85.000 367.200 C 85.449 367.696,86.232 368.000,87.062 368.000 C 88.133 368.000,88.400 368.159,88.400 368.800 C 88.400 369.333,88.667 369.600,89.200 369.600 C 89.640 369.600,90.000 369.851,90.000 370.157 C 90.000 370.794,90.849 371.200,92.183 371.200 C 92.880 371.200,93.157 371.485,93.338 372.389 C 93.514 373.269,93.865 373.647,94.688 373.843 C 95.300 373.988,96.123 374.388,96.518 374.732 C 96.913 375.075,97.618 375.415,98.086 375.486 C 98.553 375.557,99.185 375.972,99.491 376.408 C 99.821 376.880,100.503 377.200,101.176 377.200 C 101.970 377.200,102.369 377.438,102.516 378.000 C 102.675 378.606,103.062 378.800,104.116 378.800 C 105.170 378.800,105.557 378.994,105.716 379.600 C 105.875 380.206,106.262 380.400,107.316 380.400 C 108.370 380.400,108.757 380.594,108.916 381.200 C 109.068 381.783,109.462 382.000,110.363 382.000 C 111.067 382.000,111.945 382.345,112.400 382.800 C 112.929 383.329,113.733 383.600,114.773 383.600 C 115.995 383.600,116.403 383.779,116.600 384.400 C 116.740 384.840,117.191 385.200,117.603 385.200 C 118.016 385.200,118.476 385.399,118.626 385.643 C 118.817 385.951,119.004 385.921,119.244 385.543 C 119.510 385.122,119.589 385.160,119.594 385.713 C 119.597 386.104,119.915 386.543,120.300 386.688 C 120.685 386.832,121.180 387.181,121.400 387.463 C 121.620 387.745,122.475 388.018,123.300 388.069 C 124.125 388.121,124.800 388.316,124.800 388.502 C 124.800 389.034,127.437 390.000,128.891 390.000 C 129.774 390.000,130.372 390.263,130.707 390.800 C 131.096 391.423,131.640 391.600,133.161 391.600 C 134.528 391.600,135.183 391.780,135.345 392.200 C 135.511 392.633,136.188 392.800,137.773 392.800 C 139.562 392.800,140.052 392.949,140.400 393.600 C 141.040 394.796,146.000 394.805,146.000 393.610 C 146.000 392.232,142.738 391.022,141.732 392.028 C 141.429 392.331,140.854 392.039,139.752 391.021 C 138.449 389.817,137.940 389.599,136.576 389.664 C 134.759 389.751,134.000 389.430,134.000 388.576 C 134.000 388.145,133.451 388.000,131.814 388.000 C 130.038 388.000,129.548 387.850,129.200 387.200 C 128.873 386.588,128.362 386.400,127.033 386.400 C 125.671 386.400,125.251 386.238,125.098 385.653 C 124.959 385.120,124.382 384.828,123.087 384.634 C 122.088 384.484,121.180 384.126,121.070 383.838 C 120.959 383.550,120.103 383.212,119.167 383.086 C 118.230 382.961,117.314 382.589,117.130 382.260 C 116.946 381.931,116.211 381.538,115.498 381.385 C 114.784 381.232,114.014 380.959,113.787 380.777 C 113.560 380.595,111.703 379.610,109.661 378.588 C 107.618 377.565,105.850 376.475,105.731 376.164 C 105.612 375.854,105.198 375.600,104.811 375.600 C 104.424 375.600,103.650 375.240,103.091 374.800 C 102.531 374.360,101.680 374.000,101.199 374.000 C 100.662 374.000,100.245 373.692,100.116 373.200 C 99.960 372.603,99.570 372.400,98.580 372.400 C 97.624 372.400,97.186 372.186,97.011 371.633 C 96.877 371.212,96.280 370.664,95.684 370.416 C 93.852 369.655,91.955 368.574,91.671 368.129 C 91.522 367.896,90.500 367.249,89.400 366.692 C 88.300 366.135,86.953 365.200,86.406 364.614 C 85.859 364.028,84.818 363.267,84.093 362.922 C 83.367 362.578,82.221 361.780,81.545 361.148 C 80.868 360.517,80.161 360.000,79.972 360.000 C 79.783 360.000,79.435 359.640,79.200 359.200 C 78.965 358.760,78.523 358.400,78.220 358.400 C 77.713 358.400,76.627 357.620,74.808 355.950 C 74.419 355.593,73.913 355.233,73.685 355.150 C 73.456 355.068,72.013 353.830,70.478 352.400 C 65.630 347.884,64.832 347.200,64.411 347.200 C 64.185 347.200,64.000 347.016,64.000 346.790 C 64.000 346.565,63.550 346.209,63.000 346.000 C 62.450 345.791,62.000 345.357,62.000 345.037 C 62.000 344.716,61.640 344.340,61.200 344.200 C 60.760 344.060,60.400 343.709,60.400 343.420 C 60.400 343.130,60.040 342.799,59.600 342.684 C 59.160 342.569,58.800 342.209,58.800 341.884 C 58.800 341.559,58.440 341.199,58.000 341.084 C 57.560 340.969,57.200 340.609,57.200 340.284 C 57.200 339.959,56.840 339.599,56.400 339.484 C 55.960 339.369,55.600 338.988,55.600 338.637 C 55.600 338.287,55.330 338.000,55.000 338.000 C 54.670 338.000,54.400 337.770,54.400 337.489 C 54.400 337.208,54.085 336.690,53.700 336.338 C 53.315 335.986,52.280 334.850,51.400 333.815 C 50.520 332.779,48.678 330.732,47.306 329.266 C 45.934 327.800,44.809 326.375,44.806 326.100 C 44.803 325.825,44.533 325.600,44.208 325.600 C 43.882 325.600,43.502 325.150,43.364 324.600 C 43.226 324.050,42.957 323.600,42.767 323.600 C 42.576 323.600,42.155 323.105,41.830 322.500 C 41.505 321.895,40.420 320.524,39.420 319.453 C 38.419 318.382,37.600 317.291,37.600 317.029 C 37.600 316.767,36.835 315.654,35.900 314.556 C 34.965 313.459,33.756 311.694,33.214 310.635 C 32.671 309.575,31.996 308.620,31.714 308.511 C 31.431 308.403,31.200 308.088,31.200 307.811 C 31.200 307.534,30.851 306.864,30.425 306.322 C 29.998 305.780,29.533 304.873,29.391 304.306 C 29.249 303.739,28.787 303.185,28.366 303.075 C 27.824 302.934,27.600 302.521,27.600 301.664 C 27.600 300.805,27.368 300.380,26.800 300.200 C 26.240 300.022,26.000 299.595,26.000 298.773 C 26.000 298.128,25.822 297.600,25.605 297.600 C 25.388 297.600,24.949 296.974,24.630 296.209 C 24.310 295.444,23.849 294.589,23.605 294.309 C 22.450 292.982,20.400 289.450,20.400 288.788 C 20.400 288.379,20.069 287.810,19.665 287.523 C 19.260 287.235,18.821 286.322,18.689 285.494 C 18.557 284.665,18.077 283.516,17.624 282.940 C 17.171 282.364,16.800 281.360,16.800 280.709 C 16.800 279.862,16.573 279.466,16.000 279.316 C 15.338 279.143,15.200 278.770,15.200 277.153 C 15.200 275.467,15.091 275.200,14.400 275.200 C 13.705 275.200,13.600 274.933,13.600 273.163 C 13.600 271.462,13.468 271.091,12.800 270.916 C 12.136 270.742,12.000 270.370,12.000 268.733 C 12.000 266.859,11.930 266.730,10.613 266.180 C 8.713 265.386,8.741 265.364,8.878 267.500 M80.367 330.298 C 72.632 337.794,72.223 336.539,86.000 347.582 C 95.482 355.183,114.199 366.410,124.200 370.496 C 125.080 370.856,127.561 371.877,129.713 372.767 C 133.594 374.369,145.215 378.347,150.600 379.916 C 160.364 382.759,175.623 385.322,186.800 385.995 C 214.403 387.658,238.172 384.336,263.400 375.288 C 268.481 373.465,270.449 372.682,274.260 370.967 C 274.954 370.655,275.616 370.400,275.733 370.400 C 276.618 370.400,291.044 362.842,295.800 359.887 C 306.795 353.055,316.965 345.581,323.500 339.530 C 326.054 337.165,325.942 336.896,319.867 330.881 C 314.722 325.786,313.310 324.851,312.572 326.045 C 312.184 326.673,299.076 336.982,295.537 339.442 C 292.941 341.247,290.515 342.748,282.000 347.814 C 279.845 349.096,271.314 353.337,267.384 355.080 C 255.225 360.471,238.820 365.219,225.600 367.174 C 223.950 367.418,221.520 367.786,220.200 367.992 C 196.753 371.646,159.167 366.706,137.200 357.084 C 136.430 356.747,133.820 355.622,131.400 354.585 C 117.922 348.807,103.182 339.507,90.000 328.464 C 85.678 324.842,86.074 324.767,80.367 330.298 M146.526 394.034 C 146.288 394.272,146.183 394.812,146.293 395.234 C 146.590 396.371,152.400 396.400,152.400 395.264 C 152.400 393.883,147.668 392.892,146.526 394.034 M154.634 395.617 C 153.993 395.809,153.318 395.873,153.134 395.759 C 152.950 395.646,152.800 395.920,152.800 396.369 C 152.800 397.813,160.043 398.182,160.315 396.752 C 160.524 395.653,156.921 394.934,154.634 395.617 M163.400 397.131 C 161.771 397.503,161.420 399.200,162.972 399.200 C 163.537 399.200,164.000 399.380,164.000 399.600 C 164.000 399.837,165.467 400.000,167.600 400.000 C 169.733 400.000,171.200 399.837,171.200 399.600 C 171.200 399.380,171.020 399.200,170.800 399.200 C 170.580 399.200,170.400 398.860,170.400 398.443 C 170.400 397.991,170.038 397.598,169.500 397.466 C 167.743 397.034,164.583 396.861,163.400 397.131 M231.280 397.195 C 229.720 397.564,229.783 397.505,229.449 398.900 L 229.185 400.000 232.592 400.000 C 234.597 400.000,236.000 399.835,236.000 399.600 C 236.000 399.380,236.450 399.200,237.000 399.200 C 237.550 399.200,238.000 399.125,238.000 399.033 C 238.000 398.941,238.104 398.593,238.232 398.260 C 238.674 397.109,234.403 396.455,231.280 397.195 M176.000 398.673 C 170.912 399.439,172.518 400.000,179.800 400.000 C 183.646 400.000,186.400 399.843,186.400 399.625 C 186.400 399.050,178.374 398.316,176.000 398.673 M218.600 398.636 C 217.940 398.728,216.455 398.905,215.300 399.030 C 210.897 399.507,213.389 400.000,220.200 400.000 C 226.593 400.000,228.353 399.728,226.518 399.024 C 225.640 398.687,220.161 398.418,218.600 398.636 " stroke="none" fill="#84848c" fill-rule="evenodd"></path><path id="path2" d="M168.800 0.205 C 168.800 0.318,169.020 0.764,169.290 1.195 C 170.300 2.812,166.746 3.499,161.878 2.629 C 160.114 2.314,159.937 2.355,159.735 3.125 C 159.409 4.374,157.184 4.992,154.995 4.440 C 152.648 3.850,152.400 3.878,152.400 4.736 C 152.400 6.136,149.581 6.798,146.897 6.028 C 145.763 5.703,145.600 5.750,145.600 6.405 C 145.600 7.809,142.489 9.114,141.800 8.000 C 141.445 7.426,140.001 7.506,139.993 8.100 C 139.967 9.974,136.540 11.035,135.470 9.500 L 134.842 8.600 134.821 9.500 C 134.809 9.995,134.632 10.400,134.427 10.400 C 134.222 10.400,133.940 10.760,133.800 11.200 C 133.588 11.868,133.195 12.000,131.420 12.000 C 129.630 12.000,129.260 12.127,129.084 12.800 C 128.914 13.450,128.538 13.600,127.084 13.600 C 125.645 13.600,125.253 13.753,125.089 14.381 C 124.934 14.975,124.399 15.226,122.843 15.432 C 121.612 15.595,120.800 15.903,120.800 16.206 C 120.800 16.494,120.046 16.822,119.035 16.974 C 118.065 17.119,117.177 17.483,117.062 17.781 C 116.948 18.080,116.259 18.455,115.531 18.615 C 114.803 18.775,113.649 19.332,112.966 19.853 C 112.283 20.374,111.509 20.800,111.246 20.800 C 110.560 20.800,106.140 23.149,105.599 23.801 C 105.349 24.102,104.605 24.467,103.945 24.612 C 103.286 24.757,102.649 25.128,102.530 25.438 C 102.412 25.747,101.815 26.000,101.204 26.000 C 100.430 26.000,100.030 26.242,99.884 26.800 C 99.730 27.389,99.338 27.600,98.400 27.600 C 97.527 27.600,97.063 27.821,96.928 28.300 C 96.820 28.685,95.820 29.432,94.706 29.959 C 93.592 30.487,92.369 31.231,91.987 31.613 C 91.605 31.995,90.277 32.865,89.036 33.546 C 87.795 34.227,86.357 35.206,85.841 35.722 C 85.326 36.238,84.340 36.893,83.652 37.179 C 82.963 37.464,82.400 37.855,82.400 38.049 C 82.400 38.242,82.113 38.400,81.763 38.400 C 81.412 38.400,81.031 38.760,80.916 39.200 C 80.801 39.640,80.468 40.000,80.176 40.000 C 79.884 40.000,79.410 40.318,79.123 40.706 C 78.835 41.095,78.105 41.631,77.500 41.898 C 76.895 42.164,76.400 42.547,76.400 42.748 C 76.400 42.949,75.950 43.226,75.400 43.364 C 74.850 43.502,74.400 43.882,74.400 44.208 C 74.400 44.533,74.175 44.805,73.900 44.811 C 73.625 44.817,72.140 45.983,70.600 47.402 C 69.060 48.821,67.112 50.616,66.270 51.391 C 65.429 52.166,64.583 52.800,64.390 52.800 C 64.197 52.800,63.896 53.039,63.720 53.330 C 63.544 53.622,63.085 53.976,62.700 54.118 C 62.315 54.259,62.000 54.651,62.000 54.987 C 62.000 55.324,61.724 55.600,61.387 55.600 C 61.051 55.600,60.668 55.878,60.538 56.218 C 60.230 57.020,57.020 60.230,56.218 60.538 C 55.878 60.668,55.600 61.051,55.600 61.387 C 55.600 61.724,55.324 62.000,54.987 62.000 C 54.651 62.000,54.259 62.301,54.118 62.669 C 53.977 63.038,53.577 63.636,53.231 63.999 C 52.884 64.362,51.700 65.711,50.600 66.996 C 49.500 68.281,47.746 70.248,46.703 71.367 C 45.660 72.485,44.805 73.604,44.803 73.853 C 44.801 74.103,44.440 74.401,44.000 74.516 C 43.521 74.641,43.200 75.062,43.200 75.563 C 43.200 76.023,43.025 76.400,42.810 76.400 C 42.596 76.400,42.162 76.895,41.845 77.500 C 41.529 78.105,40.354 79.560,39.235 80.734 C 38.116 81.908,37.200 83.112,37.200 83.410 C 37.200 83.708,36.525 84.734,35.700 85.691 C 34.875 86.647,33.756 88.299,33.214 89.361 C 32.671 90.423,31.996 91.380,31.714 91.489 C 31.431 91.597,31.200 91.912,31.200 92.189 C 31.200 92.466,30.851 93.136,30.425 93.678 C 29.998 94.220,29.533 95.127,29.391 95.694 C 29.249 96.261,28.787 96.815,28.366 96.925 C 27.824 97.066,27.600 97.479,27.600 98.336 C 27.600 99.195,27.368 99.620,26.800 99.800 C 26.347 99.944,26.000 100.405,26.000 100.864 C 26.000 101.309,25.640 102.131,25.200 102.691 C 24.760 103.250,24.400 103.926,24.400 104.192 C 24.400 104.458,24.040 105.002,23.600 105.400 C 23.160 105.798,22.800 106.295,22.800 106.504 C 22.800 106.713,22.260 107.684,21.600 108.662 C 20.940 109.640,20.400 110.713,20.400 111.046 C 20.400 112.037,19.625 113.185,19.094 112.981 C 18.750 112.849,18.600 113.308,18.600 114.496 C 18.600 115.730,18.352 116.448,17.700 117.100 C 17.155 117.645,16.800 118.488,16.800 119.237 C 16.800 120.138,16.583 120.532,16.000 120.684 C 15.340 120.857,15.200 121.230,15.200 122.819 C 15.200 124.507,15.090 124.760,14.306 124.872 C 13.521 124.985,13.428 125.202,13.535 126.671 C 13.634 128.025,13.500 128.425,12.828 128.785 C 12.165 129.140,12.000 129.615,12.000 131.168 C 12.000 133.167,11.013 134.400,9.414 134.400 C 8.532 134.400,8.657 135.319,9.622 135.921 C 10.919 136.731,9.626 139.600,7.963 139.600 C 7.312 139.600,7.294 139.747,7.756 141.300 C 8.362 143.337,7.595 145.600,6.299 145.600 C 5.708 145.600,5.602 145.794,5.805 146.500 C 5.947 146.995,6.153 147.719,6.262 148.109 C 6.639 149.459,5.968 151.232,4.931 151.626 C 3.970 151.992,3.946 152.090,4.214 154.593 C 4.562 157.842,4.255 159.200,3.174 159.200 C 2.396 159.200,2.374 159.360,2.636 163.157 C 2.994 168.357,2.733 169.510,1.398 168.635 C 0.015 167.729,0.000 167.748,0.000 170.429 C 0.000 172.110,0.195 173.052,0.633 173.490 C 1.447 174.304,1.328 183.225,0.500 183.501 C -0.230 183.743,-0.230 216.257,0.500 216.500 C 0.864 216.621,1.000 218.009,1.000 221.600 C 1.000 225.191,0.864 226.579,0.500 226.700 C -0.111 226.904,-0.207 232.000,0.400 232.000 C 0.620 232.000,0.800 231.820,0.800 231.600 C 0.800 231.122,2.266 231.060,2.554 231.526 C 2.891 232.071,2.908 235.246,2.590 238.100 C 2.305 240.664,2.331 240.800,3.121 240.800 C 4.509 240.800,4.733 241.803,4.215 245.693 C 3.920 247.907,3.945 247.999,4.933 248.375 C 6.183 248.850,6.752 251.132,6.071 252.935 C 5.573 254.254,5.757 254.868,6.557 254.561 C 7.612 254.156,8.437 256.821,7.814 258.619 C 7.335 260.000,7.342 260.217,7.869 260.336 C 9.655 260.740,10.715 263.191,9.557 264.239 C 8.497 265.198,8.586 265.395,10.400 266.107 C 11.967 266.723,12.000 266.776,12.000 268.721 C 12.000 270.370,12.136 270.742,12.800 270.916 C 13.468 271.091,13.600 271.462,13.600 273.163 C 13.600 274.933,13.705 275.200,14.400 275.200 C 15.091 275.200,15.200 275.467,15.200 277.153 C 15.200 278.770,15.338 279.143,16.000 279.316 C 16.573 279.466,16.800 279.862,16.800 280.709 C 16.800 281.360,17.171 282.364,17.624 282.940 C 18.077 283.516,18.557 284.665,18.689 285.494 C 18.821 286.322,19.260 287.235,19.665 287.523 C 20.069 287.810,20.400 288.379,20.400 288.788 C 20.400 289.450,22.450 292.982,23.605 294.309 C 23.849 294.589,24.310 295.444,24.630 296.209 C 24.949 296.974,25.388 297.600,25.605 297.600 C 25.822 297.600,26.000 298.128,26.000 298.773 C 26.000 299.595,26.240 300.022,26.800 300.200 C 27.368 300.380,27.600 300.805,27.600 301.664 C 27.600 302.521,27.824 302.934,28.366 303.075 C 28.787 303.185,29.249 303.739,29.391 304.306 C 29.533 304.873,29.998 305.780,30.425 306.322 C 30.851 306.864,31.200 307.534,31.200 307.811 C 31.200 308.088,31.431 308.403,31.714 308.511 C 31.996 308.620,32.671 309.575,33.214 310.635 C 33.756 311.694,34.965 313.459,35.900 314.556 C 36.835 315.654,37.600 316.767,37.600 317.029 C 37.600 317.291,38.419 318.382,39.420 319.453 C 40.420 320.524,41.505 321.895,41.830 322.500 C 42.155 323.105,42.576 323.600,42.767 323.600 C 42.957 323.600,43.226 324.050,43.364 324.600 C 43.502 325.150,43.882 325.600,44.208 325.600 C 44.533 325.600,44.803 325.825,44.806 326.100 C 44.809 326.375,45.934 327.800,47.306 329.266 C 48.678 330.732,50.520 332.779,51.400 333.815 C 52.280 334.850,53.315 335.986,53.700 336.338 C 54.085 336.690,54.400 337.208,54.400 337.489 C 54.400 337.770,54.670 338.000,55.000 338.000 C 55.330 338.000,55.600 338.287,55.600 338.637 C 55.600 338.988,55.960 339.369,56.400 339.484 C 56.840 339.599,57.200 339.959,57.200 340.284 C 57.200 340.609,57.560 340.969,58.000 341.084 C 58.440 341.199,58.800 341.559,58.800 341.884 C 58.800 342.209,59.160 342.569,59.600 342.684 C 60.040 342.799,60.400 343.130,60.400 343.420 C 60.400 343.709,60.760 344.060,61.200 344.200 C 61.640 344.340,62.000 344.716,62.000 345.037 C 62.000 345.357,62.450 345.791,63.000 346.000 C 63.550 346.209,64.000 346.565,64.000 346.790 C 64.000 347.016,64.185 347.200,64.411 347.200 C 64.832 347.200,65.630 347.884,70.478 352.400 C 72.013 353.830,73.456 355.068,73.685 355.150 C 73.913 355.233,74.419 355.593,74.808 355.950 C 76.627 357.620,77.713 358.400,78.220 358.400 C 78.523 358.400,78.965 358.760,79.200 359.200 C 79.435 359.640,79.783 360.000,79.972 360.000 C 80.161 360.000,80.868 360.517,81.545 361.148 C 82.221 361.780,83.367 362.578,84.093 362.922 C 84.818 363.267,85.859 364.028,86.406 364.614 C 86.953 365.200,88.300 366.135,89.400 366.692 C 90.500 367.249,91.522 367.896,91.671 368.129 C 91.955 368.574,93.852 369.655,95.684 370.416 C 96.280 370.664,96.877 371.212,97.011 371.633 C 97.186 372.186,97.624 372.400,98.580 372.400 C 99.570 372.400,99.960 372.603,100.116 373.200 C 100.245 373.692,100.662 374.000,101.199 374.000 C 101.680 374.000,102.531 374.360,103.091 374.800 C 103.650 375.240,104.424 375.600,104.811 375.600 C 105.198 375.600,105.612 375.854,105.731 376.164 C 105.850 376.475,107.618 377.565,109.661 378.588 C 111.703 379.610,113.560 380.595,113.787 380.777 C 114.014 380.959,114.784 381.232,115.498 381.385 C 116.211 381.538,116.946 381.931,117.130 382.260 C 117.314 382.589,118.230 382.961,119.167 383.086 C 120.103 383.212,120.959 383.550,121.070 383.838 C 121.180 384.126,122.088 384.484,123.087 384.634 C 124.382 384.828,124.959 385.120,125.098 385.653 C 125.251 386.238,125.671 386.400,127.033 386.400 C 128.362 386.400,128.873 386.588,129.200 387.200 C 129.548 387.850,130.038 388.000,131.814 388.000 C 133.451 388.000,134.000 388.145,134.000 388.576 C 134.000 389.430,134.759 389.751,136.576 389.664 C 137.940 389.599,138.449 389.817,139.752 391.021 C 140.854 392.039,141.429 392.331,141.732 392.028 C 142.779 390.981,146.000 392.237,146.000 393.690 C 146.000 394.367,146.107 394.453,146.480 394.080 C 147.644 392.916,152.400 393.844,152.400 395.235 C 152.400 395.954,153.677 396.010,155.665 395.379 C 157.181 394.898,160.495 395.993,160.259 396.896 C 160.062 397.650,160.170 397.677,162.125 397.364 C 166.198 396.712,170.400 397.160,170.400 398.247 C 170.400 399.587,172.895 400.714,173.284 399.549 C 173.660 398.420,185.944 398.431,186.320 399.561 C 186.513 400.140,213.071 400.184,213.267 399.605 C 213.675 398.396,225.794 398.251,226.984 399.441 C 227.987 400.444,229.194 400.130,229.461 398.795 C 229.810 397.052,233.345 396.452,237.900 397.363 C 239.466 397.675,239.600 397.636,239.600 396.867 C 239.600 395.634,242.229 394.925,244.826 395.457 C 246.551 395.810,246.818 395.775,247.010 395.167 C 247.318 394.199,250.240 393.101,251.672 393.416 C 252.549 393.608,253.146 393.431,254.120 392.688 C 255.794 391.411,257.915 390.913,258.226 391.724 C 258.400 392.178,258.788 392.003,259.926 390.958 C 261.156 389.828,261.706 389.604,263.251 389.602 C 264.693 389.600,265.227 389.412,265.666 388.752 C 266.095 388.105,266.673 387.891,268.097 387.852 C 269.302 387.818,270.149 387.567,270.483 387.145 C 270.767 386.784,271.685 386.369,272.522 386.222 C 273.360 386.075,274.395 385.605,274.822 385.178 C 275.287 384.713,276.146 384.400,276.957 384.400 C 277.772 384.400,278.403 384.169,278.536 383.822 C 278.658 383.504,279.442 383.118,280.279 382.964 C 281.116 382.810,282.229 382.350,282.754 381.942 C 283.279 381.534,283.909 381.198,284.154 381.195 C 284.399 381.192,286.040 380.444,287.800 379.533 C 293.555 376.553,294.358 376.110,296.400 374.782 C 296.950 374.424,297.890 374.010,298.488 373.861 C 299.087 373.712,299.768 373.233,300.003 372.795 C 300.253 372.328,300.840 372.000,301.427 372.000 C 301.976 372.000,302.524 371.743,302.645 371.428 C 302.765 371.113,303.390 370.673,304.032 370.449 C 304.674 370.225,305.200 369.872,305.200 369.664 C 305.200 369.457,305.654 369.173,306.210 369.033 C 306.765 368.894,308.039 368.154,309.040 367.390 C 310.042 366.625,311.017 366.000,311.206 366.000 C 311.504 366.000,313.789 364.231,316.100 362.212 C 316.485 361.875,316.971 361.600,317.179 361.600 C 317.388 361.600,318.020 361.195,318.583 360.700 C 319.640 359.772,320.260 359.280,323.000 357.195 C 326.911 354.219,330.737 350.971,333.059 348.655 C 333.751 347.965,335.535 346.320,337.023 345.000 C 340.094 342.276,341.816 340.574,344.400 337.707 C 345.390 336.609,347.753 334.020,349.652 331.955 C 352.560 328.791,355.364 325.388,359.102 320.484 C 359.486 319.981,360.205 319.099,360.700 318.526 C 361.195 317.952,361.600 317.303,361.600 317.083 C 361.600 316.863,362.270 315.864,363.090 314.864 C 363.909 313.864,365.272 311.976,366.117 310.667 C 366.963 309.358,367.901 308.042,368.201 307.742 C 368.502 307.441,368.871 306.805,369.023 306.328 C 369.174 305.852,369.458 305.268,369.655 305.031 C 370.643 303.837,372.000 301.497,372.000 300.986 C 372.000 300.667,372.360 300.182,372.800 299.907 C 373.240 299.632,373.600 299.115,373.600 298.758 C 373.600 298.400,373.935 297.679,374.345 297.154 C 374.755 296.629,375.230 295.753,375.401 295.208 C 375.572 294.662,376.009 293.762,376.372 293.208 C 378.057 290.635,381.196 284.586,381.209 283.890 C 381.214 283.620,381.570 282.950,382.000 282.400 C 382.430 281.850,382.787 281.040,382.794 280.600 C 382.800 280.160,383.163 279.260,383.600 278.600 C 384.037 277.940,384.396 276.933,384.397 276.362 C 384.399 275.791,384.741 275.015,385.158 274.638 C 385.575 274.260,386.036 273.156,386.182 272.183 C 386.328 271.210,386.679 270.275,386.963 270.107 C 387.247 269.938,387.596 268.900,387.738 267.800 C 387.913 266.450,388.257 265.622,388.798 265.251 C 389.403 264.837,389.600 264.254,389.600 262.877 C 389.600 261.583,389.840 260.796,390.426 260.172 C 390.998 259.563,391.281 258.670,391.345 257.268 C 391.404 255.975,391.702 254.951,392.166 254.437 C 392.574 253.987,392.974 252.789,393.075 251.716 C 393.310 249.209,394.315 246.881,395.297 246.569 C 395.867 246.388,395.961 246.201,395.640 245.880 C 394.458 244.698,395.577 238.596,396.911 238.945 C 397.549 239.112,397.631 238.997,397.397 238.273 C 396.104 234.267,396.975 228.599,398.823 229.005 C 399.888 229.239,400.000 229.166,400.000 228.232 C 400.000 227.664,399.828 227.200,399.619 227.200 C 398.139 227.200,398.134 211.778,399.614 211.267 C 400.154 211.080,400.133 188.511,399.594 188.331 C 398.111 187.837,398.135 172.800,399.619 172.800 C 399.828 172.800,400.000 172.440,400.000 172.000 C 400.000 171.211,399.656 171.043,398.321 171.175 C 396.950 171.312,396.362 165.188,397.414 161.727 C 397.633 161.006,397.545 160.889,396.911 161.055 C 395.536 161.415,394.469 155.291,395.693 154.067 C 396.084 153.676,396.010 153.528,395.338 153.352 C 394.300 153.081,393.319 150.883,393.075 148.284 C 392.974 147.211,392.574 146.013,392.166 145.563 C 391.702 145.049,391.404 144.025,391.345 142.732 C 391.281 141.330,390.998 140.437,390.426 139.828 C 389.840 139.204,389.600 138.417,389.600 137.123 C 389.600 135.713,389.409 135.171,388.761 134.741 C 388.137 134.326,387.891 133.683,387.799 132.229 C 387.722 131.006,387.450 130.148,387.073 129.937 C 386.742 129.751,386.341 128.835,386.184 127.900 C 386.027 126.965,385.561 125.771,385.149 125.246 C 384.737 124.721,384.400 123.850,384.400 123.309 C 384.400 122.769,384.040 121.869,383.600 121.309 C 383.160 120.750,382.796 119.911,382.791 119.446 C 382.786 118.981,382.430 118.150,382.000 117.600 C 381.570 117.050,381.214 116.393,381.209 116.140 C 381.199 115.622,378.303 109.847,377.672 109.087 C 377.448 108.817,377.137 108.087,376.981 107.465 C 376.825 106.844,376.466 106.247,376.185 106.139 C 375.903 106.031,375.552 105.460,375.405 104.871 C 375.258 104.282,374.903 103.530,374.616 103.200 C 374.329 102.870,373.958 102.150,373.790 101.600 C 373.622 101.050,373.151 100.365,372.743 100.077 C 372.334 99.790,372.000 99.205,372.000 98.777 C 372.000 98.350,371.640 97.640,371.200 97.200 C 370.760 96.760,370.400 96.130,370.400 95.800 C 370.400 95.470,370.216 95.200,369.990 95.200 C 369.765 95.200,369.426 94.795,369.238 94.300 C 368.754 93.031,364.975 87.356,363.140 85.144 C 362.293 84.124,361.600 83.098,361.600 82.865 C 361.600 82.632,361.195 81.980,360.700 81.417 C 359.772 80.360,359.280 79.740,357.195 77.000 C 354.230 73.103,351.694 70.136,348.800 67.178 C 348.250 66.616,346.902 65.086,345.804 63.778 C 343.777 61.363,339.928 57.472,336.969 54.847 C 336.072 54.051,333.543 51.780,331.348 49.800 C 327.449 46.282,326.262 45.287,323.000 42.805 C 320.260 40.720,319.640 40.228,318.583 39.300 C 318.020 38.805,317.298 38.400,316.979 38.400 C 316.661 38.400,316.400 38.216,316.400 37.990 C 316.400 37.765,315.950 37.409,315.400 37.200 C 314.850 36.991,314.400 36.660,314.400 36.464 C 314.400 36.121,313.364 35.355,309.634 32.942 C 306.445 30.879,305.015 30.038,303.932 29.588 C 303.345 29.344,302.765 28.887,302.645 28.572 C 302.524 28.257,302.035 28.000,301.558 28.000 C 301.082 28.000,300.275 27.550,299.765 27.000 C 299.255 26.450,298.464 26.000,298.007 26.000 C 297.549 26.000,297.071 25.730,296.945 25.400 C 296.818 25.070,296.428 24.800,296.079 24.800 C 295.729 24.800,294.803 24.391,294.022 23.890 C 291.696 22.401,291.147 22.095,287.786 20.411 C 286.018 19.525,284.377 18.800,284.140 18.800 C 283.902 18.800,283.279 18.466,282.754 18.058 C 282.229 17.650,281.142 17.195,280.339 17.047 C 279.535 16.899,278.776 16.513,278.651 16.189 C 278.516 15.838,277.895 15.598,277.113 15.594 C 275.660 15.587,275.008 15.274,274.746 14.459 C 274.644 14.141,273.843 13.863,272.808 13.786 C 271.554 13.692,270.850 13.397,270.373 12.765 C 269.946 12.198,269.464 11.967,269.047 12.127 C 267.955 12.546,266.087 11.975,265.873 11.157 C 265.710 10.535,265.299 10.400,263.571 10.400 C 261.492 10.400,261.178 10.247,259.315 8.321 C 258.716 7.702,258.616 7.698,258.191 8.280 C 257.571 9.128,255.861 8.697,254.518 7.354 C 253.755 6.591,253.145 6.362,252.052 6.426 C 249.367 6.584,248.726 6.405,247.578 5.177 C 246.628 4.160,246.302 4.025,245.644 4.377 C 243.779 5.375,239.391 4.444,239.736 3.123 C 239.936 2.359,239.841 2.328,238.275 2.651 C 236.120 3.095,230.875 3.037,230.413 2.564 C 230.217 2.364,229.999 1.934,229.929 1.610 C 229.597 0.088,228.017 -0.474,226.982 0.561 C 225.719 1.824,216.283 1.826,215.021 0.563 C 214.297 -0.160,185.362 -0.287,185.123 0.432 C 184.704 1.689,174.666 1.808,173.428 0.571 C 172.896 0.039,168.800 -0.284,168.800 0.205 M118.576 14.175 C 117.808 14.743,117.808 14.748,118.578 14.640 C 119.006 14.579,119.426 14.321,119.512 14.065 C 119.715 13.455,119.517 13.478,118.576 14.175 M212.600 14.005 C 228.133 14.912,244.270 18.163,260.000 23.555 C 271.306 27.431,280.140 31.353,290.800 37.228 C 304.404 44.727,325.200 60.363,325.200 63.093 C 325.200 64.299,315.702 73.859,314.105 74.260 C 313.470 74.419,312.770 74.118,311.704 73.229 C 295.583 59.769,283.707 52.223,266.800 44.699 C 241.036 33.234,205.797 28.249,178.600 32.222 C 176.180 32.575,173.120 33.014,171.800 33.196 C 167.913 33.733,160.620 35.397,154.400 37.167 C 138.749 41.619,126.163 47.138,111.200 56.109 C 105.396 59.588,96.831 65.869,89.426 72.075 C 85.769 75.140,85.849 75.159,80.504 69.900 C 73.040 62.556,73.080 63.030,79.463 57.762 C 118.558 25.498,162.439 11.076,212.600 14.005 M92.176 28.587 C 91.419 29.160,91.423 29.175,92.300 29.187 C 92.839 29.195,93.200 28.959,93.200 28.600 C 93.200 27.859,93.141 27.858,92.176 28.587 M68.894 79.894 C 74.993 85.979,74.974 85.912,71.689 89.838 C 60.308 103.442,50.422 119.076,45.028 132.000 C 44.614 132.990,43.932 134.610,43.511 135.600 C 39.440 145.172,34.503 162.177,33.203 171.106 C 32.987 172.588,32.538 175.589,32.204 177.775 C 29.245 197.156,30.962 223.767,36.439 243.400 C 43.883 270.087,54.159 289.260,73.293 312.163 C 74.763 313.922,74.373 314.653,69.032 320.159 C 62.769 326.616,62.839 326.606,58.705 321.700 C 49.785 311.115,42.234 300.380,37.393 291.400 C 36.563 289.860,35.321 287.610,34.633 286.400 C 27.655 274.120,19.896 252.066,16.831 235.800 C 10.395 201.638,13.200 167.594,25.139 135.000 C 32.559 114.740,43.241 96.701,58.712 78.300 C 62.712 73.542,62.494 73.508,68.894 79.894 M339.256 76.300 C 350.786 88.499,364.152 109.605,371.741 127.600 C 373.199 131.057,373.440 131.689,375.855 138.400 C 383.694 160.179,387.052 183.467,386.015 208.859 C 385.656 217.651,385.311 220.908,383.547 232.200 C 378.803 262.557,363.381 295.427,342.122 320.491 C 336.971 326.564,337.257 326.573,330.734 320.120 C 324.477 313.929,324.551 314.445,329.129 308.886 C 340.315 295.301,348.677 281.943,354.596 268.200 C 355.639 265.780,356.730 263.260,357.021 262.600 C 358.792 258.585,363.040 244.931,364.799 237.600 C 372.355 206.099,369.399 167.401,357.189 138.000 C 349.216 118.801,340.331 104.147,327.843 89.600 C 324.741 85.987,324.720 86.056,330.712 79.982 C 336.540 74.075,336.975 73.887,339.256 76.300 M185.876 90.500 C 186.054 90.775,186.290 98.080,186.400 106.733 C 186.591 121.720,186.637 122.492,187.376 123.033 C 188.420 123.795,200.110 123.836,201.600 123.083 L 202.600 122.577 202.800 107.189 C 202.949 95.696,203.130 91.572,203.514 90.900 C 204.274 89.570,222.280 89.480,223.600 90.800 C 224.372 91.572,224.400 92.133,224.400 107.020 C 224.400 124.822,224.395 124.794,227.310 124.808 C 230.032 124.821,239.480 126.406,243.200 127.474 C 253.018 130.293,257.880 132.533,263.284 136.730 C 280.196 149.863,279.778 179.652,262.500 192.577 C 259.061 195.149,259.095 195.921,262.700 197.059 C 279.711 202.428,287.384 213.533,287.395 232.800 C 287.414 264.795,269.395 280.424,229.496 283.021 C 223.954 283.382,224.400 281.831,224.400 300.758 C 224.400 314.879,224.330 316.614,223.738 317.269 C 222.608 318.517,204.308 318.376,203.423 317.111 C 202.885 316.343,202.800 314.085,202.800 300.525 C 202.800 281.906,203.839 284.000,194.600 284.000 C 185.358 284.000,186.400 281.881,186.400 300.683 C 186.400 314.874,186.331 316.614,185.738 317.269 C 184.777 318.330,167.096 318.392,165.931 317.338 C 165.246 316.718,165.200 315.673,165.200 300.813 C 165.200 285.782,165.160 284.908,164.440 284.135 C 163.534 283.162,152.727 282.689,134.710 282.833 C 121.750 282.936,122.499 283.427,123.978 275.800 C 124.405 273.600,124.933 270.450,125.152 268.800 C 125.811 263.829,126.753 259.139,127.201 258.599 C 127.509 258.228,129.864 258.045,135.912 257.924 C 145.595 257.731,146.734 257.393,148.821 254.103 L 150.000 252.243 150.000 203.648 C 150.000 148.379,150.321 153.359,146.544 150.035 C 143.637 147.475,142.278 147.200,132.551 147.200 C 124.215 147.200,124.033 147.182,123.423 146.311 C 122.461 144.938,122.496 125.951,123.461 125.149 C 123.998 124.703,127.869 124.579,144.012 124.486 C 162.388 124.381,163.950 124.318,164.537 123.669 C 165.091 123.057,165.188 120.937,165.286 107.144 C 165.378 94.449,165.508 91.191,165.949 90.661 C 166.668 89.796,185.323 89.645,185.876 90.500 M191.000 148.665 C 189.001 148.780,188.057 149.016,187.700 149.490 C 187.051 150.351,186.969 188.421,187.614 189.626 C 188.002 190.352,188.528 190.400,196.049 190.400 C 222.923 190.400,235.697 183.644,235.757 169.400 C 235.819 154.429,219.778 146.998,191.000 148.665 M193.284 211.957 C 189.410 212.134,187.877 212.349,187.629 212.751 C 186.623 214.384,186.587 256.183,187.591 257.390 C 188.141 258.052,189.015 258.087,200.191 257.883 C 218.145 257.557,227.857 255.722,235.614 251.192 C 249.268 243.218,248.834 225.112,234.811 217.638 C 226.513 213.215,211.295 211.133,193.284 211.957 M90.000 328.464 C 103.182 339.507,117.922 348.807,131.400 354.585 C 133.820 355.622,136.430 356.747,137.200 357.084 C 159.167 366.706,196.753 371.646,220.200 367.992 C 221.520 367.786,223.950 367.418,225.600 367.174 C 235.695 365.681,246.910 362.786,257.800 358.862 C 265.745 356.000,276.482 351.098,282.000 347.814 C 290.515 342.748,292.941 341.247,295.537 339.442 C 299.076 336.982,312.184 326.673,312.572 326.045 C 313.310 324.851,314.722 325.786,319.867 330.881 C 325.942 336.896,326.054 337.165,323.500 339.530 C 316.965 345.581,306.795 353.055,295.800 359.887 C 291.044 362.842,276.618 370.400,275.733 370.400 C 275.616 370.400,274.954 370.655,274.260 370.967 C 248.174 382.706,218.069 387.879,186.800 385.995 C 175.623 385.322,160.364 382.759,150.600 379.916 C 145.215 378.347,133.594 374.369,129.713 372.767 C 127.561 371.877,125.080 370.856,124.200 370.496 C 114.199 366.410,95.482 355.183,86.000 347.582 C 72.223 336.539,72.632 337.794,80.367 330.298 C 86.074 324.767,85.678 324.842,90.000 328.464 M307.934 371.069 C 307.568 371.166,307.168 371.506,307.046 371.824 C 306.866 372.295,307.009 372.282,307.812 371.755 C 308.588 371.247,309.211 370.609,308.700 370.846 C 308.645 370.872,308.300 370.972,307.934 371.069 M118.349 385.700 C 118.651 386.085,119.056 386.400,119.249 386.400 C 119.442 386.400,119.586 386.085,119.568 385.700 C 119.548 385.255,119.461 385.188,119.330 385.517 C 119.160 385.939,119.001 385.939,118.461 385.517 C 117.870 385.055,117.858 385.075,118.349 385.700 " stroke="none" fill="#fbfbfb" fill-rule="evenodd"></path></g></svg>