<svg id="svg" version="1.1" xmlns="http://www.w3.org/2000/svg" xmlns:xlink="http://www.w3.org/1999/xlink" width="400" height="400" viewBox="0, 0, 400,400"><g id="svgg"><path id="path0" d="M151.600 60.051 C 150.390 60.488,148.650 61.093,147.734 61.394 C 146.817 61.695,144.747 62.507,143.134 63.199 C 141.520 63.890,138.850 65.020,137.200 65.710 C 135.550 66.399,133.930 67.168,133.600 67.419 C 133.270 67.670,132.266 68.160,131.369 68.507 C 128.890 69.466,117.802 76.043,114.282 78.642 C 113.357 79.325,110.801 81.210,108.602 82.831 C 100.205 89.019,89.244 99.541,83.000 107.407 C 82.340 108.238,81.214 109.657,80.497 110.559 C 79.781 111.462,78.977 112.459,78.711 112.776 C 78.297 113.268,76.130 116.413,73.732 120.000 C 73.145 120.878,71.590 123.343,70.074 125.800 C 69.802 126.240,69.219 127.358,68.779 128.283 C 68.338 129.209,67.812 130.069,67.610 130.194 C 67.231 130.428,64.000 136.863,64.000 137.384 C 64.000 137.545,63.665 138.154,63.256 138.738 C 62.846 139.322,62.286 140.520,62.011 141.400 C 61.736 142.280,61.288 143.360,61.016 143.800 C 60.744 144.240,60.294 145.320,60.017 146.200 C 59.739 147.080,59.102 148.790,58.601 150.000 C 57.742 152.075,56.444 156.063,54.239 163.400 C 53.710 165.160,53.155 167.500,53.004 168.600 C 52.854 169.700,52.395 171.860,51.984 173.400 C 49.464 182.851,48.506 206.591,50.146 219.000 C 51.377 228.321,51.673 230.188,52.018 230.833 C 52.209 231.191,52.558 232.725,52.793 234.242 C 53.283 237.413,54.887 243.588,56.055 246.800 C 56.495 248.010,57.089 249.826,57.375 250.836 C 58.201 253.759,60.681 260.011,62.834 264.600 C 63.453 265.920,64.240 267.630,64.583 268.400 C 64.926 269.170,65.732 270.700,66.374 271.800 C 67.017 272.900,68.014 274.700,68.591 275.800 C 70.328 279.111,71.096 280.421,71.715 281.128 C 72.039 281.497,72.621 282.430,73.008 283.200 C 73.396 283.970,74.092 285.081,74.556 285.669 C 75.020 286.258,76.390 288.118,77.600 289.803 C 83.171 297.563,90.325 305.629,97.200 311.901 C 103.772 317.896,103.737 317.866,106.464 319.927 C 110.537 323.004,114.418 325.683,122.022 330.668 C 122.803 331.181,123.634 331.600,123.868 331.600 C 124.101 331.600,124.721 331.933,125.246 332.339 C 127.788 334.308,141.417 340.726,147.600 342.867 C 156.206 345.845,157.728 345.883,160.172 343.179 L 161.600 341.598 161.600 333.225 C 161.600 328.620,161.422 324.384,161.204 323.811 C 160.508 321.981,157.068 318.902,155.147 318.392 C 154.186 318.136,152.860 317.604,152.200 317.209 C 151.540 316.814,150.550 316.362,150.000 316.205 C 148.886 315.886,145.143 314.200,143.600 313.322 C 143.050 313.009,141.700 312.307,140.600 311.761 C 139.500 311.216,137.610 310.152,136.400 309.398 C 135.190 308.643,133.750 307.803,133.200 307.530 C 132.650 307.258,131.544 306.532,130.742 305.918 C 129.941 305.303,129.181 304.800,129.053 304.800 C 126.138 304.800,102.126 281.596,99.173 275.925 C 98.908 275.416,98.401 274.698,98.046 274.329 C 97.691 273.961,96.989 273.061,96.488 272.329 C 95.986 271.598,95.139 270.370,94.605 269.600 C 94.072 268.830,93.294 267.570,92.878 266.800 C 92.462 266.030,91.476 264.280,90.689 262.911 C 88.606 259.293,84.842 251.446,83.963 248.891 C 83.545 247.679,83.042 246.487,82.844 246.244 C 82.356 245.642,80.220 239.119,79.621 236.400 C 79.354 235.190,78.863 233.480,78.530 232.600 C 78.196 231.720,77.591 229.064,77.184 226.698 C 76.777 224.331,76.350 222.243,76.235 222.057 C 75.290 220.528,74.655 200.324,75.265 191.200 C 75.667 185.180,77.189 176.267,78.646 171.400 C 79.173 169.640,79.602 168.020,79.600 167.800 C 79.591 166.979,82.560 158.177,83.039 157.600 C 83.313 157.270,83.665 156.460,83.822 155.800 C 84.104 154.609,88.423 145.150,89.210 144.000 C 89.436 143.670,90.078 142.500,90.636 141.400 C 91.562 139.578,92.369 138.253,94.564 134.950 C 94.984 134.317,95.792 133.080,96.358 132.200 C 97.890 129.820,99.432 127.803,103.400 122.984 C 109.693 115.341,119.032 106.581,126.400 101.410 C 127.170 100.870,128.520 99.894,129.400 99.242 C 130.824 98.188,132.740 96.990,136.600 94.740 C 137.260 94.355,138.700 93.578,139.800 93.013 C 140.900 92.448,142.970 91.347,144.400 90.566 C 145.830 89.785,147.900 88.812,149.000 88.404 C 151.458 87.492,155.766 85.604,157.457 84.698 C 158.148 84.327,159.318 83.261,160.057 82.329 L 161.400 80.634 161.521 71.773 L 161.642 62.911 160.573 61.641 C 158.408 59.068,155.665 58.582,151.600 60.051 M239.365 59.956 C 236.389 61.771,236.345 61.953,236.479 71.780 L 236.600 80.600 237.726 82.200 C 238.913 83.886,241.449 85.416,246.015 87.200 C 253.260 90.031,265.591 96.911,271.800 101.586 C 272.680 102.249,273.853 103.108,274.407 103.495 C 278.529 106.379,289.927 117.361,294.405 122.765 C 295.392 123.956,296.668 125.486,297.240 126.165 C 299.081 128.351,303.278 134.534,304.781 137.273 C 305.225 138.083,305.737 138.838,305.919 138.950 C 306.101 139.063,307.562 141.820,309.166 145.077 C 310.770 148.335,312.417 151.656,312.828 152.457 C 313.238 153.258,313.868 154.698,314.227 155.657 C 317.575 164.592,319.104 169.674,320.410 176.200 C 320.806 178.180,321.321 180.520,321.554 181.400 C 323.322 188.080,323.327 218.090,321.561 222.691 C 321.327 223.301,320.882 225.358,320.572 227.262 C 320.262 229.167,319.822 231.217,319.593 231.819 C 319.364 232.420,318.829 234.372,318.404 236.156 C 317.600 239.535,315.969 244.534,314.998 246.600 C 314.688 247.260,313.784 249.330,312.989 251.200 C 310.007 258.217,303.787 269.603,301.600 272.048 C 301.270 272.417,300.550 273.384,300.000 274.197 C 294.960 281.647,280.733 296.551,274.947 300.443 C 274.316 300.868,272.450 302.196,270.800 303.396 C 265.031 307.591,252.252 314.819,248.467 316.028 C 247.660 316.286,246.460 316.816,245.800 317.205 C 245.140 317.595,244.054 318.029,243.387 318.169 C 241.692 318.527,239.077 320.342,237.626 322.168 L 236.400 323.710 236.400 332.654 L 236.400 341.598 237.828 343.179 C 239.465 344.990,241.761 345.590,244.308 344.873 C 246.196 344.341,252.740 342.101,253.800 341.624 C 254.240 341.426,256.310 340.518,258.400 339.607 C 262.700 337.733,264.334 336.970,265.200 336.433 C 265.530 336.229,267.101 335.415,268.692 334.624 C 270.282 333.834,272.242 332.740,273.047 332.194 C 273.853 331.647,274.674 331.200,274.872 331.200 C 275.070 331.200,275.720 330.871,276.316 330.469 C 276.912 330.067,278.840 328.778,280.600 327.604 C 285.973 324.022,288.971 321.938,289.600 321.346 C 289.930 321.036,290.920 320.233,291.800 319.562 C 301.012 312.543,311.958 301.290,319.195 291.400 C 319.839 290.520,320.835 289.170,321.408 288.400 C 323.452 285.654,328.865 277.049,329.837 275.000 C 330.150 274.340,330.933 272.900,331.576 271.800 C 333.536 268.450,337.251 260.314,338.426 256.800 C 338.830 255.590,339.729 253.070,340.424 251.200 C 341.721 247.708,343.559 241.400,344.620 236.800 C 344.950 235.370,345.507 232.958,345.858 231.440 C 346.209 229.923,346.844 225.873,347.268 222.440 C 347.693 219.008,348.203 214.940,348.403 213.400 C 349.002 208.763,348.871 194.578,348.179 189.320 C 347.838 186.724,347.301 182.440,346.987 179.800 C 346.673 177.160,346.231 174.370,346.004 173.600 C 345.777 172.830,345.406 171.030,345.179 169.600 C 344.953 168.170,344.304 165.470,343.738 163.600 C 341.405 155.900,339.538 150.207,339.218 149.816 C 339.031 149.587,338.663 148.590,338.400 147.600 C 338.136 146.610,337.382 144.630,336.722 143.200 C 336.063 141.770,335.078 139.610,334.534 138.400 C 333.990 137.190,333.293 135.750,332.987 135.200 C 332.680 134.650,331.972 133.300,331.413 132.200 C 330.854 131.100,329.872 129.300,329.232 128.200 C 328.591 127.100,327.605 125.358,327.041 124.328 C 326.477 123.299,325.821 122.336,325.583 122.189 C 325.345 122.043,324.977 121.535,324.765 121.061 C 324.553 120.588,323.936 119.570,323.393 118.800 C 322.851 118.030,321.551 116.176,320.504 114.679 C 318.682 112.075,315.874 108.502,312.273 104.203 C 309.506 100.900,300.066 91.588,295.849 88.002 C 291.650 84.431,285.224 79.624,281.237 77.072 C 280.488 76.593,279.138 75.716,278.237 75.124 C 276.372 73.898,272.775 71.795,271.000 70.893 C 270.340 70.557,269.521 70.044,269.180 69.752 C 268.839 69.460,267.768 68.942,266.800 68.600 C 265.832 68.258,264.761 67.746,264.420 67.462 C 264.079 67.177,263.080 66.660,262.200 66.311 C 261.320 65.963,259.070 65.019,257.200 64.213 C 246.673 59.677,241.749 58.502,239.365 59.956 M189.507 103.224 C 186.783 104.662,186.625 105.347,186.400 116.659 C 186.170 128.223,186.118 128.400,182.971 128.400 C 182.034 128.400,180.478 128.738,179.514 129.151 C 178.550 129.564,177.018 130.028,176.110 130.181 C 170.346 131.155,157.898 139.459,153.985 144.940 C 153.223 146.007,152.217 147.357,151.749 147.940 C 146.408 154.591,143.775 172.784,146.905 181.400 C 147.225 182.280,147.805 183.958,148.194 185.128 C 149.873 190.185,155.001 196.983,159.240 199.773 C 160.098 200.338,161.531 201.282,162.424 201.871 C 164.881 203.491,172.803 206.720,177.600 208.056 C 182.388 209.389,194.809 211.769,199.400 212.232 C 204.587 212.756,215.925 216.250,219.166 218.324 C 231.644 226.306,229.558 245.453,215.437 252.546 C 201.332 259.631,180.361 256.112,173.384 245.489 C 172.774 244.560,171.973 243.350,171.603 242.800 C 171.234 242.250,170.268 239.688,169.456 237.107 C 167.169 229.829,166.605 229.463,157.406 229.262 C 144.324 228.977,140.577 231.052,142.380 237.584 C 142.656 238.583,143.131 240.570,143.436 242.000 C 144.441 246.710,148.938 255.724,151.804 258.773 C 152.127 259.118,153.006 260.081,153.755 260.913 C 156.280 263.714,161.279 267.555,164.551 269.206 C 166.338 270.108,168.070 271.009,168.400 271.210 C 169.750 272.029,174.494 273.657,177.643 274.381 C 187.406 276.625,186.400 275.134,186.400 287.356 L 186.400 297.414 187.426 298.925 C 189.409 301.843,191.746 302.494,199.546 302.302 C 211.215 302.016,211.600 301.538,211.600 287.336 C 211.600 276.350,211.617 276.265,213.928 275.773 C 214.518 275.647,215.369 275.397,215.820 275.217 C 216.271 275.037,217.704 274.669,219.005 274.399 C 224.585 273.241,234.455 268.133,238.800 264.156 C 241.410 261.767,244.426 258.492,246.118 256.210 C 247.110 254.872,249.600 250.802,249.600 250.519 C 249.600 250.417,250.125 249.134,250.768 247.667 C 253.040 242.476,253.754 238.530,253.749 231.200 C 253.736 212.082,245.967 200.821,227.964 193.821 C 222.395 191.656,210.286 188.968,200.973 187.830 C 198.317 187.505,195.347 186.981,194.373 186.666 C 193.398 186.350,191.496 185.886,190.146 185.635 C 180.036 183.752,173.577 178.728,172.372 171.810 C 170.311 159.975,175.550 152.132,187.800 148.713 C 189.871 148.135,203.238 148.131,205.600 148.708 C 215.033 151.011,220.043 155.572,223.384 164.897 C 224.915 169.170,227.478 170.119,236.962 169.924 C 247.064 169.716,250.674 166.867,248.362 160.926 C 248.121 160.307,247.664 158.820,247.347 157.623 C 247.029 156.426,246.622 155.256,246.442 155.023 C 246.261 154.790,245.844 153.790,245.514 152.800 C 245.184 151.810,244.484 150.336,243.957 149.525 C 243.431 148.714,242.550 147.288,242.000 146.357 C 241.027 144.710,233.821 137.200,233.214 137.200 C 233.047 137.200,232.239 136.666,231.418 136.014 C 229.369 134.386,222.177 130.935,219.336 130.217 C 210.740 128.045,211.600 129.473,211.600 117.365 C 211.600 102.380,211.608 102.389,198.929 102.418 C 191.832 102.434,190.843 102.518,189.507 103.224 " stroke="none" fill="#f7f9fb" fill-rule="evenodd"></path><path id="path1" d="M165.600 0.600 C 165.600 1.094,164.875 1.201,161.500 1.206 C 157.075 1.213,156.654 1.332,156.227 2.700 C 155.965 3.540,155.722 3.600,152.555 3.600 C 149.471 3.600,149.073 3.691,148.164 4.600 C 147.296 5.467,146.807 5.600,144.482 5.602 C 141.062 5.605,138.920 6.191,138.596 7.212 C 138.388 7.869,137.983 8.000,136.173 8.000 C 134.122 8.000,134.000 8.056,134.000 9.000 C 134.000 9.970,133.918 10.000,131.233 10.000 C 127.834 10.000,127.200 10.224,127.200 11.426 C 127.200 12.322,127.054 12.372,124.100 12.483 C 121.231 12.591,120.990 12.667,120.872 13.500 C 120.760 14.288,120.510 14.400,118.852 14.400 C 116.849 14.400,116.000 14.900,116.000 16.080 C 116.000 16.677,115.660 16.800,114.008 16.800 C 112.227 16.800,111.989 16.904,111.769 17.780 C 111.553 18.640,111.270 18.776,109.462 18.880 C 107.544 18.992,107.391 19.077,107.273 20.100 C 107.155 21.134,107.028 21.200,105.181 21.200 C 103.418 21.200,103.189 21.303,102.964 22.200 C 102.746 23.068,102.491 23.200,101.037 23.200 C 99.234 23.200,98.400 23.732,98.400 24.880 C 98.400 25.376,98.097 25.600,97.426 25.600 C 95.964 25.600,94.400 26.305,94.400 26.964 C 94.400 27.303,93.939 27.600,93.300 27.673 C 92.442 27.772,92.173 28.037,92.075 28.880 C 91.960 29.880,91.797 29.969,89.875 30.080 C 88.089 30.183,87.783 30.322,87.675 31.076 C 87.588 31.689,87.228 31.989,86.475 32.076 C 85.638 32.173,85.372 32.443,85.273 33.300 C 85.158 34.307,85.003 34.400,83.453 34.400 C 81.649 34.400,80.800 34.929,80.800 36.053 C 80.800 36.513,80.428 36.790,79.700 36.873 C 78.912 36.964,78.564 37.256,78.472 37.900 C 78.380 38.551,78.076 38.800,77.372 38.800 C 76.559 38.800,76.400 38.996,76.400 40.000 C 76.400 41.173,76.355 41.200,74.408 41.200 C 72.616 41.200,72.390 41.301,72.164 42.200 C 71.983 42.922,71.644 43.200,70.947 43.200 C 70.193 43.200,69.927 43.464,69.740 44.400 C 69.554 45.329,69.286 45.600,68.550 45.600 C 67.810 45.600,67.600 45.815,67.600 46.573 C 67.600 47.338,67.364 47.574,66.500 47.673 C 65.636 47.773,65.373 48.036,65.273 48.900 C 65.174 49.764,64.938 50.000,64.173 50.000 C 63.409 50.000,63.200 50.209,63.200 50.973 C 63.200 51.738,62.964 51.974,62.100 52.073 C 61.250 52.171,60.972 52.439,60.878 53.252 C 60.776 54.132,60.505 54.345,59.226 54.549 C 58.206 54.713,57.477 55.129,57.039 55.797 C 56.677 56.349,56.122 56.800,55.805 56.800 C 55.043 56.800,54.400 58.057,54.400 59.547 C 54.400 60.559,54.227 60.767,53.300 60.873 C 52.436 60.973,52.173 61.236,52.073 62.100 C 51.974 62.964,51.738 63.200,50.973 63.200 C 50.209 63.200,50.000 63.409,50.000 64.173 C 50.000 64.938,49.764 65.174,48.900 65.273 C 48.036 65.373,47.773 65.636,47.673 66.500 C 47.574 67.364,47.338 67.600,46.573 67.600 C 45.809 67.600,45.600 67.809,45.600 68.573 C 45.600 69.338,45.364 69.574,44.500 69.673 C 43.643 69.772,43.373 70.038,43.276 70.875 C 43.189 71.628,42.889 71.988,42.276 72.075 C 41.652 72.164,41.363 72.523,41.271 73.324 C 41.200 73.942,40.615 74.952,39.971 75.567 C 39.327 76.183,38.800 77.072,38.800 77.543 C 38.800 78.190,38.555 78.400,37.800 78.400 C 36.961 78.400,36.800 78.588,36.800 79.573 C 36.800 80.556,36.621 80.767,35.700 80.873 C 34.674 80.991,34.592 81.141,34.479 83.100 C 34.362 85.131,34.319 85.200,33.179 85.200 C 32.136 85.200,32.000 85.338,32.000 86.400 C 32.000 87.413,31.844 87.600,31.000 87.600 C 30.138 87.600,30.000 87.780,30.000 88.904 C 30.000 89.867,29.685 90.469,28.800 91.200 C 28.133 91.751,27.600 92.581,27.600 93.068 C 27.600 93.672,27.321 93.984,26.700 94.072 C 25.918 94.183,25.784 94.471,25.680 96.275 C 25.569 98.197,25.480 98.360,24.480 98.475 C 23.586 98.579,23.378 98.823,23.275 99.900 C 23.196 100.716,22.932 101.200,22.565 101.200 C 21.913 101.200,21.200 102.757,21.200 104.179 C 21.200 104.768,20.910 105.183,20.405 105.315 C 19.563 105.535,18.800 107.065,18.800 108.531 C 18.800 109.059,18.441 109.568,17.900 109.805 C 17.181 110.121,16.976 110.578,16.879 112.080 C 16.784 113.548,16.582 114.015,15.956 114.214 C 15.037 114.506,14.400 115.911,14.400 117.645 C 14.400 118.404,14.036 119.176,13.400 119.765 C 12.589 120.517,12.400 121.071,12.400 122.703 C 12.400 124.487,12.293 124.740,11.448 124.952 C 10.407 125.213,10.014 126.180,10.005 128.500 C 10.002 129.575,9.827 130.000,9.390 130.000 C 8.461 130.000,8.000 131.724,8.000 135.199 C 8.000 138.336,7.996 138.347,6.900 138.473 C 5.819 138.598,5.798 138.652,5.684 141.661 C 5.575 144.535,5.508 144.736,4.584 144.968 C 3.632 145.207,3.600 145.329,3.600 148.742 C 3.600 152.155,3.562 152.302,2.400 153.337 L 1.200 154.406 1.200 159.603 C 1.200 163.956,1.103 164.800,0.600 164.800 C 0.071 164.800,0.000 168.978,0.000 200.000 C 0.000 231.022,0.071 235.200,0.600 235.200 C 1.103 235.200,1.200 236.058,1.200 240.525 L 1.200 245.850 2.385 246.726 C 3.531 247.573,3.574 247.722,3.685 251.301 C 3.794 254.792,3.851 255.007,4.700 255.128 C 5.539 255.247,5.600 255.453,5.600 258.148 C 5.600 261.110,5.979 262.000,7.240 262.000 C 7.821 262.000,7.941 262.536,8.060 265.651 C 8.185 268.912,8.296 269.367,9.100 269.900 C 9.802 270.366,10.000 270.877,10.000 272.220 C 10.000 273.981,10.748 275.200,11.829 275.200 C 12.254 275.200,12.400 275.756,12.400 277.371 C 12.400 279.210,12.553 279.662,13.400 280.329 C 13.987 280.790,14.400 281.525,14.400 282.108 C 14.400 284.342,14.891 285.608,15.851 285.849 C 16.687 286.058,16.800 286.318,16.800 288.036 C 16.800 289.743,16.916 290.014,17.731 290.219 C 18.488 290.408,18.732 290.842,19.031 292.526 C 19.328 294.193,19.567 294.624,20.250 294.721 C 20.918 294.817,21.149 295.202,21.325 296.517 C 21.455 297.488,21.881 298.460,22.338 298.831 C 22.772 299.182,23.189 299.904,23.264 300.435 C 23.364 301.143,23.688 301.433,24.480 301.525 C 25.480 301.640,25.569 301.803,25.680 303.725 C 25.784 305.529,25.918 305.817,26.700 305.928 C 27.328 306.017,27.600 306.327,27.600 306.953 C 27.600 307.447,28.130 308.359,28.779 308.980 C 29.483 309.654,30.006 310.611,30.079 311.354 C 30.170 312.296,30.420 312.631,31.100 312.728 C 31.751 312.820,32.000 313.124,32.000 313.828 C 32.000 314.638,32.197 314.800,33.179 314.800 C 34.319 314.800,34.362 314.869,34.479 316.900 C 34.592 318.859,34.674 319.009,35.700 319.127 C 36.621 319.233,36.800 319.444,36.800 320.427 C 36.800 321.412,36.961 321.600,37.800 321.600 C 38.555 321.600,38.800 321.810,38.800 322.457 C 38.800 322.928,39.340 323.829,40.000 324.460 C 40.810 325.235,41.200 325.996,41.200 326.803 C 41.200 327.804,41.359 328.000,42.173 328.000 C 42.938 328.000,43.174 328.236,43.273 329.100 C 43.373 329.964,43.636 330.227,44.500 330.327 C 45.364 330.426,45.600 330.662,45.600 331.427 C 45.600 332.198,45.807 332.400,46.600 332.400 C 47.444 332.400,47.600 332.587,47.600 333.600 C 47.600 334.667,47.733 334.800,48.800 334.800 C 49.867 334.800,50.000 334.933,50.000 336.000 C 50.000 337.013,50.156 337.200,51.000 337.200 C 51.800 337.200,52.000 337.400,52.000 338.200 C 52.000 339.040,52.188 339.200,53.177 339.200 C 54.275 339.200,54.362 339.314,54.477 340.891 C 54.569 342.150,54.820 342.690,55.464 343.009 C 55.939 343.245,56.866 344.014,57.524 344.719 C 58.277 345.525,59.107 346.000,59.760 346.000 C 60.603 346.000,60.800 346.190,60.800 347.000 C 60.800 347.844,60.987 348.000,62.000 348.000 C 63.067 348.000,63.200 348.133,63.200 349.200 C 63.200 350.213,63.356 350.400,64.200 350.400 C 65.000 350.400,65.200 350.600,65.200 351.400 C 65.200 352.239,65.388 352.400,66.373 352.400 C 67.356 352.400,67.567 352.579,67.673 353.500 C 67.763 354.277,68.057 354.637,68.675 354.725 C 69.221 354.802,69.598 355.179,69.675 355.725 C 69.763 356.343,70.123 356.637,70.900 356.727 C 71.682 356.817,72.000 357.079,72.000 357.636 C 72.000 358.520,73.404 359.200,75.226 359.200 C 76.212 359.200,76.400 359.360,76.400 360.200 C 76.400 361.000,76.600 361.200,77.400 361.200 C 78.203 361.200,78.400 361.399,78.400 362.210 C 78.400 363.008,78.647 363.269,79.578 363.456 C 80.381 363.616,80.795 363.963,80.878 364.546 C 80.982 365.275,81.306 365.418,83.100 365.521 C 85.131 365.638,85.200 365.681,85.200 366.821 C 85.200 367.864,85.338 368.000,86.400 368.000 C 87.413 368.000,87.600 368.156,87.600 369.000 C 87.600 369.945,87.720 370.000,89.800 370.000 C 91.978 370.000,92.000 370.012,92.000 371.200 C 92.000 372.267,92.133 372.400,93.200 372.400 C 93.987 372.400,94.400 372.602,94.400 372.986 C 94.400 373.752,95.648 374.400,97.124 374.400 C 98.111 374.400,98.339 374.593,98.540 375.600 C 98.768 376.742,98.877 376.800,100.790 376.800 C 102.459 376.800,102.800 376.922,102.800 377.520 C 102.800 378.671,103.635 379.200,105.452 379.200 C 106.902 379.200,107.163 379.329,107.272 380.100 C 107.384 380.884,107.671 381.016,109.500 381.121 C 111.186 381.218,111.600 381.380,111.600 381.941 C 111.600 383.069,112.445 383.600,114.237 383.600 C 115.691 383.600,115.946 383.732,116.164 384.600 C 116.394 385.515,116.603 385.600,118.608 385.600 C 120.647 385.600,120.800 385.666,120.800 386.548 C 120.800 387.585,122.096 387.987,125.472 387.996 C 126.900 387.999,127.163 388.131,127.272 388.900 C 127.391 389.738,127.624 389.808,130.675 389.916 C 133.906 390.030,133.952 390.046,134.075 391.116 C 134.190 392.114,134.358 392.209,136.200 392.320 C 137.699 392.409,138.369 392.660,138.877 393.320 C 139.475 394.097,139.999 394.216,143.376 394.339 C 146.952 394.468,147.278 394.552,148.441 395.639 C 149.592 396.713,149.916 396.800,152.778 396.800 C 155.690 396.800,155.898 396.859,156.327 397.800 C 156.773 398.779,156.877 398.800,161.191 398.800 C 164.843 398.800,165.600 398.903,165.600 399.400 C 165.600 399.929,169.578 400.000,199.000 400.000 C 228.422 400.000,232.400 399.929,232.400 399.400 C 232.400 398.903,233.157 398.800,236.809 398.800 C 241.123 398.800,241.227 398.779,241.673 397.800 C 242.102 396.859,242.310 396.800,245.222 396.800 C 248.107 396.800,248.402 396.719,249.600 395.600 C 250.801 394.478,251.089 394.400,254.016 394.400 C 257.453 394.400,259.200 393.938,259.200 393.030 C 259.200 392.592,259.794 392.409,261.500 392.320 C 263.677 392.206,263.807 392.141,263.927 391.100 C 264.053 390.003,264.063 390.000,267.219 390.000 C 270.262 390.000,270.394 389.961,270.636 389.000 C 270.861 388.103,271.098 387.996,272.943 387.960 C 275.868 387.903,276.978 387.517,277.125 386.504 C 277.232 385.765,277.550 385.623,279.325 385.520 C 281.114 385.417,281.417 385.279,281.525 384.520 C 281.633 383.761,281.937 383.624,283.725 383.520 C 285.647 383.409,285.809 383.320,285.925 382.319 C 286.042 381.303,286.185 381.231,288.325 381.119 C 290.337 381.014,290.615 380.896,290.728 380.100 C 290.837 379.329,291.098 379.200,292.548 379.200 C 294.365 379.200,295.200 378.671,295.200 377.520 C 295.200 376.922,295.541 376.800,297.210 376.800 C 299.123 376.800,299.232 376.742,299.460 375.600 C 299.661 374.593,299.889 374.400,300.876 374.400 C 302.352 374.400,303.600 373.752,303.600 372.986 C 303.600 372.602,304.013 372.400,304.800 372.400 C 305.867 372.400,306.000 372.267,306.000 371.200 C 306.000 370.012,306.022 370.000,308.200 370.000 C 310.264 370.000,310.400 369.940,310.400 369.027 C 310.400 368.262,310.636 368.026,311.500 367.927 C 312.364 367.827,312.627 367.564,312.727 366.700 C 312.845 365.669,312.975 365.600,314.783 365.600 C 316.494 365.600,316.741 365.489,316.957 364.628 C 317.110 364.021,317.540 363.607,318.101 363.528 C 318.744 363.436,319.036 363.087,319.127 362.300 C 319.233 361.379,319.444 361.200,320.427 361.200 C 321.412 361.200,321.600 361.039,321.600 360.200 C 321.600 359.360,321.788 359.200,322.774 359.200 C 324.623 359.200,326.000 358.521,326.000 357.610 C 326.000 357.013,326.263 356.800,327.000 356.800 C 327.793 356.800,328.000 356.598,328.000 355.827 C 328.000 355.062,328.236 354.826,329.100 354.727 C 329.964 354.627,330.227 354.364,330.327 353.500 C 330.426 352.636,330.662 352.400,331.427 352.400 C 332.198 352.400,332.400 352.193,332.400 351.400 C 332.400 350.556,332.587 350.400,333.600 350.400 C 334.667 350.400,334.800 350.267,334.800 349.200 C 334.800 348.133,334.933 348.000,336.000 348.000 C 337.013 348.000,337.200 347.844,337.200 347.000 C 337.200 346.205,337.401 346.000,338.181 346.000 C 338.776 346.000,339.696 345.450,340.521 344.600 C 341.269 343.830,342.092 343.200,342.350 343.200 C 342.912 343.200,343.600 341.533,343.600 340.174 C 343.600 339.358,343.795 339.200,344.800 339.200 C 345.813 339.200,346.000 339.044,346.000 338.200 C 346.000 337.400,346.200 337.200,347.000 337.200 C 347.839 337.200,348.000 337.012,348.000 336.027 C 348.000 335.044,348.179 334.833,349.100 334.727 C 349.964 334.627,350.227 334.364,350.327 333.500 C 350.426 332.636,350.662 332.400,351.427 332.400 C 352.191 332.400,352.400 332.191,352.400 331.427 C 352.400 330.662,352.636 330.426,353.500 330.327 C 354.364 330.227,354.627 329.964,354.727 329.100 C 354.826 328.236,355.062 328.000,355.827 328.000 C 356.641 328.000,356.800 327.804,356.800 326.803 C 356.800 325.996,357.190 325.235,358.000 324.460 C 358.660 323.829,359.200 322.928,359.200 322.457 C 359.200 321.810,359.445 321.600,360.200 321.600 C 361.044 321.600,361.200 321.413,361.200 320.400 C 361.200 319.401,361.360 319.200,362.157 319.200 C 363.267 319.200,363.600 318.547,363.600 316.367 C 363.600 314.962,363.703 314.800,364.600 314.800 C 365.393 314.800,365.600 314.598,365.600 313.827 C 365.600 313.062,365.836 312.826,366.700 312.727 C 367.591 312.624,367.838 312.358,368.000 311.325 C 368.110 310.624,368.605 309.587,369.100 309.022 C 369.595 308.457,370.000 307.557,370.000 307.024 C 370.000 306.262,370.237 306.026,371.100 305.927 C 372.126 305.809,372.208 305.659,372.321 303.700 C 372.432 301.772,372.522 301.600,373.421 301.600 C 374.233 301.600,374.400 301.404,374.400 300.447 C 374.400 299.632,374.634 299.232,375.195 299.085 C 376.057 298.860,376.800 297.327,376.800 295.774 C 376.800 295.083,377.021 294.800,377.561 294.800 C 378.352 294.800,379.200 293.060,379.200 291.435 C 379.200 290.942,379.575 290.425,380.100 290.195 C 380.817 289.880,381.024 289.421,381.120 287.938 C 381.222 286.374,381.389 286.039,382.169 285.843 C 383.104 285.609,383.600 284.323,383.600 282.131 C 383.600 281.598,384.050 280.745,384.600 280.235 C 385.417 279.478,385.600 278.931,385.600 277.254 C 385.600 275.741,385.750 275.200,386.171 275.200 C 387.259 275.200,388.000 273.981,388.000 272.191 C 388.000 271.142,388.217 270.311,388.542 270.120 C 389.578 269.508,390.000 268.034,390.000 265.026 C 390.000 262.379,390.090 262.000,390.720 262.000 C 392.023 262.000,392.400 261.135,392.400 258.148 C 392.400 255.453,392.461 255.247,393.300 255.128 C 394.149 255.007,394.206 254.791,394.315 251.317 C 394.423 247.852,394.494 247.585,395.515 246.782 C 396.585 245.942,396.602 245.853,396.731 240.589 C 396.856 235.457,396.895 235.243,397.731 235.124 L 398.600 235.000 398.600 200.000 L 398.600 165.000 397.731 164.876 C 396.899 164.758,396.857 164.536,396.731 159.601 C 396.604 154.608,396.566 154.415,395.500 153.303 C 394.482 152.242,394.400 151.910,394.400 148.870 C 394.400 145.766,394.345 145.558,393.416 145.134 C 392.513 144.723,392.422 144.434,392.316 141.643 C 392.202 138.653,392.181 138.598,391.100 138.473 L 390.000 138.347 390.000 134.955 C 390.000 131.871,389.909 131.473,389.000 130.564 C 388.353 129.917,387.998 129.111,387.995 128.282 C 387.986 126.180,387.563 125.206,386.552 124.952 C 385.717 124.743,385.600 124.481,385.600 122.815 C 385.600 121.345,385.375 120.674,384.600 119.838 C 384.014 119.206,383.600 118.281,383.600 117.605 C 383.600 115.908,382.955 114.503,382.044 114.214 C 381.418 114.015,381.216 113.548,381.121 112.080 C 381.024 110.578,380.819 110.121,380.100 109.805 C 379.559 109.568,379.200 109.059,379.200 108.531 C 379.200 107.065,378.437 105.535,377.595 105.315 C 377.090 105.183,376.800 104.768,376.800 104.179 C 376.800 102.683,376.122 101.325,375.262 101.100 C 374.744 100.965,374.416 100.487,374.331 99.746 C 374.237 98.921,373.953 98.565,373.320 98.475 C 372.561 98.367,372.424 98.063,372.320 96.275 C 372.208 94.343,372.124 94.191,371.100 94.073 C 370.251 93.976,370.000 93.734,370.000 93.015 C 370.000 92.503,369.553 91.660,369.007 91.142 C 368.351 90.520,368.011 89.758,368.007 88.900 C 368.001 87.724,367.886 87.600,366.800 87.600 C 365.733 87.600,365.600 87.467,365.600 86.400 C 365.600 85.387,365.444 85.200,364.600 85.200 C 363.703 85.200,363.600 85.038,363.600 83.633 C 363.600 81.453,363.267 80.800,362.157 80.800 C 361.360 80.800,361.200 80.599,361.200 79.600 C 361.200 78.587,361.044 78.400,360.200 78.400 C 359.461 78.400,359.200 78.188,359.200 77.587 C 359.200 77.139,358.674 76.259,358.031 75.630 C 357.388 75.001,356.803 73.973,356.731 73.344 C 356.636 72.512,356.354 72.165,355.700 72.072 C 355.163 71.996,354.800 71.665,354.800 71.252 C 354.800 70.356,354.032 69.600,353.120 69.600 C 352.619 69.600,352.400 69.296,352.400 68.600 C 352.400 67.807,352.198 67.600,351.427 67.600 C 350.662 67.600,350.426 67.364,350.327 66.500 C 350.227 65.636,349.964 65.373,349.100 65.273 C 348.236 65.174,348.000 64.938,348.000 64.173 C 348.000 63.409,347.791 63.200,347.027 63.200 C 346.262 63.200,346.026 62.964,345.927 62.100 C 345.827 61.236,345.564 60.973,344.700 60.873 C 343.845 60.775,343.600 60.536,343.600 59.799 C 343.600 58.346,342.888 56.800,342.219 56.800 C 341.889 56.800,341.323 56.349,340.961 55.797 C 340.523 55.129,339.794 54.713,338.774 54.549 C 337.495 54.345,337.224 54.132,337.122 53.252 C 337.028 52.439,336.750 52.171,335.900 52.073 C 335.036 51.974,334.800 51.738,334.800 50.973 C 334.800 50.159,334.605 50.000,333.600 50.000 C 332.533 50.000,332.400 49.867,332.400 48.800 C 332.400 47.787,332.244 47.600,331.400 47.600 C 330.600 47.600,330.400 47.400,330.400 46.600 C 330.400 45.756,330.213 45.600,329.200 45.600 C 328.133 45.600,328.000 45.467,328.000 44.400 C 328.000 43.401,327.840 43.200,327.043 43.200 C 326.357 43.200,326.016 42.918,325.836 42.200 C 325.610 41.301,325.384 41.200,323.592 41.200 C 321.645 41.200,321.600 41.173,321.600 40.000 C 321.600 38.933,321.467 38.800,320.400 38.800 C 319.387 38.800,319.200 38.644,319.200 37.800 C 319.200 37.011,318.997 36.800,318.239 36.800 C 317.531 36.800,317.168 36.484,316.860 35.600 C 316.479 34.507,316.281 34.400,314.647 34.400 C 312.987 34.400,312.844 34.318,312.727 33.300 C 312.628 32.443,312.362 32.173,311.525 32.076 C 310.772 31.989,310.412 31.689,310.325 31.076 C 310.217 30.322,309.911 30.183,308.125 30.080 C 306.203 29.969,306.040 29.880,305.925 28.880 C 305.829 28.049,305.556 27.772,304.741 27.677 C 304.111 27.604,303.602 27.252,303.486 26.809 C 303.347 26.275,302.767 25.984,301.446 25.786 C 300.090 25.583,299.600 25.330,299.600 24.835 C 299.600 23.731,298.743 23.200,296.963 23.200 C 295.509 23.200,295.254 23.068,295.036 22.200 C 294.810 21.301,294.584 21.200,292.792 21.200 C 290.958 21.200,290.800 21.124,290.800 20.243 C 290.800 19.109,290.150 18.800,287.767 18.800 C 286.149 18.800,286.000 18.716,286.000 17.800 C 286.000 16.855,285.880 16.800,283.800 16.800 C 281.746 16.800,281.600 16.736,281.600 15.843 C 281.600 14.736,280.946 14.400,278.795 14.400 C 277.503 14.400,277.235 14.255,277.128 13.500 C 277.010 12.667,276.769 12.591,273.900 12.483 C 271.253 12.383,270.800 12.264,270.800 11.663 C 270.800 10.375,269.925 10.000,266.920 10.000 C 264.072 10.000,264.000 9.975,264.000 9.000 C 264.000 8.049,263.887 8.000,261.695 8.000 C 259.700 8.000,259.337 7.881,258.995 7.113 C 258.499 6.000,257.374 5.690,253.646 5.640 C 251.036 5.605,250.584 5.484,249.765 4.600 C 248.917 3.685,248.551 3.600,245.446 3.600 C 242.278 3.600,242.035 3.541,241.773 2.700 C 241.346 1.332,240.925 1.213,236.500 1.206 C 233.125 1.201,232.400 1.094,232.400 0.600 C 232.400 0.071,228.422 0.000,199.000 0.000 C 169.578 0.000,165.600 0.071,165.600 0.600 M158.372 59.786 C 158.995 60.108,159.986 60.943,160.573 61.641 L 161.642 62.911 161.521 71.773 L 161.400 80.634 160.057 82.329 C 159.318 83.261,158.148 84.327,157.457 84.698 C 155.766 85.604,151.458 87.492,149.000 88.404 C 147.900 88.812,145.830 89.785,144.400 90.566 C 142.970 91.347,140.900 92.448,139.800 93.013 C 138.700 93.578,137.260 94.355,136.600 94.740 C 132.740 96.990,130.824 98.188,129.400 99.242 C 128.520 99.894,127.170 100.870,126.400 101.410 C 119.032 106.581,109.693 115.341,103.400 122.984 C 99.432 127.803,97.890 129.820,96.358 132.200 C 95.792 133.080,94.984 134.317,94.564 134.950 C 92.369 138.253,91.562 139.578,90.636 141.400 C 90.078 142.500,89.436 143.670,89.210 144.000 C 88.423 145.150,84.104 154.609,83.822 155.800 C 83.665 156.460,83.313 157.270,83.039 157.600 C 82.560 158.177,79.591 166.979,79.600 167.800 C 79.602 168.020,79.173 169.640,78.646 171.400 C 77.189 176.267,75.667 185.180,75.265 191.200 C 74.655 200.324,75.290 220.528,76.235 222.057 C 76.350 222.243,76.777 224.331,77.184 226.698 C 77.591 229.064,78.196 231.720,78.530 232.600 C 78.863 233.480,79.354 235.190,79.621 236.400 C 80.220 239.119,82.356 245.642,82.844 246.244 C 83.042 246.487,83.545 247.679,83.963 248.891 C 84.842 251.446,88.606 259.293,90.689 262.911 C 91.476 264.280,92.462 266.030,92.878 266.800 C 93.294 267.570,94.072 268.830,94.605 269.600 C 95.139 270.370,95.986 271.598,96.488 272.329 C 96.989 273.061,97.691 273.961,98.046 274.329 C 98.401 274.698,98.908 275.416,99.173 275.925 C 102.126 281.596,126.138 304.800,129.053 304.800 C 129.181 304.800,129.941 305.303,130.742 305.918 C 131.544 306.532,132.650 307.258,133.200 307.530 C 133.750 307.803,135.190 308.643,136.400 309.398 C 137.610 310.152,139.500 311.216,140.600 311.761 C 141.700 312.307,143.050 313.009,143.600 313.322 C 145.143 314.200,148.886 315.886,150.000 316.205 C 150.550 316.362,151.540 316.814,152.200 317.209 C 152.860 317.604,154.186 318.136,155.147 318.392 C 157.068 318.902,160.508 321.981,161.204 323.811 C 161.422 324.384,161.600 328.620,161.600 333.225 L 161.600 341.598 160.172 343.179 C 157.728 345.883,156.206 345.845,147.600 342.867 C 141.417 340.726,127.788 334.308,125.246 332.339 C 124.721 331.933,124.101 331.600,123.868 331.600 C 123.634 331.600,122.803 331.181,122.022 330.668 C 114.418 325.683,110.537 323.004,106.464 319.927 C 103.737 317.866,103.772 317.896,97.200 311.901 C 90.325 305.629,83.171 297.563,77.600 289.803 C 76.390 288.118,75.020 286.258,74.556 285.669 C 74.092 285.081,73.396 283.970,73.008 283.200 C 72.621 282.430,72.039 281.497,71.715 281.128 C 71.096 280.421,70.328 279.111,68.591 275.800 C 68.014 274.700,67.017 272.900,66.374 271.800 C 65.732 270.700,64.926 269.170,64.583 268.400 C 64.240 267.630,63.453 265.920,62.834 264.600 C 60.681 260.011,58.201 253.759,57.375 250.836 C 57.089 249.826,56.495 248.010,56.055 246.800 C 54.887 243.588,53.283 237.413,52.793 234.242 C 52.558 232.725,52.209 231.191,52.018 230.833 C 51.673 230.188,51.377 228.321,50.146 219.000 C 48.506 206.591,49.464 182.851,51.984 173.400 C 52.395 171.860,52.854 169.700,53.004 168.600 C 53.155 167.500,53.710 165.160,54.239 163.400 C 56.444 156.063,57.742 152.075,58.601 150.000 C 59.102 148.790,59.739 147.080,60.017 146.200 C 60.294 145.320,60.744 144.240,61.016 143.800 C 61.288 143.360,61.736 142.280,62.011 141.400 C 62.286 140.520,62.846 139.322,63.256 138.738 C 63.665 138.154,64.000 137.545,64.000 137.384 C 64.000 136.863,67.231 130.428,67.610 130.194 C 67.812 130.069,68.338 129.209,68.779 128.283 C 69.219 127.358,69.802 126.240,70.074 125.800 C 71.590 123.343,73.145 120.878,73.732 120.000 C 76.130 116.413,78.297 113.268,78.711 112.776 C 78.977 112.459,79.781 111.462,80.497 110.559 C 81.214 109.657,82.340 108.238,83.000 107.407 C 89.244 99.541,100.205 89.019,108.602 82.831 C 110.801 81.210,113.357 79.325,114.282 78.642 C 117.802 76.043,128.890 69.466,131.369 68.507 C 132.266 68.160,133.270 67.670,133.600 67.419 C 133.930 67.168,135.550 66.399,137.200 65.710 C 138.850 65.020,141.520 63.890,143.134 63.199 C 144.747 62.507,146.817 61.695,147.734 61.394 C 148.650 61.093,150.390 60.488,151.600 60.051 C 154.251 59.093,156.837 58.992,158.372 59.786 M248.852 60.974 C 251.573 61.950,255.330 63.407,257.200 64.213 C 259.070 65.019,261.320 65.963,262.200 66.311 C 263.080 66.660,264.079 67.177,264.420 67.462 C 264.761 67.746,265.832 68.258,266.800 68.600 C 267.768 68.942,268.839 69.460,269.180 69.752 C 269.521 70.044,270.340 70.557,271.000 70.893 C 272.775 71.795,276.372 73.898,278.237 75.124 C 279.138 75.716,280.488 76.593,281.237 77.072 C 291.046 83.351,305.087 95.625,312.273 104.203 C 315.874 108.502,318.682 112.075,320.504 114.679 C 321.551 116.176,322.851 118.030,323.393 118.800 C 323.936 119.570,324.553 120.588,324.765 121.061 C 324.977 121.535,325.345 122.043,325.583 122.189 C 325.821 122.336,326.477 123.299,327.041 124.328 C 327.605 125.358,328.591 127.100,329.232 128.200 C 329.872 129.300,330.854 131.100,331.413 132.200 C 331.972 133.300,332.680 134.650,332.987 135.200 C 333.293 135.750,333.990 137.190,334.534 138.400 C 335.078 139.610,336.063 141.770,336.722 143.200 C 337.382 144.630,338.136 146.610,338.400 147.600 C 338.663 148.590,339.031 149.587,339.218 149.816 C 339.538 150.207,341.405 155.900,343.738 163.600 C 344.304 165.470,344.953 168.170,345.179 169.600 C 345.406 171.030,345.777 172.830,346.004 173.600 C 346.231 174.370,346.673 177.160,346.987 179.800 C 347.301 182.440,347.838 186.724,348.179 189.320 C 348.871 194.578,349.002 208.763,348.403 213.400 C 348.203 214.940,347.693 219.008,347.268 222.440 C 346.844 225.873,346.209 229.923,345.858 231.440 C 345.507 232.958,344.950 235.370,344.620 236.800 C 343.559 241.400,341.721 247.708,340.424 251.200 C 339.729 253.070,338.830 255.590,338.426 256.800 C 337.251 260.314,333.536 268.450,331.576 271.800 C 330.933 272.900,330.150 274.340,329.837 275.000 C 328.865 277.049,323.452 285.654,321.408 288.400 C 320.835 289.170,319.839 290.520,319.195 291.400 C 311.958 301.290,301.012 312.543,291.800 319.562 C 290.920 320.233,289.930 321.036,289.600 321.346 C 288.971 321.938,285.973 324.022,280.600 327.604 C 278.840 328.778,276.912 330.067,276.316 330.469 C 275.720 330.871,275.070 331.200,274.872 331.200 C 274.674 331.200,273.853 331.647,273.047 332.194 C 272.242 332.740,270.282 333.834,268.692 334.624 C 267.101 335.415,265.530 336.229,265.200 336.433 C 264.334 336.970,262.700 337.733,258.400 339.607 C 256.310 340.518,254.240 341.426,253.800 341.624 C 252.740 342.101,246.196 344.341,244.308 344.873 C 241.761 345.590,239.465 344.990,237.828 343.179 L 236.400 341.598 236.400 332.654 L 236.400 323.710 237.626 322.168 C 239.077 320.342,241.692 318.527,243.387 318.169 C 244.054 318.029,245.140 317.595,245.800 317.205 C 246.460 316.816,247.660 316.286,248.467 316.028 C 252.252 314.819,265.031 307.591,270.800 303.396 C 272.450 302.196,274.316 300.868,274.947 300.443 C 280.733 296.551,294.960 281.647,300.000 274.197 C 300.550 273.384,301.270 272.417,301.600 272.048 C 303.787 269.603,310.007 258.217,312.989 251.200 C 313.784 249.330,314.688 247.260,314.998 246.600 C 315.969 244.534,317.600 239.535,318.404 236.156 C 318.829 234.372,319.364 232.420,319.593 231.819 C 319.822 231.217,320.262 229.167,320.572 227.262 C 320.882 225.358,321.327 223.301,321.561 222.691 C 323.327 218.090,323.322 188.080,321.554 181.400 C 321.321 180.520,320.806 178.180,320.410 176.200 C 319.104 169.674,317.575 164.592,314.227 155.657 C 313.868 154.698,313.238 153.258,312.828 152.457 C 312.417 151.656,310.770 148.335,309.166 145.077 C 307.562 141.820,306.101 139.063,305.919 138.950 C 305.737 138.838,305.225 138.083,304.781 137.273 C 303.278 134.534,299.081 128.351,297.240 126.165 C 296.668 125.486,295.392 123.956,294.405 122.765 C 289.927 117.361,278.529 106.379,274.407 103.495 C 273.853 103.108,272.680 102.249,271.800 101.586 C 265.591 96.911,253.260 90.031,246.015 87.200 C 241.449 85.416,238.913 83.886,237.726 82.200 L 236.600 80.600 236.479 71.780 C 236.362 63.192,236.382 62.931,237.244 61.835 C 239.714 58.695,242.019 58.524,248.852 60.974 M208.551 103.392 C 211.460 105.097,211.600 105.740,211.600 117.365 C 211.600 129.473,210.740 128.045,219.336 130.217 C 222.177 130.935,229.369 134.386,231.418 136.014 C 232.239 136.666,233.047 137.200,233.214 137.200 C 233.821 137.200,241.027 144.710,242.000 146.357 C 242.550 147.288,243.431 148.714,243.957 149.525 C 244.484 150.336,245.184 151.810,245.514 152.800 C 245.844 153.790,246.261 154.790,246.442 155.023 C 246.622 155.256,247.029 156.426,247.347 157.623 C 247.664 158.820,248.121 160.307,248.362 160.926 C 250.674 166.867,247.064 169.716,236.962 169.924 C 227.478 170.119,224.915 169.170,223.384 164.897 C 220.043 155.572,215.033 151.011,205.600 148.708 C 203.238 148.131,189.871 148.135,187.800 148.713 C 175.550 152.132,170.311 159.975,172.372 171.810 C 173.577 178.728,180.036 183.752,190.146 185.635 C 191.496 185.886,193.398 186.350,194.373 186.666 C 195.347 186.981,198.317 187.505,200.973 187.830 C 225.220 190.793,240.745 197.545,247.810 208.200 C 254.569 218.393,255.886 235.975,250.768 247.667 C 250.125 249.134,249.600 250.417,249.600 250.519 C 249.600 250.802,247.110 254.872,246.118 256.210 C 244.426 258.492,241.410 261.767,238.800 264.156 C 234.455 268.133,224.585 273.241,219.005 274.399 C 217.704 274.669,216.271 275.037,215.820 275.217 C 215.369 275.397,214.518 275.647,213.928 275.773 C 211.617 276.265,211.600 276.350,211.600 287.336 C 211.600 301.538,211.215 302.016,199.546 302.302 C 191.746 302.494,189.409 301.843,187.426 298.925 L 186.400 297.414 186.400 287.356 C 186.400 275.134,187.406 276.625,177.643 274.381 C 174.494 273.657,169.750 272.029,168.400 271.210 C 168.070 271.009,166.338 270.108,164.551 269.206 C 161.279 267.555,156.280 263.714,153.755 260.913 C 153.006 260.081,152.127 259.118,151.804 258.773 C 148.938 255.724,144.441 246.710,143.436 242.000 C 143.131 240.570,142.656 238.583,142.380 237.584 C 140.577 231.052,144.324 228.977,157.406 229.262 C 166.605 229.463,167.169 229.829,169.456 237.107 C 170.268 239.688,171.234 242.250,171.603 242.800 C 171.973 243.350,172.774 244.560,173.384 245.489 C 180.361 256.112,201.332 259.631,215.437 252.546 C 229.558 245.453,231.644 226.306,219.166 218.324 C 215.925 216.250,204.587 212.756,199.400 212.232 C 194.809 211.769,182.388 209.389,177.600 208.056 C 172.803 206.720,164.881 203.491,162.424 201.871 C 161.531 201.282,160.098 200.338,159.240 199.773 C 155.001 196.983,149.873 190.185,148.194 185.128 C 147.805 183.958,147.225 182.280,146.905 181.400 C 143.775 172.784,146.408 154.591,151.749 147.940 C 152.217 147.357,153.223 146.007,153.985 144.940 C 157.898 139.459,170.346 131.155,176.110 130.181 C 177.018 130.028,178.550 129.564,179.514 129.151 C 180.478 128.738,182.034 128.400,182.971 128.400 C 186.118 128.400,186.170 128.223,186.400 116.659 C 186.688 102.167,186.443 102.446,198.929 102.418 C 206.664 102.400,206.899 102.424,208.551 103.392 " stroke="none" fill="#2473cc" fill-rule="evenodd"></path></g></svg>