<svg id="svg" version="1.1" xmlns="http://www.w3.org/2000/svg" xmlns:xlink="http://www.w3.org/1999/xlink" width="400" height="400" viewBox="0, 0, 400,400"><g id="svgg"><path id="path0" d="M161.620 113.576 L 123.436 151.761 137.500 165.820 L 151.563 179.880 175.782 155.664 L 200.000 131.448 224.122 155.568 C 237.390 168.834,248.421 179.688,248.636 179.688 C 248.851 179.687,255.266 173.447,262.891 165.820 L 276.755 151.952 238.476 113.671 C 217.422 92.617,200.108 75.391,200.000 75.391 C 199.892 75.391,182.621 92.574,161.620 113.576 M185.546 185.743 L 171.292 200.001 185.646 214.355 L 200.000 228.710 214.354 214.355 L 228.708 200.001 214.454 185.743 C 206.614 177.901,200.110 171.484,200.000 171.484 C 199.890 171.484,193.386 177.901,185.546 185.743 M89.258 185.938 L 75.198 200.001 89.261 214.064 L 103.323 228.126 117.383 214.063 L 131.443 199.999 117.380 185.936 L 103.318 171.874 89.258 185.938 M282.617 185.938 L 268.557 200.001 282.620 214.064 L 296.682 228.126 310.742 214.063 L 324.802 199.999 310.739 185.936 L 296.677 171.874 282.617 185.938 M137.305 234.166 L 123.242 247.994 161.621 286.399 L 200.000 324.804 238.378 286.426 L 276.756 248.049 262.892 234.181 C 255.266 226.553,248.851 220.313,248.636 220.313 C 248.421 220.313,237.390 231.166,224.122 244.432 L 200.000 268.552 175.878 244.432 C 162.610 231.166,151.668 220.318,151.561 220.326 C 151.455 220.333,145.039 226.561,137.305 234.166 " stroke="none" fill="#fcfbfb" fill-rule="evenodd"></path><path id="path1" d="M186.523 0.236 C 185.664 0.318,182.939 0.574,180.469 0.803 C 136.947 4.846,93.415 24.708,62.368 54.687 C 53.488 63.261,49.742 67.338,43.342 75.392 C -4.871 136.067,-13.737 218.811,20.511 288.477 C 27.712 303.125,37.712 318.503,46.930 329.102 C 47.491 329.746,48.780 331.240,49.796 332.422 C 79.332 366.778,124.768 391.386,170.898 398.010 C 182.434 399.667,184.694 399.805,200.195 399.798 C 256.611 399.774,306.104 378.530,345.508 337.423 C 390.307 290.687,409.592 221.670,395.668 157.908 C 393.705 148.918,393.066 146.555,390.144 137.500 C 376.521 95.267,347.446 57.192,310.352 33.006 C 307.773 31.325,305.225 29.656,304.688 29.297 C 304.150 28.938,302.920 28.197,301.953 27.651 C 300.986 27.105,299.053 26.004,297.656 25.203 C 276.139 12.868,248.762 4.144,221.484 0.929 C 216.515 0.344,190.737 -0.167,186.523 0.236 M238.576 113.380 L 276.954 151.761 262.696 166.015 L 248.437 180.270 224.218 156.054 L 200.000 131.838 175.782 156.054 L 151.563 180.270 137.304 166.015 L 123.046 151.761 161.424 113.380 C 182.533 92.271,199.892 75.000,200.000 75.000 C 200.108 75.000,217.467 92.271,238.576 113.380 M214.454 185.743 L 228.708 200.001 214.354 214.355 L 200.000 228.710 185.646 214.355 L 171.292 200.001 185.546 185.743 C 193.386 177.901,199.890 171.484,200.000 171.484 C 200.110 171.484,206.614 177.901,214.454 185.743 M117.773 185.938 L 131.832 200.000 117.773 214.063 C 110.041 221.797,103.537 228.125,103.320 228.125 C 103.103 228.125,96.599 221.797,88.867 214.063 L 74.809 200.000 88.867 185.938 C 96.599 178.203,103.103 171.875,103.320 171.875 C 103.537 171.875,110.041 178.203,117.773 185.938 M311.133 185.938 L 325.191 200.000 311.133 214.063 C 303.401 221.797,296.897 228.125,296.680 228.125 C 296.463 228.125,289.959 221.797,282.227 214.063 L 268.168 200.000 282.227 185.938 C 289.959 178.203,296.463 171.875,296.680 171.875 C 296.897 171.875,303.401 178.203,311.133 185.938 M175.878 244.042 L 200.000 268.162 224.219 243.945 L 248.438 219.728 262.696 233.986 L 276.953 248.244 238.477 286.719 L 200.000 325.194 161.524 286.719 L 123.048 248.245 137.206 234.083 C 144.992 226.295,151.451 219.922,151.559 219.922 C 151.667 219.922,162.610 230.776,175.878 244.042 " stroke="none" fill="#f4bc2c" fill-rule="evenodd"></path><path id="path2" d="M161.523 113.379 L 123.242 151.758 161.621 113.477 C 197.300 77.890,200.175 75.000,199.902 75.000 C 199.847 75.000,182.577 92.271,161.523 113.379 M88.867 185.938 L 74.807 200.001 89.063 214.161 L 103.319 228.320 89.259 214.160 L 75.199 200.000 89.258 185.938 C 96.990 178.203,103.228 171.875,103.121 171.875 C 103.014 171.875,96.599 178.203,88.867 185.938 M310.745 214.063 L 296.685 228.320 310.924 214.176 C 318.755 206.397,325.082 199.981,324.983 199.918 C 324.885 199.856,318.478 206.221,310.745 214.063 M161.426 286.523 L 200.000 325.195 238.574 286.523 L 277.148 247.852 238.574 286.328 L 200.000 324.803 161.426 286.328 L 122.852 247.852 161.426 286.523 " stroke="none" fill="#fcdb93" fill-rule="evenodd"></path><path id="path3" d="M227.930 103.125 C 243.397 118.594,256.141 131.250,256.248 131.250 C 256.355 131.250,243.788 118.594,228.320 103.125 C 212.853 87.656,200.109 75.000,200.002 75.000 C 199.895 75.000,212.462 87.656,227.930 103.125 M266.406 141.602 C 271.882 147.080,276.449 151.563,276.557 151.563 C 276.664 151.563,272.272 147.080,266.797 141.602 C 261.322 136.123,256.754 131.641,256.646 131.641 C 256.539 131.641,260.931 136.123,266.406 141.602 M137.305 166.016 C 145.037 173.750,151.451 180.078,151.558 180.078 C 151.666 180.078,145.427 173.750,137.695 166.016 C 129.963 158.281,123.549 151.953,123.442 151.953 C 123.334 151.953,129.573 158.281,137.305 166.016 M300.586 175.781 C 302.726 177.930,304.565 179.688,304.673 179.688 C 304.780 179.688,303.117 177.930,300.977 175.781 C 298.836 173.633,296.997 171.875,296.890 171.875 C 296.782 171.875,298.446 173.633,300.586 175.781 M310.938 186.133 C 314.262 189.463,317.071 192.188,317.178 192.188 C 317.285 192.188,314.653 189.463,311.328 186.133 C 308.003 182.803,305.195 180.078,305.088 180.078 C 304.980 180.078,307.613 182.803,310.938 186.133 M317.578 192.700 C 317.578 192.768,318.149 193.339,318.848 193.970 L 320.117 195.117 318.970 193.848 C 317.900 192.664,317.578 192.399,317.578 192.700 M322.266 197.461 C 323.433 198.643,324.475 199.609,324.583 199.609 C 324.690 199.609,323.823 198.643,322.656 197.461 C 321.489 196.279,320.447 195.313,320.339 195.313 C 320.232 195.313,321.099 196.279,322.266 197.461 M144.722 226.660 L 138.086 233.398 144.824 226.762 C 148.530 223.112,151.563 220.080,151.563 220.024 C 151.563 219.745,150.888 220.400,144.722 226.660 " stroke="none" fill="#fcdc9c" fill-rule="evenodd"></path><path id="path4" d="M175.585 155.957 L 151.367 180.273 175.684 156.056 L 200.000 131.838 224.316 156.056 L 248.633 180.273 224.415 155.957 C 211.096 142.583,200.109 131.641,200.000 131.641 C 199.891 131.641,188.904 142.583,175.585 155.957 M117.381 185.840 L 131.441 200.000 117.381 214.160 L 103.322 228.320 117.578 214.160 L 131.835 200.000 117.578 185.840 L 103.322 171.680 117.381 185.840 M282.226 185.938 L 268.167 200.001 282.423 214.161 L 296.678 228.320 282.619 214.160 L 268.559 200.000 282.617 185.938 C 290.349 178.203,296.588 171.875,296.480 171.875 C 296.373 171.875,289.958 178.203,282.226 185.938 M175.684 244.141 L 200.000 268.554 224.316 244.141 L 248.633 219.727 224.316 243.945 L 200.000 268.162 175.684 243.945 L 151.367 219.727 175.684 244.141 " stroke="none" fill="#f4cc5c" fill-rule="evenodd"></path></g></svg>