<svg width="55" height="55" viewBox="0 0 55 55" fill="none" xmlns="http://www.w3.org/2000/svg">
<path fill-rule="evenodd" clip-rule="evenodd" d="M27.7841 0.115723V21.4622H26.7841V0.115723H27.7841Z" fill="#F9D857"/>
<path fill-rule="evenodd" clip-rule="evenodd" d="M27.7841 0.115723V21.4622H26.7841V0.115723H27.7841Z" fill="#BAA5D4"/>
<path fill-rule="evenodd" clip-rule="evenodd" d="M24.945 0.21283L27.1842 21.5593L26.1896 21.6637L23.9505 0.317152L24.945 0.21283Z" fill="#F9D857"/>
<path fill-rule="evenodd" clip-rule="evenodd" d="M24.945 0.21283L27.1842 21.5593L26.1896 21.6637L23.9505 0.317152L24.945 0.21283Z" fill="#BAA5D4"/>
<path fill-rule="evenodd" clip-rule="evenodd" d="M22.1004 0.608063L26.5787 21.5068L25.6009 21.7163L21.1226 0.817592L22.1004 0.608063Z" fill="#F9D857"/>
<path fill-rule="evenodd" clip-rule="evenodd" d="M22.1004 0.608063L26.5787 21.5068L25.6009 21.7163L21.1226 0.817592L22.1004 0.608063Z" fill="#BAA5D4"/>
<path fill-rule="evenodd" clip-rule="evenodd" d="M19.4002 1.3053L25.9684 21.6069L25.017 21.9147L18.4488 1.61312L19.4002 1.3053Z" fill="#F9D857"/>
<path fill-rule="evenodd" clip-rule="evenodd" d="M19.4002 1.3053L25.9684 21.6069L25.017 21.9147L18.4488 1.61312L19.4002 1.3053Z" fill="#BAA5D4"/>
<path fill-rule="evenodd" clip-rule="evenodd" d="M16.6948 2.30173L25.3528 21.8569L24.4384 22.2618L15.7804 2.70657L16.6948 2.30173Z" fill="#F9D857"/>
<path fill-rule="evenodd" clip-rule="evenodd" d="M16.6948 2.30173L25.3528 21.8569L24.4384 22.2618L15.7804 2.70657L16.6948 2.30173Z" fill="#BAA5D4"/>
<path fill-rule="evenodd" clip-rule="evenodd" d="M14.1323 3.4473L24.8802 21.9576L24.0154 22.4597L13.2675 3.94943L14.1323 3.4473Z" fill="#F9D857"/>
<path fill-rule="evenodd" clip-rule="evenodd" d="M14.1323 3.4473L24.8802 21.9576L24.0154 22.4597L13.2675 3.94943L14.1323 3.4473Z" fill="#BAA5D4"/>
<path fill-rule="evenodd" clip-rule="evenodd" d="M11.8645 5.04547L24.4037 22.2123L23.5962 22.8021L11.0569 5.63531L11.8645 5.04547Z" fill="#F9D857"/>
<path fill-rule="evenodd" clip-rule="evenodd" d="M11.8645 5.04547L24.4037 22.2123L23.5962 22.8021L11.0569 5.63531L11.8645 5.04547Z" fill="#BAA5D4"/>
<path fill-rule="evenodd" clip-rule="evenodd" d="M9.59216 6.79608L23.9227 22.6194L23.1815 23.2907L8.85095 7.46736L9.59216 6.79608Z" fill="#F9D857"/>
<path fill-rule="evenodd" clip-rule="evenodd" d="M9.59216 6.79608L23.9227 22.6194L23.1815 23.2907L8.85095 7.46736L9.59216 6.79608Z" fill="#BAA5D4"/>
<path fill-rule="evenodd" clip-rule="evenodd" d="M7.61659 8.70169L23.4399 23.0322L22.7686 23.7734L6.94531 9.4429L7.61659 8.70169Z" fill="#F9D857"/>
<path fill-rule="evenodd" clip-rule="evenodd" d="M7.61659 8.70169L23.4399 23.0322L22.7686 23.7734L6.94531 9.4429L7.61659 8.70169Z" fill="#BAA5D4"/>
<path fill-rule="evenodd" clip-rule="evenodd" d="M5.7846 10.9077L22.9514 23.4469L22.3615 24.2544L5.19476 11.7152L5.7846 10.9077Z" fill="#F9D857"/>
<path fill-rule="evenodd" clip-rule="evenodd" d="M5.7846 10.9077L22.9514 23.4469L22.3615 24.2544L5.19476 11.7152L5.7846 10.9077Z" fill="#BAA5D4"/>
<path fill-rule="evenodd" clip-rule="evenodd" d="M4.09875 13.1182L22.609 23.8661L22.1069 24.7309L3.59662 13.983L4.09875 13.1182Z" fill="#F9D857"/>
<path fill-rule="evenodd" clip-rule="evenodd" d="M4.09875 13.1182L22.609 23.8661L22.1069 24.7309L3.59662 13.983L4.09875 13.1182Z" fill="#BAA5D4"/>
<path fill-rule="evenodd" clip-rule="evenodd" d="M2.85583 15.6311L22.411 24.2891L22.0062 25.2035L2.45099 16.5455L2.85583 15.6311Z" fill="#F9D857"/>
<path fill-rule="evenodd" clip-rule="evenodd" d="M2.85583 15.6311L22.411 24.2891L22.0062 25.2035L2.45099 16.5455L2.85583 15.6311Z" fill="#BAA5D4"/>
<path fill-rule="evenodd" clip-rule="evenodd" d="M1.76241 18.2996L22.064 24.8677L21.7562 25.8192L1.45459 19.251L1.76241 18.2996Z" fill="#F9D857"/>
<path fill-rule="evenodd" clip-rule="evenodd" d="M1.76241 18.2996L22.064 24.8677L21.7562 25.8192L1.45459 19.251L1.76241 18.2996Z" fill="#BAA5D4"/>
<path fill-rule="evenodd" clip-rule="evenodd" d="M0.966853 20.9734L21.8655 25.4516L21.656 26.4294L0.757324 21.9512L0.966853 20.9734Z" fill="#F9D857"/>
<path fill-rule="evenodd" clip-rule="evenodd" d="M0.966853 20.9734L21.8655 25.4516L21.656 26.4294L0.757324 21.9512L0.966853 20.9734Z" fill="#BAA5D4"/>
<path fill-rule="evenodd" clip-rule="evenodd" d="M0.466444 23.8012L21.813 26.0403L21.7086 27.0349L0.362122 24.7958L0.466444 23.8012Z" fill="#F9D857"/>
<path fill-rule="evenodd" clip-rule="evenodd" d="M0.466444 23.8012L21.813 26.0403L21.7086 27.0349L0.362122 24.7958L0.466444 23.8012Z" fill="#BAA5D4"/>
<path fill-rule="evenodd" clip-rule="evenodd" d="M0.265015 26.6347H21.6115V27.6347H0.265015V26.6347Z" fill="#F9D857"/>
<path fill-rule="evenodd" clip-rule="evenodd" d="M0.265015 26.6347H21.6115V27.6347H0.265015V26.6347Z" fill="#BAA5D4"/>
<path fill-rule="evenodd" clip-rule="evenodd" d="M0.362122 29.4737L21.7086 27.2346L21.813 28.2291L0.466444 30.4683L0.362122 29.4737Z" fill="#F9D857"/>
<path fill-rule="evenodd" clip-rule="evenodd" d="M0.362122 29.4737L21.7086 27.2346L21.813 28.2291L0.466444 30.4683L0.362122 29.4737Z" fill="#BAA5D4"/>
<path fill-rule="evenodd" clip-rule="evenodd" d="M0.757324 32.1691L21.656 27.6908L21.8655 28.6686L0.966853 33.1469L0.757324 32.1691Z" fill="#F9D857"/>
<path fill-rule="evenodd" clip-rule="evenodd" d="M0.757324 32.1691L21.656 27.6908L21.8655 28.6686L0.966853 33.1469L0.757324 32.1691Z" fill="#BAA5D4"/>
<path fill-rule="evenodd" clip-rule="evenodd" d="M1.45459 34.8692L21.7562 28.3011L22.064 29.2525L1.76241 35.8207L1.45459 34.8692Z" fill="#F9D857"/>
<path fill-rule="evenodd" clip-rule="evenodd" d="M1.45459 34.8692L21.7562 28.3011L22.064 29.2525L1.76241 35.8207L1.45459 34.8692Z" fill="#BAA5D4"/>
<path fill-rule="evenodd" clip-rule="evenodd" d="M2.45099 37.5747L22.0062 28.9167L22.411 29.8311L2.85583 38.4891L2.45099 37.5747Z" fill="#F9D857"/>
<path fill-rule="evenodd" clip-rule="evenodd" d="M2.45099 37.5747L22.0062 28.9167L22.411 29.8311L2.85583 38.4891L2.45099 37.5747Z" fill="#BAA5D4"/>
<path fill-rule="evenodd" clip-rule="evenodd" d="M3.59662 40.1372L22.1069 29.3893L22.609 30.2541L4.09875 41.002L3.59662 40.1372Z" fill="#F9D857"/>
<path fill-rule="evenodd" clip-rule="evenodd" d="M3.59662 40.1372L22.1069 29.3893L22.609 30.2541L4.09875 41.002L3.59662 40.1372Z" fill="#BAA5D4"/>
<path fill-rule="evenodd" clip-rule="evenodd" d="M5.19476 42.5543L22.3615 30.0151L22.9514 30.8226L5.7846 43.3618L5.19476 42.5543Z" fill="#F9D857"/>
<path fill-rule="evenodd" clip-rule="evenodd" d="M5.19476 42.5543L22.3615 30.0151L22.9514 30.8226L5.7846 43.3618L5.19476 42.5543Z" fill="#BAA5D4"/>
<path fill-rule="evenodd" clip-rule="evenodd" d="M6.94727 44.6756L22.7706 30.4943L23.438 31.239L7.61468 45.4203L6.94727 44.6756Z" fill="#F9D857"/>
<path fill-rule="evenodd" clip-rule="evenodd" d="M6.94727 44.6756L22.7706 30.4943L23.438 31.239L7.61468 45.4203L6.94727 44.6756Z" fill="#BAA5D4"/>
<path fill-rule="evenodd" clip-rule="evenodd" d="M8.84943 46.8039L23.18 30.8313L23.9243 31.4991L9.59376 47.4717L8.84943 46.8039Z" fill="#F9D857"/>
<path fill-rule="evenodd" clip-rule="evenodd" d="M8.84943 46.8039L23.18 30.8313L23.9243 31.4991L9.59376 47.4717L8.84943 46.8039Z" fill="#BAA5D4"/>
<path fill-rule="evenodd" clip-rule="evenodd" d="M11.0557 48.6359L23.5949 31.3198L24.4049 31.9063L11.8657 49.2224L11.0557 48.6359Z" fill="#F9D857"/>
<path fill-rule="evenodd" clip-rule="evenodd" d="M11.0557 48.6359L23.5949 31.3198L24.4049 31.9063L11.8657 49.2224L11.0557 48.6359Z" fill="#BAA5D4"/>
<path fill-rule="evenodd" clip-rule="evenodd" d="M13.2675 50.1708L24.0154 31.6605L24.8802 32.1627L14.1323 50.6729L13.2675 50.1708Z" fill="#F9D857"/>
<path fill-rule="evenodd" clip-rule="evenodd" d="M13.2675 50.1708L24.0154 31.6605L24.8802 32.1627L14.1323 50.6729L13.2675 50.1708Z" fill="#BAA5D4"/>
<path fill-rule="evenodd" clip-rule="evenodd" d="M15.7809 51.4124L24.439 32.0064L25.3522 32.4139L16.6942 51.8198L15.7809 51.4124Z" fill="#F9D857"/>
<path fill-rule="evenodd" clip-rule="evenodd" d="M15.7809 51.4124L24.439 32.0064L25.3522 32.4139L16.6942 51.8198L15.7809 51.4124Z" fill="#BAA5D4"/>
<path fill-rule="evenodd" clip-rule="evenodd" d="M18.4488 52.5071L25.017 32.2055L25.9684 32.5133L19.4002 52.8149L18.4488 52.5071Z" fill="#F9D857"/>
<path fill-rule="evenodd" clip-rule="evenodd" d="M18.4488 52.5071L25.017 32.2055L25.9684 32.5133L19.4002 52.8149L18.4488 52.5071Z" fill="#BAA5D4"/>
<path fill-rule="evenodd" clip-rule="evenodd" d="M21.1226 53.3026L25.6009 32.4039L26.5787 32.6135L22.1004 53.5121L21.1226 53.3026Z" fill="#F9D857"/>
<path fill-rule="evenodd" clip-rule="evenodd" d="M21.1226 53.3026L25.6009 32.4039L26.5787 32.6135L22.1004 53.5121L21.1226 53.3026Z" fill="#BAA5D4"/>
<path fill-rule="evenodd" clip-rule="evenodd" d="M23.9506 53.8027L26.1897 32.6054L27.1842 32.7105L24.945 53.9077L23.9506 53.8027Z" fill="#F9D857"/>
<path fill-rule="evenodd" clip-rule="evenodd" d="M23.9506 53.8027L26.1897 32.6054L27.1842 32.7105L24.945 53.9077L23.9506 53.8027Z" fill="#BAA5D4"/>
<path fill-rule="evenodd" clip-rule="evenodd" d="M26.7841 54.0045V32.658H27.7841V54.0045H26.7841Z" fill="#F9D857"/>
<path fill-rule="evenodd" clip-rule="evenodd" d="M26.7841 54.0045V32.658H27.7841V54.0045H26.7841Z" fill="#BAA5D4"/>
<path fill-rule="evenodd" clip-rule="evenodd" d="M29.4734 53.9043L27.3835 32.707L28.3787 32.6089L30.4686 53.8062L29.4734 53.9043Z" fill="#F9D857"/>
<path fill-rule="evenodd" clip-rule="evenodd" d="M29.4734 53.9043L27.3835 32.707L28.3787 32.6089L30.4686 53.8062L29.4734 53.9043Z" fill="#BAA5D4"/>
<path fill-rule="evenodd" clip-rule="evenodd" d="M32.3183 53.5121L27.84 32.6135L28.8178 32.4039L33.2961 53.3026L32.3183 53.5121Z" fill="#F9D857"/>
<path fill-rule="evenodd" clip-rule="evenodd" d="M32.3183 53.5121L27.84 32.6135L28.8178 32.4039L33.2961 53.3026L32.3183 53.5121Z" fill="#BAA5D4"/>
<path fill-rule="evenodd" clip-rule="evenodd" d="M35.0185 52.8149L28.4503 32.5133L29.4018 32.2055L35.9699 52.5071L35.0185 52.8149Z" fill="#F9D857"/>
<path fill-rule="evenodd" clip-rule="evenodd" d="M35.0185 52.8149L28.4503 32.5133L29.4018 32.2055L35.9699 52.5071L35.0185 52.8149Z" fill="#BAA5D4"/>
<path fill-rule="evenodd" clip-rule="evenodd" d="M37.7246 51.8198L29.0666 32.4139L29.9798 32.0064L38.6379 51.4124L37.7246 51.8198Z" fill="#F9D857"/>
<path fill-rule="evenodd" clip-rule="evenodd" d="M37.7246 51.8198L29.0666 32.4139L29.9798 32.0064L38.6379 51.4124L37.7246 51.8198Z" fill="#BAA5D4"/>
<path fill-rule="evenodd" clip-rule="evenodd" d="M40.2865 50.6729L29.5386 32.1627L30.4034 31.6605L41.1513 50.1708L40.2865 50.6729Z" fill="#F9D857"/>
<path fill-rule="evenodd" clip-rule="evenodd" d="M40.2865 50.6729L29.5386 32.1627L30.4034 31.6605L41.1513 50.1708L40.2865 50.6729Z" fill="#BAA5D4"/>
<path fill-rule="evenodd" clip-rule="evenodd" d="M42.7024 49.2224L30.1631 31.9063L30.9731 31.3198L43.5123 48.6359L42.7024 49.2224Z" fill="#F9D857"/>
<path fill-rule="evenodd" clip-rule="evenodd" d="M42.7024 49.2224L30.1631 31.9063L30.9731 31.3198L43.5123 48.6359L42.7024 49.2224Z" fill="#BAA5D4"/>
<path fill-rule="evenodd" clip-rule="evenodd" d="M44.8233 47.4698L30.6421 31.4972L31.3899 30.8333L45.5711 46.8058L44.8233 47.4698Z" fill="#F9D857"/>
<path fill-rule="evenodd" clip-rule="evenodd" d="M44.8233 47.4698L30.6421 31.4972L31.3899 30.8333L45.5711 46.8058L44.8233 47.4698Z" fill="#BAA5D4"/>
<path fill-rule="evenodd" clip-rule="evenodd" d="M46.9551 45.4218L30.9825 31.2406L31.6465 30.4928L47.619 44.674L46.9551 45.4218Z" fill="#F9D857"/>
<path fill-rule="evenodd" clip-rule="evenodd" d="M46.9551 45.4218L30.9825 31.2406L31.6465 30.4928L47.619 44.674L46.9551 45.4218Z" fill="#BAA5D4"/>
<path fill-rule="evenodd" clip-rule="evenodd" d="M48.7851 43.363L31.4691 30.8238L32.0556 30.0139L49.3716 42.5531L48.7851 43.363Z" fill="#F9D857"/>
<path fill-rule="evenodd" clip-rule="evenodd" d="M48.7851 43.363L31.4691 30.8238L32.0556 30.0139L49.3716 42.5531L48.7851 43.363Z" fill="#BAA5D4"/>
<path fill-rule="evenodd" clip-rule="evenodd" d="M50.3201 41.002L31.8098 30.2541L32.312 29.3893L50.8222 40.1372L50.3201 41.002Z" fill="#F9D857"/>
<path fill-rule="evenodd" clip-rule="evenodd" d="M50.3201 41.002L31.8098 30.2541L32.312 29.3893L50.8222 40.1372L50.3201 41.002Z" fill="#BAA5D4"/>
<path fill-rule="evenodd" clip-rule="evenodd" d="M51.5617 38.4885L32.1558 29.8305L32.5632 28.9173L51.9691 37.5753L51.5617 38.4885Z" fill="#F9D857"/>
<path fill-rule="evenodd" clip-rule="evenodd" d="M51.5617 38.4885L32.1558 29.8305L32.5632 28.9173L51.9691 37.5753L51.5617 38.4885Z" fill="#BAA5D4"/>
<path fill-rule="evenodd" clip-rule="evenodd" d="M52.6564 35.8207L32.3548 29.2525L32.6626 28.3011L52.9642 34.8692L52.6564 35.8207Z" fill="#F9D857"/>
<path fill-rule="evenodd" clip-rule="evenodd" d="M52.6564 35.8207L32.3548 29.2525L32.6626 28.3011L52.9642 34.8692L52.6564 35.8207Z" fill="#BAA5D4"/>
<path fill-rule="evenodd" clip-rule="evenodd" d="M53.4519 33.1469L32.5532 28.6686L32.7628 27.6908L53.6614 32.1691L53.4519 33.1469Z" fill="#F9D857"/>
<path fill-rule="evenodd" clip-rule="evenodd" d="M53.4519 33.1469L32.5532 28.6686L32.7628 27.6908L53.6614 32.1691L53.4519 33.1469Z" fill="#BAA5D4"/>
<path fill-rule="evenodd" clip-rule="evenodd" d="M53.952 30.4682L32.7548 28.2291L32.8598 27.2346L54.0571 29.4738L53.952 30.4682Z" fill="#F9D857"/>
<path fill-rule="evenodd" clip-rule="evenodd" d="M53.952 30.4682L32.7548 28.2291L32.8598 27.2346L54.0571 29.4738L53.952 30.4682Z" fill="#BAA5D4"/>
<path fill-rule="evenodd" clip-rule="evenodd" d="M54.1538 27.6347H32.8073V26.6347H54.1538V27.6347Z" fill="#F9D857"/>
<path fill-rule="evenodd" clip-rule="evenodd" d="M54.1538 27.6347H32.8073V26.6347H54.1538V27.6347Z" fill="#BAA5D4"/>
<path fill-rule="evenodd" clip-rule="evenodd" d="M54.0571 24.7957L32.8598 27.0349L32.7548 26.0404L53.952 23.8013L54.0571 24.7957Z" fill="#F9D857"/>
<path fill-rule="evenodd" clip-rule="evenodd" d="M54.0571 24.7957L32.8598 27.0349L32.7548 26.0404L53.952 23.8013L54.0571 24.7957Z" fill="#BAA5D4"/>
<path fill-rule="evenodd" clip-rule="evenodd" d="M53.6614 21.9512L32.7628 26.4294L32.5532 25.4516L53.4519 20.9734L53.6614 21.9512Z" fill="#F9D857"/>
<path fill-rule="evenodd" clip-rule="evenodd" d="M53.6614 21.9512L32.7628 26.4294L32.5532 25.4516L53.4519 20.9734L53.6614 21.9512Z" fill="#BAA5D4"/>
<path fill-rule="evenodd" clip-rule="evenodd" d="M52.9642 19.251L32.6626 25.8192L32.3548 24.8677L52.6564 18.2996L52.9642 19.251Z" fill="#F9D857"/>
<path fill-rule="evenodd" clip-rule="evenodd" d="M52.9642 19.251L32.6626 25.8192L32.3548 24.8677L52.6564 18.2996L52.9642 19.251Z" fill="#BAA5D4"/>
<path fill-rule="evenodd" clip-rule="evenodd" d="M51.9691 16.5449L32.5632 25.2029L32.1558 24.2897L51.5617 15.6317L51.9691 16.5449Z" fill="#F9D857"/>
<path fill-rule="evenodd" clip-rule="evenodd" d="M51.9691 16.5449L32.5632 25.2029L32.1558 24.2897L51.5617 15.6317L51.9691 16.5449Z" fill="#BAA5D4"/>
<path fill-rule="evenodd" clip-rule="evenodd" d="M50.8222 13.983L32.312 24.7309L31.8098 23.8661L50.3201 13.1182L50.8222 13.983Z" fill="#F9D857"/>
<path fill-rule="evenodd" clip-rule="evenodd" d="M50.8222 13.983L32.312 24.7309L31.8098 23.8661L50.3201 13.1182L50.8222 13.983Z" fill="#BAA5D4"/>
<path fill-rule="evenodd" clip-rule="evenodd" d="M49.3716 11.7164L32.0556 24.2557L31.4691 23.4457L48.7851 10.9065L49.3716 11.7164Z" fill="#F9D857"/>
<path fill-rule="evenodd" clip-rule="evenodd" d="M49.3716 11.7164L32.0556 24.2557L31.4691 23.4457L48.7851 10.9065L49.3716 11.7164Z" fill="#BAA5D4"/>
<path fill-rule="evenodd" clip-rule="evenodd" d="M47.621 9.44447L31.6484 23.775L30.9806 23.0307L46.9532 8.70013L47.621 9.44447Z" fill="#F9D857"/>
<path fill-rule="evenodd" clip-rule="evenodd" d="M47.621 9.44447L31.6484 23.775L30.9806 23.0307L46.9532 8.70013L47.621 9.44447Z" fill="#BAA5D4"/>
<path fill-rule="evenodd" clip-rule="evenodd" d="M45.5696 7.46541L31.3883 23.2887L30.6436 22.6213L44.8249 6.798L45.5696 7.46541Z" fill="#F9D857"/>
<path fill-rule="evenodd" clip-rule="evenodd" d="M45.5696 7.46541L31.3883 23.2887L30.6436 22.6213L44.8249 6.798L45.5696 7.46541Z" fill="#BAA5D4"/>
<path fill-rule="evenodd" clip-rule="evenodd" d="M43.5111 5.63531L30.9719 22.8021L30.1644 22.2123L42.7036 5.04547L43.5111 5.63531Z" fill="#F9D857"/>
<path fill-rule="evenodd" clip-rule="evenodd" d="M43.5111 5.63531L30.9719 22.8021L30.1644 22.2123L42.7036 5.04547L43.5111 5.63531Z" fill="#BAA5D4"/>
<path fill-rule="evenodd" clip-rule="evenodd" d="M41.1513 3.94943L30.4034 22.4597L29.5386 21.9576L40.2865 3.4473L41.1513 3.94943Z" fill="#F9D857"/>
<path fill-rule="evenodd" clip-rule="evenodd" d="M41.1513 3.94943L30.4034 22.4597L29.5386 21.9576L40.2865 3.4473L41.1513 3.94943Z" fill="#BAA5D4"/>
<path fill-rule="evenodd" clip-rule="evenodd" d="M38.6384 2.70657L29.9804 22.2618L29.066 21.8569L37.724 2.30173L38.6384 2.70657Z" fill="#F9D857"/>
<path fill-rule="evenodd" clip-rule="evenodd" d="M38.6384 2.70657L29.9804 22.2618L29.066 21.8569L37.724 2.30173L38.6384 2.70657Z" fill="#BAA5D4"/>
<path fill-rule="evenodd" clip-rule="evenodd" d="M35.9699 1.61312L29.4018 21.9147L28.4503 21.6069L35.0185 1.3053L35.9699 1.61312Z" fill="#F9D857"/>
<path fill-rule="evenodd" clip-rule="evenodd" d="M35.9699 1.61312L29.4018 21.9147L28.4503 21.6069L35.0185 1.3053L35.9699 1.61312Z" fill="#BAA5D4"/>
<path fill-rule="evenodd" clip-rule="evenodd" d="M33.2961 0.817592L28.8178 21.7163L27.84 21.5068L32.3183 0.608063L33.2961 0.817592Z" fill="#F9D857"/>
<path fill-rule="evenodd" clip-rule="evenodd" d="M33.2961 0.817592L28.8178 21.7163L27.84 21.5068L32.3183 0.608063L33.2961 0.817592Z" fill="#BAA5D4"/>
<path fill-rule="evenodd" clip-rule="evenodd" d="M30.4687 0.313714L28.3788 21.6602L27.3835 21.5628L29.4734 0.216278L30.4687 0.313714Z" fill="#F9D857"/>
<path fill-rule="evenodd" clip-rule="evenodd" d="M30.4687 0.313714L28.3788 21.6602L27.3835 21.5628L29.4734 0.216278L30.4687 0.313714Z" fill="#BAA5D4"/>
<path fill-rule="evenodd" clip-rule="evenodd" d="M34.6734 1.26709L29.1486 21.8862L28.1826 21.6274L33.7075 1.00827L34.6734 1.26709Z" fill="#AC503F"/>
<path fill-rule="evenodd" clip-rule="evenodd" d="M31.9061 0.62612L28.5441 21.8248L27.5564 21.6682L30.9184 0.469481L31.9061 0.62612Z" fill="#AC503F"/>
<path fill-rule="evenodd" clip-rule="evenodd" d="M29.0561 0.271629L27.9728 21.6173L26.9741 21.5666L28.0574 0.220944L29.0561 0.271629Z" fill="#AC503F"/>
<path fill-rule="evenodd" clip-rule="evenodd" d="M26.2675 0.246252L27.3574 21.556L26.3587 21.6071L25.2688 0.297332L26.2675 0.246252Z" fill="#AC503F"/>
<path fill-rule="evenodd" clip-rule="evenodd" d="M23.3963 0.508511L26.698 21.6383L25.71 21.7926L22.4083 0.662899L23.3963 0.508511Z" fill="#AC503F"/>
<path fill-rule="evenodd" clip-rule="evenodd" d="M20.6246 0.951821L26.2155 21.6131L25.2502 21.8743L19.6593 1.21302L20.6246 0.951821Z" fill="#AC503F"/>
<path fill-rule="evenodd" clip-rule="evenodd" d="M18.0204 1.90859L25.6893 21.7358L24.7566 22.0966L17.0878 2.26933L18.0204 1.90859Z" fill="#AC503F"/>
<path fill-rule="evenodd" clip-rule="evenodd" d="M15.3725 3.01142L25.1194 22.0046L24.2297 22.4611L14.4828 3.46799L15.3725 3.01142Z" fill="#AC503F"/>
<path fill-rule="evenodd" clip-rule="evenodd" d="M12.971 4.34082L24.5462 22.2784L23.7059 22.8206L12.1308 4.88303L12.971 4.34082Z" fill="#AC503F"/>
<path fill-rule="evenodd" clip-rule="evenodd" d="M10.6305 5.99748L23.9669 22.5525L23.1882 23.1799L9.85173 6.62482L10.6305 5.99748Z" fill="#AC503F"/>
<path fill-rule="evenodd" clip-rule="evenodd" d="M8.42991 7.69631L23.5277 22.8688L22.8189 23.5742L7.72106 8.40167L8.42991 7.69631Z" fill="#AC503F"/>
<path fill-rule="evenodd" clip-rule="evenodd" d="M6.57904 9.80192L23.2271 23.2262L22.5993 24.0046L5.95133 10.5804L6.57904 9.80192Z" fill="#AC503F"/>
<path fill-rule="evenodd" clip-rule="evenodd" d="M4.83218 12.0964L22.742 23.6952L22.1985 24.5346L4.2886 12.9358L4.83218 12.0964Z" fill="#AC503F"/>
<path fill-rule="evenodd" clip-rule="evenodd" d="M3.37176 14.4732L22.3993 24.2079L21.9438 25.0982L2.9163 15.3635L3.37176 14.4732Z" fill="#AC503F"/>
<path fill-rule="evenodd" clip-rule="evenodd" d="M2.15643 17.0752L22.1961 24.7629L21.8379 25.6966L1.79826 18.0089L2.15643 17.0752Z" fill="#AC503F"/>
<path fill-rule="evenodd" clip-rule="evenodd" d="M1.22852 19.7601L21.8477 25.285L21.5888 26.2509L0.969697 20.726L1.22852 19.7601Z" fill="#AC503F"/>
<path fill-rule="evenodd" clip-rule="evenodd" d="M0.58752 22.5274L21.7862 25.8895L21.6296 26.8771L0.430881 23.5151L0.58752 22.5274Z" fill="#AC503F"/>
<path fill-rule="evenodd" clip-rule="evenodd" d="M0.271658 25.2332L21.6173 26.3165L21.5666 27.3152L0.220974 26.2319L0.271658 25.2332Z" fill="#AC503F"/>
<path fill-rule="evenodd" clip-rule="evenodd" d="M0.246264 28.0218L21.5561 26.9319L21.6071 27.9306L0.297343 29.0205L0.246264 28.0218Z" fill="#AC503F"/>
<path fill-rule="evenodd" clip-rule="evenodd" d="M0.508527 30.893L21.6383 27.5913L21.7927 28.5793L0.662914 31.8811L0.508527 30.893Z" fill="#AC503F"/>
<path fill-rule="evenodd" clip-rule="evenodd" d="M0.951821 33.6647L21.6131 28.0739L21.8743 29.0391L1.21302 34.63L0.951821 33.6647Z" fill="#AC503F"/>
<path fill-rule="evenodd" clip-rule="evenodd" d="M1.87003 36.4131L21.6973 28.7442L22.058 29.6769L2.23077 37.3457L1.87003 36.4131Z" fill="#AC503F"/>
<path fill-rule="evenodd" clip-rule="evenodd" d="M3.01376 38.9157L21.9683 29.313L22.4202 30.205L3.46569 39.8077L3.01376 38.9157Z" fill="#AC503F"/>
<path fill-rule="evenodd" clip-rule="evenodd" d="M4.30026 41.4637L22.2765 29.7444L22.8226 30.5821L4.84639 42.3015L4.30026 41.4637Z" fill="#AC503F"/>
<path fill-rule="evenodd" clip-rule="evenodd" d="M5.9573 43.8043L22.551 30.3237L23.1815 31.0998L6.58784 44.5805L5.9573 43.8043Z" fill="#AC503F"/>
<path fill-rule="evenodd" clip-rule="evenodd" d="M7.69631 45.8594L22.8688 30.7617L23.5742 31.4705L8.40167 46.5683L7.69631 45.8594Z" fill="#AC503F"/>
<path fill-rule="evenodd" clip-rule="evenodd" d="M9.80282 47.7092L23.1885 31.2054L23.9651 31.8353L10.5795 48.3392L9.80282 47.7092Z" fill="#AC503F"/>
<path fill-rule="evenodd" clip-rule="evenodd" d="M12.0965 49.4572L23.6952 31.5473L24.5346 32.0909L12.9358 50.0007L12.0965 49.4572Z" fill="#AC503F"/>
<path fill-rule="evenodd" clip-rule="evenodd" d="M14.4733 50.9176L24.208 31.8901L25.0982 32.3455L15.3635 51.3731L14.4733 50.9176Z" fill="#AC503F"/>
<path fill-rule="evenodd" clip-rule="evenodd" d="M17.0754 52.1326L24.7245 32.2371L25.6579 32.596L18.0088 52.4914L17.0754 52.1326Z" fill="#AC503F"/>
<path fill-rule="evenodd" clip-rule="evenodd" d="M19.7601 53.0608L25.285 32.4417L26.2509 32.7005L20.726 53.3196L19.7601 53.0608Z" fill="#AC503F"/>
<path fill-rule="evenodd" clip-rule="evenodd" d="M22.3838 53.6601L25.8514 32.6442L26.838 32.807L23.3704 53.8229L22.3838 53.6601Z" fill="#AC503F"/>
<path fill-rule="evenodd" clip-rule="evenodd" d="M25.2333 54.0177L26.3166 32.672L27.3153 32.7227L26.232 54.0683L25.2333 54.0177Z" fill="#AC503F"/>
<path fill-rule="evenodd" clip-rule="evenodd" d="M28.0218 54.043L26.9319 32.7332L27.9306 32.6822L29.0205 53.992L28.0218 54.043Z" fill="#AC503F"/>
<path fill-rule="evenodd" clip-rule="evenodd" d="M30.8933 53.7822L27.5529 32.7967L28.5405 32.6395L31.8809 53.625L30.8933 53.7822Z" fill="#AC503F"/>
<path fill-rule="evenodd" clip-rule="evenodd" d="M33.6648 53.3375L28.0739 32.6762L29.0392 32.415L34.63 53.0763L33.6648 53.3375Z" fill="#AC503F"/>
<path fill-rule="evenodd" clip-rule="evenodd" d="M36.3737 52.5616L28.7435 32.5902L29.6776 32.2333L37.3078 52.2047L36.3737 52.5616Z" fill="#AC503F"/>
<path fill-rule="evenodd" clip-rule="evenodd" d="M38.876 51.4177L29.3119 32.3189L30.2061 31.8712L39.7701 50.9699L38.876 51.4177Z" fill="#AC503F"/>
<path fill-rule="evenodd" clip-rule="evenodd" d="M41.4652 49.9912L29.7073 32.1592L30.5421 31.6087L42.3001 49.4408L41.4652 49.9912Z" fill="#AC503F"/>
<path fill-rule="evenodd" clip-rule="evenodd" d="M43.7657 48.4763L30.2851 31.8826L31.0612 31.2521L44.5419 47.8457L43.7657 48.4763Z" fill="#AC503F"/>
<path fill-rule="evenodd" clip-rule="evenodd" d="M45.8594 46.593L30.7616 31.4205L31.4705 30.7151L46.5683 45.8876L45.8594 46.593Z" fill="#AC503F"/>
<path fill-rule="evenodd" clip-rule="evenodd" d="M47.7092 44.4865L31.2054 31.1009L31.8353 30.3242L48.3392 43.7098L47.7092 44.4865Z" fill="#AC503F"/>
<path fill-rule="evenodd" clip-rule="evenodd" d="M49.4572 42.1929L31.5473 30.5941L32.0909 29.7547L50.0008 41.3535L49.4572 42.1929Z" fill="#AC503F"/>
<path fill-rule="evenodd" clip-rule="evenodd" d="M50.9176 39.8161L31.8901 30.0814L32.3456 29.1911L51.3731 38.9258L50.9176 39.8161Z" fill="#AC503F"/>
<path fill-rule="evenodd" clip-rule="evenodd" d="M52.0939 37.3581L32.1985 29.709L32.5573 28.7756L52.4528 36.4247L52.0939 37.3581Z" fill="#AC503F"/>
<path fill-rule="evenodd" clip-rule="evenodd" d="M53.0223 34.6734L32.4031 29.1485L32.6619 28.1826L53.2811 33.7075L53.0223 34.6734Z" fill="#AC503F"/>
<path fill-rule="evenodd" clip-rule="evenodd" d="M53.6635 31.9061L32.609 28.5827L32.7649 27.5949L53.8194 30.9184L53.6635 31.9061Z" fill="#AC503F"/>
<path fill-rule="evenodd" clip-rule="evenodd" d="M54.0177 29.0561L32.672 27.9728L32.7227 26.9741L54.0684 28.0574L54.0177 29.0561Z" fill="#AC503F"/>
<path fill-rule="evenodd" clip-rule="evenodd" d="M54.043 26.2675L32.7333 27.3574L32.6822 26.3587L53.992 25.2688L54.043 26.2675Z" fill="#AC503F"/>
<path fill-rule="evenodd" clip-rule="evenodd" d="M53.7822 23.396L32.7966 26.7364L32.6394 25.7488L53.625 22.4085L53.7822 23.396Z" fill="#AC503F"/>
<path fill-rule="evenodd" clip-rule="evenodd" d="M53.3375 20.6246L32.6762 26.2154L32.415 25.2501L53.0763 19.6593L53.3375 20.6246Z" fill="#AC503F"/>
<path fill-rule="evenodd" clip-rule="evenodd" d="M52.523 18.0598L32.5516 25.69L32.1947 24.7559L52.1661 17.1256L52.523 18.0598Z" fill="#AC503F"/>
<path fill-rule="evenodd" clip-rule="evenodd" d="M51.42 15.4122L32.2826 25.1204L31.8302 24.2286L50.9676 14.5204L51.42 15.4122Z" fill="#AC503F"/>
<path fill-rule="evenodd" clip-rule="evenodd" d="M49.9507 12.9696L32.1573 24.5833L31.6107 23.7459L49.4042 12.1322L49.9507 12.9696Z" fill="#AC503F"/>
<path fill-rule="evenodd" clip-rule="evenodd" d="M48.436 10.6691L31.881 24.0055L31.2536 23.2268L47.8087 9.89035L48.436 10.6691Z" fill="#AC503F"/>
<path fill-rule="evenodd" clip-rule="evenodd" d="M46.593 8.42988L31.4205 23.5277L30.7152 22.8188L45.8877 7.72103L46.593 8.42988Z" fill="#AC503F"/>
<path fill-rule="evenodd" clip-rule="evenodd" d="M44.4874 6.57899L31.0631 23.227L30.2847 22.5993L43.709 5.95128L44.4874 6.57899Z" fill="#AC503F"/>
<path fill-rule="evenodd" clip-rule="evenodd" d="M42.1929 4.83214L30.5941 22.742L29.7547 22.1984L41.3535 4.28856L42.1929 4.83214Z" fill="#AC503F"/>
<path fill-rule="evenodd" clip-rule="evenodd" d="M39.8161 3.3717L30.0814 22.3992L29.1912 21.9438L38.9259 2.91624L39.8161 3.3717Z" fill="#AC503F"/>
<path fill-rule="evenodd" clip-rule="evenodd" d="M37.2153 2.15316L29.6718 22.2314L28.7357 21.8797L36.2792 1.80146L37.2153 2.15316Z" fill="#AC503F"/>
</svg>
