<svg id="svg" version="1.1" xmlns="http://www.w3.org/2000/svg" xmlns:xlink="http://www.w3.org/1999/xlink" width="400" height="400" viewBox="0, 0, 400,400"><g id="svgg"><path id="path0" d="M0.000 200.000 L 0.000 400.000 200.000 400.000 L 400.000 400.000 400.000 200.000 L 400.000 0.000 200.000 0.000 L 0.000 0.000 0.000 200.000 M275.376 85.973 C 276.208 86.893,275.927 88.849,274.748 90.354 C 274.337 90.879,274.000 91.541,274.000 91.825 C 274.000 92.110,273.743 92.599,273.430 92.913 C 273.116 93.227,272.575 94.095,272.227 94.842 C 271.879 95.589,271.158 96.920,270.625 97.800 C 270.091 98.680,269.376 99.940,269.036 100.600 C 268.695 101.260,268.242 102.070,268.030 102.400 C 267.303 103.528,263.106 111.063,261.122 114.800 C 260.713 115.570,259.658 117.460,258.776 119.000 C 257.895 120.540,256.817 122.520,256.381 123.400 C 255.945 124.280,255.150 125.720,254.615 126.600 C 254.079 127.480,253.472 128.560,253.265 129.000 C 253.058 129.440,251.956 131.411,250.816 133.380 C 249.676 135.350,248.485 137.510,248.169 138.180 C 247.853 138.851,247.158 140.120,246.625 141.000 C 246.091 141.880,245.374 143.140,245.030 143.800 C 244.687 144.460,243.678 146.260,242.790 147.800 C 241.901 149.340,240.817 151.320,240.381 152.200 C 239.945 153.080,239.150 154.520,238.613 155.400 C 238.077 156.280,237.510 157.270,237.354 157.600 C 237.198 157.930,236.017 160.040,234.730 162.289 C 233.442 164.537,232.207 166.787,231.985 167.289 C 231.763 167.790,231.145 168.920,230.611 169.800 C 230.078 170.680,229.472 171.760,229.265 172.200 C 229.058 172.640,227.956 174.611,226.816 176.580 C 225.676 178.550,224.487 180.710,224.174 181.380 C 223.860 182.051,223.219 183.230,222.748 184.000 C 222.278 184.770,221.261 186.570,220.490 188.000 C 219.718 189.430,218.908 190.715,218.690 190.856 C 218.167 191.195,219.071 192.465,220.847 193.887 C 222.316 195.063,223.219 195.816,224.342 196.800 C 224.718 197.130,225.701 197.908,226.525 198.529 C 227.349 199.150,228.333 199.970,228.712 200.351 C 229.090 200.732,231.380 202.642,233.800 204.596 C 236.220 206.550,238.470 208.390,238.800 208.685 C 240.759 210.439,241.732 211.260,242.950 212.189 C 245.067 213.804,245.346 214.918,245.083 220.720 C 244.735 228.423,243.836 230.269,239.000 233.215 C 237.900 233.885,235.920 235.233,234.600 236.210 C 233.280 237.187,231.623 238.276,230.918 238.630 C 230.214 238.984,229.426 239.527,229.169 239.837 C 228.912 240.147,228.469 240.400,228.184 240.400 C 227.900 240.400,227.607 240.568,227.533 240.774 C 227.460 240.980,221.550 245.041,214.400 249.799 C 199.198 259.915,199.165 259.955,205.304 260.558 C 206.792 260.704,208.460 260.995,209.011 261.204 C 209.562 261.414,211.675 261.781,213.707 262.020 C 215.738 262.259,218.045 262.621,218.834 262.825 C 219.622 263.028,222.142 263.378,224.434 263.602 C 226.725 263.825,230.130 264.266,232.000 264.581 C 233.870 264.897,238.190 265.356,241.600 265.602 C 245.010 265.847,249.240 266.204,251.000 266.396 C 255.065 266.837,282.416 266.851,286.400 266.414 C 293.982 265.582,297.565 265.143,299.600 264.796 C 305.685 263.761,307.201 263.451,309.567 262.755 C 310.979 262.340,312.514 262.000,312.978 262.000 C 313.442 262.000,314.182 261.748,314.623 261.439 C 315.063 261.131,316.223 260.663,317.200 260.400 C 318.177 260.137,319.337 259.669,319.777 259.361 C 320.218 259.052,320.885 258.800,321.260 258.800 C 321.636 258.800,322.189 258.554,322.490 258.253 C 322.791 257.952,323.413 257.586,323.871 257.441 C 324.330 257.295,325.082 256.867,325.542 256.488 C 326.003 256.110,326.978 255.363,327.710 254.830 C 332.543 251.303,334.341 244.018,331.627 238.956 C 331.172 238.107,330.800 237.289,330.800 237.139 C 330.800 235.555,323.176 226.697,318.385 222.717 C 313.600 218.741,305.209 212.693,302.813 211.493 C 302.476 211.325,301.390 210.656,300.400 210.008 C 299.410 209.360,298.060 208.552,297.400 208.212 C 296.740 207.872,295.480 207.158,294.600 206.625 C 292.586 205.404,290.322 204.345,290.132 204.534 C 289.860 204.806,288.883 208.998,288.607 211.080 C 288.210 214.068,286.924 214.841,285.976 212.661 C 285.770 212.188,285.432 211.530,285.225 211.200 C 285.018 210.870,284.385 209.520,283.818 208.200 C 283.251 206.880,282.430 205.134,281.994 204.321 C 281.557 203.507,281.200 202.569,281.200 202.236 C 281.200 201.524,280.010 200.327,277.840 198.857 C 276.982 198.276,276.016 197.620,275.694 197.400 C 271.622 194.623,265.518 186.121,266.242 184.235 C 266.475 183.627,267.876 182.992,269.834 182.608 C 272.258 182.132,280.919 184.572,282.000 186.036 C 282.962 187.339,286.187 188.121,288.553 187.625 C 297.109 185.833,299.473 186.636,296.811 190.430 C 295.878 191.760,295.179 192.892,295.258 192.945 C 296.317 193.666,298.224 194.783,300.000 195.725 C 301.210 196.366,302.470 197.106,302.800 197.368 C 303.130 197.631,303.850 198.062,304.400 198.327 C 304.950 198.592,305.940 199.162,306.600 199.593 C 307.260 200.024,308.430 200.745,309.200 201.193 C 311.029 202.260,314.430 204.628,315.234 205.395 C 315.582 205.728,315.999 206.000,316.161 206.000 C 316.432 206.000,320.084 208.757,321.700 210.183 C 322.085 210.522,322.520 210.800,322.666 210.800 C 322.813 210.800,323.218 211.066,323.566 211.392 C 323.915 211.717,325.181 212.842,326.380 213.892 C 329.301 216.448,333.367 220.589,335.126 222.800 C 335.914 223.790,336.753 224.780,336.990 225.000 C 337.227 225.220,337.997 226.300,338.700 227.400 C 339.403 228.500,340.123 229.580,340.299 229.800 C 340.632 230.215,342.209 233.483,343.343 236.109 C 345.010 239.964,345.164 248.836,343.624 252.200 C 342.128 255.467,341.958 255.817,341.484 256.615 C 340.819 257.734,340.153 258.489,337.600 261.020 C 334.326 264.266,334.171 264.400,333.686 264.400 C 333.441 264.400,333.096 264.643,332.920 264.940 C 332.744 265.236,332.120 265.731,331.534 266.040 C 330.237 266.722,325.449 269.063,323.800 269.822 C 320.925 271.144,314.889 272.977,311.200 273.648 C 309.990 273.867,308.065 274.313,306.922 274.637 C 305.779 274.962,302.989 275.394,300.722 275.599 C 298.455 275.803,295.520 276.199,294.200 276.479 C 290.866 277.185,257.303 277.206,253.600 276.505 C 252.170 276.234,248.303 275.821,245.006 275.587 C 241.710 275.353,238.279 274.997,237.382 274.796 C 236.485 274.595,233.782 274.244,231.376 274.017 C 228.969 273.789,225.830 273.347,224.400 273.035 C 222.970 272.722,220.450 272.286,218.800 272.064 C 215.689 271.648,213.511 271.248,207.400 269.974 C 205.420 269.562,202.900 269.049,201.800 268.835 C 199.291 268.346,196.462 267.711,193.506 266.973 C 190.352 266.185,189.681 266.243,188.116 267.437 C 187.368 268.007,185.461 269.328,183.878 270.371 C 182.295 271.415,179.139 273.513,176.865 275.034 C 174.591 276.555,172.035 278.250,171.184 278.800 C 170.334 279.350,166.975 281.580,163.719 283.756 C 153.001 290.919,150.754 292.400,150.601 292.400 C 150.385 292.400,141.922 298.175,140.929 299.000 C 140.664 299.220,139.852 299.814,139.124 300.320 C 138.396 300.826,135.132 303.256,131.870 305.720 C 124.814 311.051,124.005 311.595,123.129 311.598 C 121.305 311.604,120.510 308.583,122.000 307.307 C 122.440 306.930,122.800 306.399,122.800 306.125 C 122.800 305.852,123.160 305.435,123.600 305.200 C 124.040 304.965,124.400 304.579,124.400 304.344 C 124.400 303.967,125.056 303.022,126.885 300.765 C 127.168 300.416,127.580 299.856,127.800 299.521 C 129.451 297.009,135.717 288.494,136.598 287.566 C 136.929 287.218,137.200 286.794,137.200 286.624 C 137.200 286.353,138.159 285.048,139.706 283.215 C 139.978 282.893,140.380 282.317,140.600 281.935 C 141.035 281.180,146.083 274.300,148.500 271.167 C 149.325 270.098,150.000 269.116,150.000 268.985 C 150.000 268.853,150.765 267.792,151.700 266.627 C 152.635 265.461,153.670 264.103,154.000 263.609 C 154.925 262.223,156.680 259.877,157.375 259.100 C 157.719 258.715,158.000 258.052,158.000 257.627 C 158.000 256.842,157.688 256.680,155.213 256.179 C 154.450 256.025,153.550 255.744,153.213 255.556 C 152.569 255.195,149.046 253.960,146.000 253.026 C 143.626 252.299,140.887 251.304,139.400 250.629 C 138.740 250.330,137.162 249.713,135.894 249.258 C 130.333 247.262,127.372 246.063,123.800 244.361 C 122.920 243.941,122.040 243.598,121.844 243.599 C 121.411 243.600,120.094 242.992,111.580 238.856 C 107.939 237.088,104.519 235.452,103.980 235.222 C 103.441 234.991,102.730 234.630,102.400 234.420 C 102.070 234.209,98.560 232.209,94.600 229.974 C 90.640 227.740,87.028 225.571,86.574 225.156 C 86.120 224.740,85.580 224.399,85.374 224.398 C 85.168 224.396,83.830 223.575,82.400 222.572 C 80.970 221.569,79.350 220.453,78.800 220.092 C 78.250 219.730,77.260 219.014,76.600 218.500 C 75.940 217.986,75.040 217.298,74.600 216.969 C 47.531 196.776,43.204 176.359,63.400 164.132 C 64.076 163.723,66.157 162.696,70.200 160.778 C 71.547 160.139,78.490 158.000,79.218 158.000 C 79.594 158.000,80.509 157.750,81.251 157.444 C 81.993 157.139,83.590 156.761,84.800 156.604 C 86.010 156.447,88.080 156.079,89.400 155.784 C 90.720 155.490,93.150 155.141,94.800 155.009 C 96.450 154.877,100.410 154.507,103.600 154.186 C 106.790 153.866,111.258 153.423,113.529 153.201 C 115.800 152.979,117.993 152.618,118.403 152.399 C 123.483 149.680,127.979 156.189,123.078 159.168 L 121.555 160.093 119.078 159.351 C 115.839 158.381,102.470 158.357,97.200 159.313 C 95.330 159.652,92.810 160.036,91.600 160.167 C 89.444 160.400,86.593 160.996,81.800 162.213 C 80.480 162.549,78.366 163.085,77.103 163.406 C 75.840 163.727,74.490 164.160,74.103 164.370 C 73.716 164.579,72.320 165.222,71.000 165.797 C 64.188 168.769,60.073 172.043,57.404 176.616 C 55.164 180.455,55.930 188.794,58.888 192.754 C 59.279 193.279,59.600 193.894,59.600 194.120 C 59.600 194.347,59.871 194.818,60.202 195.166 C 60.534 195.515,61.949 197.240,63.347 199.000 C 67.990 204.843,78.072 213.110,87.315 218.652 C 91.238 221.003,92.239 221.592,93.800 222.465 C 94.680 222.957,95.894 223.638,96.499 223.980 C 100.095 226.010,113.796 232.671,118.000 234.432 C 119.650 235.123,121.171 235.848,121.380 236.044 C 121.589 236.240,122.042 236.400,122.386 236.400 C 122.730 236.400,123.684 236.760,124.504 237.200 C 125.325 237.640,126.196 238.000,126.438 238.000 C 126.681 238.000,127.446 238.257,128.140 238.572 C 128.833 238.887,130.660 239.615,132.200 240.190 C 133.740 240.765,135.900 241.579,137.000 241.999 C 138.100 242.419,139.540 242.888,140.200 243.041 C 140.860 243.194,141.755 243.563,142.189 243.860 C 142.623 244.157,143.343 244.401,143.789 244.402 C 144.235 244.404,145.115 244.673,145.744 245.001 C 146.373 245.329,147.813 245.853,148.944 246.164 C 150.075 246.476,151.540 246.919,152.200 247.149 C 154.818 248.062,157.469 248.868,158.800 249.157 C 159.570 249.323,160.593 249.671,161.074 249.930 C 162.623 250.764,163.455 250.469,164.853 248.592 C 165.594 247.598,166.470 246.432,166.800 246.002 C 167.130 245.572,167.815 244.631,168.322 243.910 C 168.829 243.190,170.989 240.245,173.122 237.367 C 175.255 234.489,177.539 231.339,178.199 230.367 C 178.858 229.395,179.623 228.456,179.899 228.280 C 180.174 228.104,180.400 227.770,180.400 227.538 C 180.400 227.136,181.717 225.328,183.002 223.966 C 183.869 223.048,183.736 221.782,182.700 221.097 C 181.788 220.494,179.051 218.117,173.600 213.192 C 171.950 211.702,169.801 209.789,168.826 208.941 C 164.692 205.351,163.443 203.633,162.988 200.912 C 162.848 200.080,162.499 198.500,162.211 197.400 C 161.922 196.300,161.574 193.804,161.437 191.853 L 161.188 188.307 162.894 186.649 C 163.832 185.738,166.474 183.284,168.765 181.196 C 171.056 179.108,173.695 176.635,174.629 175.700 C 175.564 174.765,176.419 174.000,176.529 174.000 C 176.639 174.000,177.703 173.055,178.894 171.900 C 180.085 170.745,182.846 168.185,185.030 166.210 C 188.921 162.692,190.751 161.010,194.183 157.800 C 195.766 156.319,199.980 152.456,206.385 146.615 C 207.823 145.303,209.883 143.413,210.963 142.415 C 212.042 141.417,213.415 140.150,214.015 139.600 C 214.614 139.050,215.981 137.784,217.052 136.787 C 218.124 135.790,220.170 133.912,221.600 132.614 C 229.490 125.451,232.325 122.832,233.843 121.300 C 234.770 120.365,235.619 119.600,235.729 119.600 C 235.839 119.600,236.905 118.655,238.098 117.500 C 240.297 115.370,241.427 114.330,247.768 108.600 C 249.716 106.840,252.160 104.590,253.199 103.600 C 254.239 102.610,256.956 100.090,259.237 98.000 C 261.519 95.910,264.367 93.300,265.566 92.200 C 266.765 91.100,268.049 89.930,268.419 89.600 C 268.789 89.270,269.882 88.257,270.846 87.348 C 272.348 85.933,273.064 85.514,274.438 85.246 C 274.569 85.221,274.991 85.548,275.376 85.973 " stroke="none" fill="#13131b" fill-rule="evenodd"></path><path id="path1" d="M272.343 87.500 C 271.994 87.885,270.559 89.226,269.154 90.481 C 267.749 91.736,265.880 93.440,265.000 94.267 C 264.120 95.095,261.563 97.436,259.318 99.468 C 257.073 101.501,254.898 103.487,254.484 103.882 C 254.071 104.277,251.949 106.220,249.770 108.200 C 247.591 110.180,244.456 113.063,242.804 114.606 C 241.152 116.149,238.540 118.571,237.000 119.988 C 235.460 121.404,232.839 123.832,231.175 125.382 C 229.511 126.932,226.542 129.640,224.577 131.400 C 221.585 134.080,219.071 136.397,214.375 140.800 C 213.855 141.287,211.398 143.514,206.647 147.804 C 206.401 148.026,204.755 149.556,202.989 151.204 C 200.224 153.785,194.678 158.896,190.600 162.621 C 189.940 163.224,187.510 165.464,185.200 167.598 C 182.890 169.732,180.100 172.275,179.000 173.248 C 176.493 175.466,173.114 178.574,169.218 182.244 C 167.558 183.809,165.546 185.654,164.747 186.345 C 161.490 189.160,161.380 189.009,176.606 202.504 C 190.624 214.929,190.531 214.820,189.032 217.046 C 186.174 221.292,184.284 224.001,182.786 226.000 C 181.880 227.210,179.640 230.270,177.810 232.800 C 173.643 238.557,171.830 241.042,169.800 243.777 C 168.920 244.962,167.300 247.223,166.200 248.800 C 165.100 250.378,163.885 251.839,163.500 252.048 C 163.115 252.257,162.800 252.660,162.800 252.944 C 162.800 253.228,162.332 253.897,161.761 254.430 C 161.190 254.964,160.376 256.075,159.953 256.900 C 159.313 258.147,153.834 265.861,151.297 269.086 C 150.914 269.573,149.919 270.923,149.087 272.086 C 148.255 273.249,146.185 276.095,144.487 278.411 C 142.789 280.727,141.087 283.067,140.704 283.611 C 140.320 284.155,139.017 285.950,137.806 287.600 C 136.595 289.250,134.965 291.500,134.184 292.600 C 133.402 293.700,132.150 295.410,131.400 296.400 C 127.416 301.661,122.400 308.954,122.400 309.484 C 122.400 311.028,127.916 307.620,135.000 301.697 C 135.880 300.962,136.841 300.167,137.136 299.930 C 141.353 296.553,143.998 294.460,144.880 293.804 C 145.474 293.362,147.454 291.784,149.280 290.297 C 151.106 288.810,152.960 287.316,153.400 286.977 C 158.121 283.339,179.255 266.536,181.400 264.716 C 182.940 263.408,185.460 261.590,187.000 260.675 C 188.540 259.760,190.125 258.608,190.523 258.114 C 191.110 257.384,201.468 249.023,211.337 241.313 C 212.402 240.481,214.048 239.170,214.995 238.400 C 215.941 237.630,217.679 236.241,218.858 235.313 C 220.036 234.385,223.700 231.495,227.000 228.890 C 230.300 226.286,234.482 223.027,236.293 221.650 C 238.105 220.272,239.695 218.970,239.827 218.756 C 239.959 218.543,240.772 217.923,241.634 217.379 C 244.311 215.688,243.640 213.812,239.137 210.400 C 238.411 209.850,236.733 208.495,235.408 207.390 C 234.084 206.284,231.020 203.774,228.600 201.812 C 226.180 199.849,223.903 197.964,223.540 197.622 C 223.178 197.280,222.099 196.370,221.144 195.600 C 212.989 189.028,212.790 188.220,217.523 180.944 C 218.115 180.033,219.118 178.413,219.752 177.344 C 220.385 176.275,221.481 174.500,222.188 173.400 C 223.886 170.756,227.232 165.404,230.200 160.586 C 231.520 158.443,233.305 155.590,234.166 154.245 C 235.028 152.900,236.051 151.201,236.439 150.469 C 236.828 149.737,237.759 148.207,238.509 147.069 C 241.596 142.386,243.009 140.178,243.159 139.800 C 243.246 139.580,244.647 137.372,246.271 134.894 C 247.896 132.415,249.381 129.975,249.573 129.471 C 249.765 128.967,250.360 128.025,250.897 127.377 C 251.434 126.730,252.381 125.300,253.003 124.200 C 253.624 123.100,254.436 121.840,254.806 121.400 C 255.176 120.960,256.056 119.610,256.762 118.400 C 257.468 117.190,259.197 114.310,260.603 112.000 C 262.908 108.215,266.468 102.254,268.600 98.611 C 269.040 97.859,270.615 95.172,272.100 92.640 C 273.585 90.107,274.800 87.757,274.800 87.418 C 274.800 86.567,273.138 86.623,272.343 87.500 M273.595 185.516 L 274.479 186.231 273.279 187.516 C 272.619 188.222,271.881 188.800,271.640 188.800 C 271.005 188.800,271.098 190.275,271.749 190.525 C 272.050 190.641,272.415 191.205,272.559 191.778 C 272.874 193.033,275.499 195.751,277.989 197.400 C 280.251 198.899,281.600 200.070,281.600 200.536 C 281.600 201.294,286.926 211.569,287.224 211.385 C 287.396 211.279,287.654 209.978,287.796 208.496 C 288.413 202.076,288.914 201.928,296.096 206.053 C 299.233 207.855,302.250 209.634,302.800 210.006 C 303.350 210.378,305.150 211.561,306.800 212.635 C 323.388 223.431,334.400 236.358,334.400 245.034 C 334.400 253.133,322.800 261.697,308.200 264.376 C 307.100 264.577,305.750 264.913,305.200 265.122 C 304.650 265.330,303.030 265.626,301.600 265.779 C 300.170 265.931,297.740 266.305,296.200 266.610 C 285.775 268.674,246.551 268.784,237.000 266.775 C 235.900 266.544,232.184 266.201,228.742 266.014 C 225.301 265.827,222.115 265.476,221.663 265.234 C 221.212 264.992,219.167 264.682,217.121 264.544 C 215.074 264.407,212.770 264.036,212.000 263.721 C 211.205 263.396,208.487 263.047,205.711 262.914 L 200.823 262.679 200.995 263.574 C 201.105 264.143,200.835 264.802,200.254 265.382 L 199.341 266.296 202.117 266.529 C 203.692 266.661,205.177 267.016,205.547 267.349 C 205.920 267.684,207.485 268.054,209.200 268.212 C 210.850 268.364,212.572 268.721,213.027 269.006 C 213.482 269.290,215.532 269.727,217.581 269.976 C 219.631 270.226,221.621 270.597,222.005 270.803 C 222.388 271.008,224.700 271.364,227.143 271.595 C 229.585 271.825,232.051 272.191,232.624 272.409 C 233.197 272.627,235.855 272.994,238.533 273.225 C 241.210 273.457,244.120 273.822,245.000 274.037 C 252.465 275.865,292.336 275.957,302.000 274.169 C 309.896 272.708,315.677 271.426,318.200 270.578 C 325.447 268.142,329.936 265.921,334.328 262.600 C 343.608 255.584,346.190 243.879,340.815 233.200 C 337.458 226.530,330.124 218.049,322.723 212.280 C 321.064 210.986,317.320 208.213,316.405 207.600 C 315.912 207.270,314.911 206.550,314.179 206.000 C 313.448 205.450,311.713 204.299,310.324 203.441 C 308.936 202.584,306.825 201.250,305.633 200.476 C 304.442 199.702,302.552 198.577,301.433 197.975 C 293.924 193.937,293.387 193.451,294.488 191.697 C 296.763 188.068,296.660 187.987,290.600 188.631 C 285.940 189.127,284.274 189.060,283.358 188.344 C 281.953 187.245,278.792 185.914,277.115 185.715 C 276.049 185.589,275.081 185.331,274.965 185.143 C 274.848 184.954,274.293 184.800,273.732 184.800 L 272.711 184.800 273.595 185.516 M197.600 261.761 C 197.600 262.339,199.996 262.687,200.424 262.171 C 200.821 261.692,200.632 261.600,199.249 261.600 C 198.342 261.600,197.600 261.672,197.600 261.761 " stroke="none" fill="#e4f52f" fill-rule="evenodd"></path><path id="path2" d="M273.875 86.659 C 274.357 86.764,274.842 87.153,274.952 87.525 C 275.098 88.011,275.131 87.976,275.073 87.400 C 275.018 86.857,274.672 86.579,273.996 86.534 C 273.161 86.480,273.142 86.500,273.875 86.659 M269.200 97.400 C 268.917 97.741,268.776 98.109,268.886 98.219 C 268.996 98.329,269.317 98.141,269.600 97.800 C 269.883 97.459,270.024 97.091,269.914 96.981 C 269.804 96.871,269.483 97.059,269.200 97.400 M267.713 100.100 C 267.501 100.375,266.388 102.220,265.240 104.200 C 264.093 106.180,262.004 109.690,260.600 112.000 C 259.195 114.310,257.468 117.190,256.762 118.400 C 256.056 119.610,255.176 120.960,254.806 121.400 C 254.436 121.840,253.624 123.100,253.003 124.200 C 252.381 125.300,251.434 126.730,250.897 127.377 C 250.360 128.025,249.765 128.967,249.573 129.471 C 249.381 129.975,247.896 132.415,246.271 134.894 C 244.647 137.372,243.246 139.580,243.159 139.800 C 243.009 140.178,241.596 142.386,238.509 147.069 C 237.759 148.207,236.828 149.737,236.439 150.469 C 236.051 151.201,235.028 152.900,234.166 154.245 C 233.305 155.590,231.520 158.443,230.200 160.586 C 227.232 165.404,223.886 170.756,222.188 173.400 C 221.481 174.500,220.385 176.275,219.752 177.344 C 219.118 178.413,218.115 180.033,217.523 180.944 C 213.327 187.394,213.208 188.060,215.800 190.579 C 217.396 192.131,217.600 192.229,217.600 191.444 C 217.600 190.958,217.824 190.336,218.097 190.063 C 218.553 189.607,220.708 185.924,222.230 183.000 C 222.574 182.340,223.290 181.080,223.822 180.200 C 224.353 179.320,225.145 177.880,225.581 177.000 C 226.017 176.120,227.096 174.140,227.979 172.600 C 230.223 168.686,230.812 167.623,232.338 164.734 C 233.074 163.340,233.929 161.916,234.238 161.569 C 234.547 161.221,234.800 160.790,234.800 160.610 C 234.800 160.327,239.344 152.071,240.419 150.400 C 240.631 150.070,240.924 149.530,241.069 149.200 C 241.214 148.870,242.090 147.250,243.017 145.600 C 244.872 142.297,246.580 139.164,248.687 135.200 C 249.448 133.770,250.209 132.420,250.380 132.200 C 250.551 131.980,251.506 130.270,252.504 128.400 C 253.501 126.530,254.966 123.858,255.759 122.462 C 256.551 121.065,257.200 119.849,257.200 119.759 C 257.200 119.669,258.348 117.571,259.752 115.097 C 261.156 112.624,262.895 109.520,263.617 108.200 C 264.339 106.880,265.181 105.350,265.488 104.800 C 266.932 102.212,268.295 99.600,268.201 99.600 C 268.145 99.600,267.925 99.825,267.713 100.100 M119.345 153.196 C 117.931 153.767,109.949 154.758,103.070 155.217 C 99.511 155.454,95.250 155.897,93.600 156.201 C 91.950 156.505,89.610 156.871,88.400 157.015 C 83.843 157.554,72.748 160.658,69.200 162.386 C 65.889 163.998,62.771 165.753,62.381 166.223 C 62.118 166.540,61.668 166.800,61.382 166.800 C 61.095 166.800,59.632 168.015,58.129 169.500 C 52.911 174.656,50.457 182.733,52.571 187.792 C 52.917 188.620,53.200 189.630,53.200 190.037 C 53.200 190.708,54.308 193.301,55.235 194.800 C 55.439 195.130,55.826 195.850,56.096 196.400 C 56.679 197.590,59.218 201.055,60.377 202.242 C 60.830 202.705,61.200 203.216,61.200 203.376 C 61.200 203.873,67.612 209.985,71.400 213.098 C 77.086 217.771,77.599 218.167,78.731 218.758 C 79.319 219.065,79.893 219.458,80.007 219.631 C 80.241 219.987,85.560 223.600,85.851 223.600 C 85.954 223.600,87.123 224.320,88.448 225.200 C 89.773 226.080,91.000 226.800,91.174 226.800 C 91.349 226.800,91.922 227.138,92.447 227.551 C 92.972 227.964,94.523 228.909,95.892 229.651 C 97.262 230.393,99.061 231.385,99.891 231.856 C 101.989 233.045,114.487 239.269,117.400 240.576 C 118.720 241.167,120.340 241.901,121.000 242.205 C 125.077 244.083,126.815 244.800,127.295 244.800 C 127.595 244.800,128.011 244.963,128.220 245.163 C 128.569 245.496,132.079 246.894,137.600 248.899 C 138.810 249.338,140.250 249.921,140.800 250.195 C 141.350 250.468,142.340 250.820,143.000 250.976 C 143.660 251.133,144.740 251.498,145.400 251.788 C 146.836 252.417,149.898 253.463,152.469 254.202 C 153.497 254.497,154.667 254.909,155.069 255.117 C 155.471 255.325,156.484 255.618,157.321 255.769 C 159.062 256.084,159.402 256.617,158.826 258.131 C 158.177 259.838,158.700 259.369,159.754 257.300 C 160.286 256.255,161.189 254.964,161.760 254.430 C 162.332 253.897,162.800 253.274,162.800 253.045 C 162.800 252.817,163.295 252.225,163.900 251.730 L 165.000 250.829 163.646 251.202 C 162.598 251.491,161.873 251.406,160.446 250.826 C 159.430 250.413,156.980 249.592,155.000 249.002 C 153.020 248.411,149.870 247.390,148.000 246.733 C 146.130 246.075,143.790 245.290,142.800 244.987 C 139.924 244.107,136.235 242.753,135.800 242.418 C 135.580 242.249,134.860 241.987,134.200 241.836 C 133.090 241.583,128.281 239.771,124.000 237.994 C 123.010 237.583,121.030 236.771,119.600 236.190 C 116.646 234.989,116.115 234.754,110.600 232.205 C 108.400 231.189,106.330 230.186,106.000 229.977 C 105.670 229.769,104.950 229.413,104.400 229.187 C 103.055 228.634,102.704 228.468,102.000 228.045 C 101.670 227.847,100.950 227.488,100.400 227.246 C 99.850 227.004,99.130 226.630,98.800 226.414 C 98.470 226.199,95.890 224.712,93.066 223.111 C 90.242 221.510,87.603 220.011,87.202 219.781 C 84.587 218.280,78.000 213.808,78.000 213.533 C 78.000 213.350,77.800 213.200,77.557 213.200 C 77.140 213.200,72.254 209.332,69.245 206.621 C 66.117 203.803,63.686 201.284,61.903 199.015 C 60.860 197.687,59.849 196.409,59.657 196.175 C 59.465 195.941,59.077 195.311,58.794 194.775 C 58.512 194.239,58.157 193.710,58.007 193.600 C 57.346 193.116,55.668 188.729,55.017 185.783 C 53.659 179.633,56.300 174.146,63.328 168.516 C 72.183 161.422,102.939 155.573,117.772 158.162 C 122.553 158.996,124.400 158.328,124.400 155.765 C 124.400 153.558,121.766 152.219,119.345 153.196 M267.680 184.080 C 266.396 185.364,269.528 190.592,274.160 194.895 C 276.859 197.401,277.356 197.342,274.817 194.817 C 273.721 193.727,272.705 192.362,272.560 191.785 C 272.416 191.208,272.050 190.641,271.749 190.525 C 271.098 190.275,271.005 188.800,271.640 188.800 C 271.881 188.800,272.619 188.222,273.279 187.516 L 274.479 186.231 273.595 185.516 L 272.711 184.800 273.732 184.800 C 274.293 184.800,274.848 184.954,274.965 185.143 C 275.081 185.331,276.049 185.589,277.115 185.715 C 278.879 185.924,281.929 187.239,283.558 188.492 C 283.963 188.804,283.918 188.656,283.438 188.093 C 283.019 187.602,282.541 187.200,282.376 187.200 C 282.212 187.200,280.946 186.561,279.564 185.780 C 276.261 183.912,268.900 182.860,267.680 184.080 M162.463 188.621 C 162.069 189.486,162.142 189.900,162.938 191.326 C 163.582 192.480,163.778 193.259,163.563 193.804 C 163.101 194.969,163.580 199.043,164.502 201.800 C 165.343 204.314,166.245 205.357,171.598 210.000 C 172.993 211.210,174.425 212.470,174.781 212.800 C 175.137 213.130,176.589 214.390,178.007 215.600 C 179.426 216.810,181.149 218.340,181.837 219.000 C 182.525 219.660,183.428 220.405,183.844 220.656 C 184.390 220.986,184.569 221.485,184.489 222.456 C 184.379 223.786,184.393 223.777,185.823 221.600 C 186.619 220.390,187.581 219.040,187.961 218.600 C 189.452 216.875,190.085 215.593,189.301 215.887 C 188.916 216.032,188.413 216.399,188.185 216.703 C 187.956 217.008,187.522 217.199,187.220 217.128 C 186.916 217.057,186.539 217.446,186.375 218.000 C 186.195 218.610,186.064 218.734,186.040 218.319 C 186.018 217.944,186.218 217.159,186.484 216.575 C 186.887 215.692,186.864 215.435,186.350 215.056 C 186.009 214.805,185.515 214.195,185.251 213.700 C 184.988 213.205,184.571 212.800,184.326 212.800 C 184.081 212.800,182.936 211.855,181.782 210.700 C 177.701 206.615,173.544 202.800,173.175 202.800 C 172.969 202.800,172.800 202.539,172.800 202.220 C 172.800 201.901,172.486 201.464,172.103 201.250 C 171.720 201.035,171.503 200.764,171.621 200.646 C 171.935 200.331,173.600 200.834,173.600 201.243 C 173.600 201.837,176.079 203.998,176.478 203.752 C 176.685 203.624,176.953 203.898,177.074 204.360 C 177.199 204.838,177.618 205.200,178.047 205.200 C 178.461 205.200,178.800 205.449,178.800 205.753 C 178.800 206.058,179.173 206.404,179.630 206.524 C 180.086 206.643,180.557 207.114,180.676 207.570 C 180.796 208.027,181.142 208.400,181.447 208.400 C 181.751 208.400,182.000 208.676,182.000 209.013 C 182.000 209.349,182.315 209.741,182.700 209.882 C 183.085 210.024,183.902 210.621,184.515 211.210 C 185.128 211.799,186.118 212.525,186.715 212.823 C 187.312 213.121,188.115 213.626,188.500 213.945 C 188.903 214.278,189.200 214.342,189.200 214.096 C 189.200 213.860,183.575 208.682,176.700 202.588 C 163.539 190.923,162.803 190.165,163.105 188.587 C 163.349 187.311,163.053 187.326,162.463 188.621 M293.200 188.033 C 292.411 188.312,292.563 188.353,293.926 188.228 C 295.877 188.048,296.347 188.567,295.595 190.069 C 295.235 190.788,295.362 190.727,296.150 189.800 C 297.908 187.734,296.475 186.875,293.200 188.033 M166.000 194.953 C 166.000 195.258,166.378 195.606,166.840 195.726 C 167.302 195.847,167.572 196.121,167.440 196.336 C 167.167 196.776,165.600 196.479,165.600 195.986 C 165.600 195.810,165.491 195.381,165.357 195.033 C 165.224 194.685,165.314 194.400,165.557 194.400 C 165.801 194.400,166.000 194.649,166.000 194.953 M299.633 196.921 C 299.725 196.988,300.340 197.358,301.000 197.745 L 302.200 198.447 301.256 197.624 C 300.736 197.171,300.121 196.800,299.889 196.800 C 299.657 196.800,299.542 196.854,299.633 196.921 M300.344 208.776 C 300.864 209.229,301.479 209.600,301.711 209.600 C 302.203 209.600,302.179 209.580,300.600 208.655 L 299.400 207.953 300.344 208.776 M287.654 209.876 C 287.589 211.409,286.962 211.940,286.592 210.776 C 286.446 210.316,286.247 210.020,286.149 210.118 C 285.888 210.379,286.870 212.400,287.257 212.400 C 287.718 212.400,288.101 210.664,287.888 209.541 C 287.746 208.797,287.698 208.868,287.654 209.876 M243.078 214.665 C 243.287 216.262,243.230 216.371,241.682 217.349 C 240.794 217.909,239.959 218.543,239.827 218.756 C 239.695 218.970,238.105 220.272,236.293 221.650 C 234.482 223.027,230.300 226.286,227.000 228.890 C 223.700 231.495,220.036 234.385,218.858 235.313 C 217.679 236.241,215.941 237.630,214.995 238.400 C 214.048 239.170,212.402 240.481,211.337 241.313 C 201.468 249.023,191.110 257.384,190.523 258.114 C 190.125 258.608,188.540 259.760,187.000 260.675 C 185.460 261.590,182.940 263.408,181.400 264.716 C 179.265 266.529,158.428 283.096,153.400 286.978 C 147.554 291.493,145.507 293.252,147.000 292.479 C 147.440 292.252,148.164 291.736,148.608 291.333 C 149.053 290.930,150.493 289.774,151.808 288.764 C 153.124 287.754,156.360 285.267,159.000 283.238 C 161.640 281.209,164.610 278.937,165.600 278.189 C 166.590 277.441,167.721 276.547,168.114 276.201 C 170.085 274.465,176.974 269.245,180.337 266.939 C 181.512 266.133,182.566 265.232,182.680 264.937 C 182.975 264.166,184.533 264.276,185.646 265.145 C 186.439 265.764,186.971 265.840,188.800 265.599 C 190.308 265.399,191.629 265.488,193.000 265.882 C 194.100 266.198,196.260 266.685,197.800 266.965 C 199.340 267.245,201.950 267.779,203.600 268.151 C 205.250 268.523,207.770 269.092,209.200 269.416 C 210.630 269.739,213.060 270.161,214.600 270.353 C 217.931 270.769,224.230 271.792,228.400 272.595 C 230.050 272.913,233.560 273.365,236.200 273.600 C 238.840 273.834,241.810 274.193,242.800 274.396 C 243.790 274.599,245.500 274.756,246.600 274.745 L 248.600 274.725 245.810 274.171 C 244.276 273.866,240.915 273.435,238.343 273.211 C 235.770 272.988,233.197 272.627,232.624 272.409 C 232.051 272.191,229.585 271.825,227.143 271.595 C 224.700 271.364,222.388 271.008,222.005 270.803 C 221.621 270.597,219.631 270.226,217.581 269.976 C 215.532 269.727,213.482 269.290,213.027 269.006 C 212.572 268.721,210.850 268.364,209.200 268.212 C 207.485 268.054,205.920 267.684,205.547 267.349 C 205.177 267.016,203.692 266.661,202.117 266.529 L 199.341 266.296 200.254 265.382 C 200.835 264.802,201.105 264.143,200.995 263.574 L 200.823 262.679 205.711 262.914 C 208.487 263.047,211.205 263.396,212.000 263.721 C 212.770 264.036,215.074 264.407,217.121 264.544 C 219.167 264.682,221.212 264.992,221.663 265.234 C 222.115 265.476,225.301 265.827,228.742 266.014 C 232.184 266.201,235.900 266.544,237.000 266.775 C 242.194 267.867,272.440 268.761,280.000 268.046 C 283.810 267.686,283.523 267.667,276.918 267.849 C 269.000 268.067,246.826 267.382,242.000 266.771 C 240.350 266.561,236.563 266.132,233.585 265.816 C 230.606 265.500,227.366 265.070,226.385 264.860 C 225.403 264.650,223.340 264.366,221.800 264.228 C 218.569 263.939,210.679 262.660,206.600 261.765 C 205.060 261.427,202.845 261.007,201.677 260.831 C 200.310 260.626,199.364 260.241,199.021 259.752 C 198.711 259.308,197.303 258.667,195.644 258.212 C 194.080 257.784,192.800 257.314,192.800 257.170 C 192.800 256.750,195.920 254.800,196.591 254.800 C 196.926 254.800,197.200 254.541,197.200 254.224 C 197.200 253.466,197.712 253.175,198.351 253.570 C 198.730 253.804,198.496 254.287,197.457 255.422 C 196.683 256.266,196.151 257.120,196.273 257.319 C 196.621 257.881,200.883 257.233,202.000 256.449 C 202.550 256.062,203.315 255.629,203.700 255.486 C 204.085 255.342,204.400 255.061,204.400 254.861 C 204.400 254.661,204.940 254.273,205.600 254.000 C 206.260 253.727,206.800 253.362,206.800 253.191 C 206.800 253.019,207.340 252.690,208.000 252.460 C 208.660 252.230,209.200 251.855,209.200 251.626 C 209.200 251.398,209.785 250.939,210.500 250.606 C 211.215 250.274,212.268 249.686,212.840 249.301 C 215.285 247.654,216.671 246.739,225.600 240.878 C 230.770 237.484,235.720 234.186,236.600 233.548 C 237.480 232.911,238.830 232.049,239.600 231.634 C 243.622 229.462,245.951 218.834,243.442 214.099 C 242.863 213.007,242.861 213.010,243.078 214.665 M343.724 244.600 C 343.726 245.920,343.801 246.412,343.890 245.693 C 343.979 244.974,343.977 243.894,343.886 243.293 C 343.795 242.692,343.722 243.280,343.724 244.600 M201.200 252.153 C 201.200 252.866,199.519 253.316,199.141 252.704 C 198.715 252.015,199.122 251.600,200.224 251.600 C 200.788 251.600,201.200 251.833,201.200 252.153 M316.400 261.800 C 315.850 262.114,315.580 262.372,315.800 262.372 C 316.020 262.372,316.650 262.114,317.200 261.800 C 317.750 261.486,318.020 261.228,317.800 261.228 C 317.580 261.228,316.950 261.486,316.400 261.800 M200.424 262.171 C 200.057 262.613,199.687 262.649,198.775 262.331 C 197.182 261.776,197.296 261.600,199.249 261.600 C 200.632 261.600,200.821 261.692,200.424 262.171 M304.600 264.986 C 303.055 265.693,303.774 265.703,305.600 265.000 C 306.370 264.703,306.730 264.455,306.400 264.448 C 306.070 264.442,305.260 264.683,304.600 264.986 M286.700 267.489 C 287.415 267.578,288.585 267.578,289.300 267.489 C 290.015 267.401,289.430 267.328,288.000 267.328 C 286.570 267.328,285.985 267.401,286.700 267.489 M309.200 272.800 C 308.396 273.057,308.357 273.123,309.000 273.132 C 309.440 273.138,310.160 272.989,310.600 272.800 C 311.619 272.362,310.568 272.362,309.200 272.800 M251.000 275.049 C 252.100 275.133,256.250 275.471,260.223 275.801 C 268.605 276.496,280.605 276.520,287.200 275.855 C 291.501 275.421,290.928 275.391,278.400 275.396 C 271.030 275.398,261.400 275.287,257.000 275.148 C 252.600 275.010,249.900 274.965,251.000 275.049 M294.700 275.082 C 295.195 275.178,296.005 275.178,296.500 275.082 C 296.995 274.987,296.590 274.909,295.600 274.909 C 294.610 274.909,294.205 274.987,294.700 275.082 M144.200 294.337 C 143.540 294.740,142.730 295.407,142.400 295.818 C 142.070 296.230,142.655 295.958,143.700 295.215 C 145.372 294.027,145.852 293.596,145.500 293.601 C 145.445 293.602,144.860 293.933,144.200 294.337 M130.200 305.444 L 128.600 306.876 130.300 305.604 C 131.763 304.510,132.291 303.983,131.900 304.006 C 131.845 304.009,131.080 304.656,130.200 305.444 M123.923 306.300 C 123.218 307.121,122.690 308.000,122.901 308.000 C 122.983 308.000,123.449 307.460,123.937 306.800 C 124.901 305.496,124.892 305.172,123.923 306.300 M122.152 308.981 C 121.555 310.538,123.815 310.944,125.038 309.500 C 125.799 308.601,125.799 308.601,124.969 309.300 C 123.774 310.305,122.243 310.243,122.516 309.200 C 122.757 308.279,122.484 308.115,122.152 308.981 " stroke="none" fill="#53b265" fill-rule="evenodd"></path><path id="path3" d="M274.711 85.823 C 275.200 86.165,275.621 86.840,275.646 87.323 C 275.685 88.043,275.726 88.070,275.881 87.470 C 276.078 86.711,274.992 85.200,274.249 85.200 C 274.014 85.200,274.222 85.480,274.711 85.823 M269.857 98.500 L 269.142 99.800 269.971 98.856 C 270.687 98.040,271.050 97.200,270.686 97.200 C 270.624 97.200,270.251 97.785,269.857 98.500 M268.257 101.300 L 267.542 102.600 268.371 101.656 C 269.087 100.840,269.450 100.000,269.086 100.000 C 269.024 100.000,268.651 100.585,268.257 101.300 M266.097 104.910 C 265.407 106.059,263.347 109.575,261.521 112.721 C 259.694 115.868,258.018 118.748,257.795 119.121 C 255.340 123.237,253.812 125.917,252.388 128.600 C 251.454 130.360,250.551 131.980,250.380 132.200 C 250.209 132.420,249.448 133.770,248.687 135.200 C 245.783 140.664,241.429 148.594,240.781 149.600 C 240.569 149.930,240.276 150.470,240.131 150.800 C 239.986 151.130,238.727 153.399,237.333 155.842 C 235.940 158.285,234.800 160.431,234.800 160.610 C 234.800 160.790,234.547 161.221,234.238 161.569 C 233.929 161.916,233.074 163.340,232.338 164.734 C 230.812 167.623,230.223 168.686,227.979 172.600 C 227.096 174.140,226.017 176.120,225.581 177.000 C 225.145 177.880,224.353 179.320,223.822 180.200 C 223.290 181.080,222.576 182.340,222.236 183.000 C 221.895 183.660,221.443 184.470,221.231 184.800 C 218.258 189.426,217.634 191.215,218.700 192.051 C 219.341 192.554,219.351 192.538,218.826 191.870 C 218.445 191.386,218.392 191.048,218.669 190.870 C 218.899 190.721,219.718 189.430,220.490 188.000 C 221.261 186.570,222.278 184.770,222.748 184.000 C 223.219 183.230,223.860 182.051,224.174 181.380 C 224.487 180.710,225.676 178.550,226.816 176.580 C 227.956 174.611,229.058 172.640,229.265 172.200 C 229.472 171.760,230.078 170.680,230.611 169.800 C 231.145 168.920,231.763 167.790,231.985 167.289 C 232.207 166.787,233.442 164.537,234.730 162.289 C 236.017 160.040,237.198 157.930,237.354 157.600 C 237.510 157.270,238.077 156.280,238.613 155.400 C 239.150 154.520,239.945 153.080,240.381 152.200 C 240.817 151.320,241.901 149.340,242.790 147.800 C 243.678 146.260,244.687 144.460,245.030 143.800 C 245.374 143.140,246.091 141.880,246.625 141.000 C 247.158 140.120,247.853 138.851,248.169 138.180 C 248.485 137.510,249.676 135.350,250.816 133.380 C 251.956 131.411,253.058 129.440,253.265 129.000 C 253.472 128.560,254.079 127.480,254.615 126.600 C 255.150 125.720,255.945 124.280,256.381 123.400 C 256.817 122.520,257.895 120.540,258.776 119.000 C 259.658 117.460,260.713 115.570,261.122 114.800 C 262.683 111.860,264.549 108.499,266.081 105.869 C 266.956 104.367,267.600 103.066,267.512 102.979 C 267.424 102.891,266.788 103.760,266.097 104.910 M242.181 113.700 L 240.600 115.400 242.300 113.819 C 243.881 112.348,244.184 112.000,243.881 112.000 C 243.816 112.000,243.051 112.765,242.181 113.700 M118.340 152.409 C 117.977 152.621,115.817 152.977,113.540 153.200 C 111.263 153.422,106.790 153.866,103.600 154.186 C 100.410 154.507,96.450 154.877,94.800 155.009 C 93.150 155.141,90.720 155.490,89.400 155.784 C 88.080 156.079,86.010 156.447,84.800 156.604 C 83.590 156.761,81.993 157.139,81.251 157.444 C 80.509 157.750,79.594 158.000,79.218 158.000 C 78.490 158.000,71.547 160.139,70.200 160.778 C 66.157 162.696,64.076 163.723,63.400 164.132 C 45.054 175.239,46.654 192.491,67.780 211.379 C 70.553 213.858,71.806 214.885,74.600 216.969 C 75.040 217.298,75.940 217.986,76.600 218.500 C 77.260 219.014,78.250 219.730,78.800 220.092 C 79.350 220.453,80.970 221.569,82.400 222.572 C 83.830 223.575,85.168 224.396,85.374 224.398 C 85.580 224.399,86.120 224.740,86.574 225.156 C 87.028 225.571,90.640 227.740,94.600 229.974 C 98.560 232.209,102.070 234.209,102.400 234.420 C 102.730 234.630,103.441 234.991,103.980 235.222 C 104.519 235.452,107.939 237.088,111.580 238.856 C 120.094 242.992,121.411 243.600,121.844 243.599 C 122.040 243.598,122.920 243.941,123.800 244.361 C 127.372 246.063,130.333 247.262,135.894 249.258 C 137.162 249.713,138.740 250.330,139.400 250.629 C 140.887 251.304,143.626 252.299,146.000 253.026 C 149.126 253.985,152.576 255.199,153.251 255.579 C 153.609 255.780,154.599 256.071,155.451 256.225 C 156.303 256.379,157.360 256.684,157.800 256.902 C 158.344 257.171,158.472 257.167,158.200 256.890 C 157.841 256.524,154.641 255.197,151.400 254.071 C 150.740 253.841,148.130 252.900,145.600 251.978 C 143.070 251.057,140.280 250.053,139.400 249.746 C 138.520 249.440,137.350 248.946,136.800 248.649 C 136.250 248.352,135.260 247.984,134.600 247.831 C 133.409 247.555,130.841 246.494,128.668 245.380 C 128.045 245.061,127.359 244.800,127.143 244.800 C 126.796 244.800,124.820 243.965,121.000 242.205 C 120.340 241.901,118.720 241.167,117.400 240.576 C 114.487 239.269,101.989 233.045,99.891 231.856 C 99.061 231.385,97.262 230.393,95.892 229.651 C 94.523 228.909,92.972 227.964,92.447 227.551 C 91.922 227.138,91.349 226.800,91.174 226.800 C 91.000 226.800,89.773 226.080,88.448 225.200 C 87.123 224.320,85.954 223.600,85.851 223.600 C 85.560 223.600,80.241 219.987,80.007 219.631 C 79.893 219.458,79.319 219.065,78.731 218.758 C 77.599 218.167,77.086 217.771,71.400 213.098 C 67.612 209.985,61.200 203.873,61.200 203.376 C 61.200 203.216,60.830 202.705,60.377 202.242 C 59.218 201.055,56.679 197.590,56.096 196.400 C 55.826 195.850,55.439 195.130,55.235 194.800 C 54.308 193.301,53.200 190.708,53.200 190.037 C 53.200 189.630,52.917 188.620,52.571 187.792 C 50.457 182.733,52.911 174.656,58.129 169.500 C 59.632 168.015,61.095 166.800,61.382 166.800 C 61.668 166.800,62.118 166.540,62.381 166.223 C 62.771 165.753,65.889 163.998,69.200 162.386 C 72.748 160.658,83.843 157.554,88.400 157.015 C 89.610 156.871,91.950 156.505,93.600 156.201 C 95.250 155.897,99.524 155.453,103.098 155.215 C 110.112 154.747,117.498 153.829,119.360 153.195 C 122.005 152.294,124.400 153.516,124.400 155.765 C 124.400 158.328,122.553 158.996,117.772 158.162 C 102.939 155.573,72.183 161.422,63.328 168.516 C 56.300 174.146,53.659 179.633,55.017 185.783 C 55.668 188.729,57.346 193.116,58.007 193.600 C 58.157 193.710,58.512 194.239,58.794 194.775 C 59.077 195.311,59.465 195.941,59.657 196.175 C 59.849 196.409,60.860 197.687,61.903 199.015 C 63.686 201.284,66.117 203.803,69.245 206.621 C 72.254 209.332,77.140 213.200,77.557 213.200 C 77.800 213.200,78.000 213.350,78.000 213.533 C 78.000 213.808,84.587 218.280,87.202 219.781 C 87.603 220.011,90.242 221.510,93.066 223.111 C 95.890 224.712,98.470 226.199,98.800 226.414 C 99.130 226.630,99.850 227.004,100.400 227.246 C 100.950 227.488,101.670 227.847,102.000 228.044 C 102.330 228.241,103.050 228.581,103.600 228.801 C 104.150 229.020,104.870 229.381,105.200 229.602 C 105.530 229.824,106.070 230.118,106.400 230.257 C 106.730 230.395,108.710 231.306,110.800 232.281 C 115.897 234.659,116.579 234.961,119.600 236.190 C 121.030 236.771,123.010 237.583,124.000 237.994 C 128.281 239.771,133.090 241.583,134.200 241.836 C 134.860 241.987,135.580 242.249,135.800 242.418 C 136.238 242.756,140.180 244.199,142.400 244.834 C 143.170 245.054,144.430 245.484,145.200 245.788 C 145.970 246.093,149.030 247.085,152.000 247.992 C 154.970 248.899,158.300 249.922,159.400 250.266 C 161.991 251.076,163.117 251.061,163.936 250.205 C 164.562 249.551,164.549 249.541,163.709 250.046 C 162.967 250.492,162.597 250.493,161.509 250.052 C 160.789 249.760,159.570 249.371,158.800 249.187 C 157.433 248.861,154.608 247.989,152.200 247.149 C 151.540 246.919,150.075 246.476,148.944 246.164 C 147.813 245.853,146.373 245.329,145.744 245.001 C 145.115 244.673,144.235 244.404,143.789 244.402 C 143.343 244.401,142.623 244.157,142.189 243.860 C 141.755 243.563,140.860 243.194,140.200 243.041 C 139.540 242.888,138.100 242.419,137.000 241.999 C 135.900 241.579,133.740 240.765,132.200 240.190 C 130.660 239.615,128.833 238.887,128.140 238.572 C 127.446 238.257,126.681 238.000,126.438 238.000 C 126.196 238.000,125.325 237.640,124.504 237.200 C 123.684 236.760,122.730 236.400,122.386 236.400 C 122.042 236.400,121.589 236.240,121.380 236.044 C 121.171 235.848,119.650 235.123,118.000 234.432 C 113.796 232.671,100.095 226.010,96.499 223.980 C 95.894 223.638,94.680 222.957,93.800 222.465 C 92.239 221.592,91.238 221.003,87.315 218.652 C 78.072 213.110,67.990 204.843,63.347 199.000 C 61.949 197.240,60.534 195.515,60.202 195.166 C 59.871 194.818,59.600 194.347,59.600 194.120 C 59.600 193.894,59.279 193.279,58.888 192.754 C 55.930 188.794,55.164 180.455,57.404 176.616 C 60.073 172.043,64.188 168.769,71.000 165.797 C 72.320 165.222,73.716 164.579,74.103 164.370 C 74.490 164.160,75.840 163.727,77.103 163.406 C 78.366 163.085,80.480 162.549,81.800 162.213 C 86.593 160.996,89.444 160.400,91.600 160.167 C 92.810 160.036,95.330 159.652,97.200 159.313 C 102.470 158.357,115.839 158.381,119.078 159.351 L 121.555 160.093 123.078 159.168 C 127.971 156.193,123.292 149.518,118.340 152.409 M269.400 182.669 C 266.213 183.370,265.709 184.122,266.831 186.498 C 268.510 190.053,272.123 194.799,274.000 195.916 C 274.726 196.348,274.660 196.227,273.760 195.473 C 271.548 193.623,267.200 186.564,267.200 184.824 C 267.200 183.313,275.507 183.098,278.280 184.536 C 279.933 185.393,280.448 185.389,279.220 184.529 C 278.692 184.159,276.717 183.533,274.831 183.136 C 271.343 182.402,270.819 182.357,269.400 182.669 M162.031 187.452 C 161.092 188.645,161.179 193.464,162.211 197.400 C 162.499 198.500,162.848 200.080,162.988 200.912 C 163.443 203.633,164.692 205.351,168.826 208.941 C 169.801 209.789,171.950 211.702,173.600 213.192 C 179.051 218.117,181.788 220.494,182.700 221.097 C 183.195 221.424,183.613 222.076,183.628 222.546 C 183.655 223.378,183.665 223.379,184.000 222.600 C 184.529 221.370,184.460 220.798,183.752 220.526 C 183.396 220.390,182.538 219.720,181.845 219.039 C 181.153 218.357,179.426 216.810,178.007 215.600 C 176.589 214.390,175.137 213.130,174.781 212.800 C 174.425 212.470,172.992 211.210,171.596 210.000 C 166.763 205.811,165.425 204.350,164.701 202.469 C 163.696 199.858,163.076 195.179,163.564 193.894 C 163.862 193.110,163.821 192.817,163.390 192.651 C 161.808 192.044,161.386 188.607,162.709 187.100 C 163.047 186.715,163.219 186.400,163.091 186.400 C 162.963 186.400,162.486 186.873,162.031 187.452 M292.900 187.076 C 293.285 187.176,293.915 187.176,294.300 187.076 C 294.685 186.975,294.370 186.893,293.600 186.893 C 292.830 186.893,292.515 186.975,292.900 187.076 M297.401 187.352 C 298.120 187.877,298.123 187.952,297.469 188.952 C 297.091 189.528,296.872 190.000,296.982 190.000 C 297.092 190.000,297.477 189.549,297.838 188.998 C 298.514 187.967,298.108 186.800,297.075 186.800 C 296.839 186.800,296.986 187.048,297.401 187.352 M165.357 195.033 C 165.491 195.381,165.600 195.810,165.600 195.986 C 165.600 196.479,167.167 196.776,167.440 196.336 C 167.572 196.121,167.302 195.847,166.840 195.726 C 166.378 195.606,166.000 195.258,166.000 194.953 C 166.000 194.649,165.801 194.400,165.557 194.400 C 165.314 194.400,165.224 194.685,165.357 195.033 M171.600 200.757 C 171.600 200.954,171.870 201.218,172.200 201.345 C 172.530 201.471,172.800 201.851,172.800 202.187 C 172.800 202.524,172.969 202.800,173.175 202.800 C 173.544 202.800,177.701 206.615,181.782 210.700 C 182.936 211.855,184.081 212.800,184.326 212.800 C 184.571 212.800,184.988 213.205,185.251 213.700 C 185.515 214.195,186.009 214.805,186.350 215.056 C 186.864 215.435,186.887 215.692,186.484 216.575 C 186.218 217.159,186.018 217.944,186.040 218.319 C 186.064 218.723,186.193 218.593,186.358 218.000 C 186.511 217.450,186.877 217.000,187.172 217.000 C 187.467 217.000,187.866 216.575,188.058 216.056 C 188.389 215.161,184.162 210.012,183.089 210.003 C 182.919 210.001,181.749 209.028,180.489 207.840 C 179.230 206.652,177.699 205.257,177.088 204.740 C 176.476 204.223,175.174 203.035,174.194 202.100 C 172.476 200.461,171.600 200.007,171.600 200.757 M243.952 213.676 C 244.621 214.852,244.670 215.469,244.393 219.200 C 243.805 227.139,242.722 229.949,239.600 231.634 C 238.830 232.049,237.480 232.911,236.600 233.548 C 235.720 234.186,230.770 237.484,225.600 240.878 C 216.671 246.739,215.285 247.654,212.840 249.301 C 212.268 249.686,211.215 250.274,210.500 250.606 C 209.785 250.939,209.200 251.398,209.200 251.626 C 209.200 251.855,208.660 252.230,208.000 252.460 C 207.340 252.690,206.800 253.019,206.800 253.191 C 206.800 253.362,206.273 253.721,205.629 253.988 C 204.985 254.255,204.360 254.727,204.241 255.037 C 204.122 255.346,203.832 255.600,203.596 255.600 C 203.361 255.600,202.680 255.949,202.084 256.376 C 200.911 257.215,196.638 257.908,196.273 257.319 C 196.151 257.120,196.669 256.282,197.425 255.456 C 199.029 253.706,199.062 253.600,198.000 253.600 C 197.556 253.600,197.200 253.867,197.200 254.200 C 197.200 254.530,196.975 254.803,196.700 254.806 C 196.425 254.809,195.501 255.403,194.646 256.126 L 193.093 257.441 195.646 258.201 C 197.051 258.619,198.650 259.279,199.200 259.667 C 200.081 260.289,204.956 261.249,210.200 261.835 C 211.742 262.007,211.727 261.992,209.800 261.425 C 208.700 261.101,206.630 260.714,205.200 260.564 C 199.196 259.935,199.233 259.892,214.400 249.799 C 221.550 245.041,227.460 240.980,227.533 240.774 C 227.607 240.568,227.900 240.400,228.184 240.400 C 228.469 240.400,228.912 240.147,229.169 239.837 C 229.426 239.527,230.214 238.984,230.918 238.630 C 231.623 238.276,233.280 237.187,234.600 236.210 C 235.920 235.233,237.900 233.885,239.000 233.215 C 243.867 230.250,244.745 228.428,245.082 220.584 C 245.308 215.342,244.955 213.437,243.602 212.601 C 243.380 212.464,243.538 212.948,243.952 213.676 M286.000 212.722 C 286.000 212.931,286.270 213.326,286.600 213.600 C 287.249 214.139,288.400 213.547,288.400 212.675 C 288.400 212.439,288.163 212.571,287.873 212.968 C 287.379 213.643,287.304 213.646,286.673 213.016 C 286.303 212.646,286.000 212.514,286.000 212.722 M199.700 251.865 C 199.425 251.976,199.200 252.341,199.200 252.676 C 199.200 253.068,199.426 253.199,199.833 253.043 C 200.181 252.909,200.631 252.800,200.833 252.800 C 201.035 252.800,201.200 252.530,201.200 252.200 C 201.200 251.603,200.653 251.481,199.700 251.865 M215.000 262.621 C 216.760 262.944,219.100 263.295,220.200 263.401 L 222.200 263.594 219.800 263.030 C 218.480 262.720,216.140 262.369,214.600 262.250 L 211.800 262.034 215.000 262.621 M223.400 263.841 C 230.865 264.985,232.427 265.196,233.248 265.168 C 235.178 265.104,229.017 264.030,225.665 263.847 C 223.759 263.742,222.740 263.740,223.400 263.841 M183.000 265.200 C 182.602 265.640,182.099 266.000,181.883 266.000 C 181.666 266.000,180.659 266.738,179.645 267.639 C 178.630 268.541,177.440 269.596,177.000 269.983 C 176.560 270.371,174.220 272.186,171.800 274.016 C 165.373 278.877,159.047 284.000,158.680 284.642 C 158.504 284.949,158.159 285.200,157.914 285.200 C 157.668 285.200,157.182 285.469,156.834 285.798 C 156.102 286.488,149.546 291.722,142.600 297.161 C 137.227 301.368,136.948 301.600,137.265 301.600 C 137.389 301.600,138.124 301.105,138.900 300.500 C 139.675 299.895,140.711 299.130,141.201 298.800 C 141.691 298.470,142.477 297.914,142.946 297.564 C 144.450 296.442,150.442 292.400,150.600 292.400 C 150.754 292.400,152.986 290.929,163.719 283.756 C 166.975 281.580,170.334 279.350,171.184 278.800 C 172.035 278.250,174.591 276.555,176.865 275.034 C 179.139 273.513,182.295 271.415,183.878 270.371 C 185.461 269.328,187.368 268.007,188.116 267.437 C 189.681 266.243,190.352 266.185,193.506 266.973 C 196.889 267.818,199.526 268.404,202.000 268.861 C 203.210 269.084,205.646 269.612,207.413 270.034 C 209.180 270.455,211.160 270.785,211.813 270.766 C 213.100 270.730,210.571 270.070,205.200 269.041 C 202.303 268.486,201.333 268.256,194.033 266.394 C 192.066 265.892,189.820 265.589,188.633 265.664 C 187.182 265.756,186.317 265.594,185.611 265.097 C 184.340 264.202,183.887 264.219,183.000 265.200 M236.691 265.489 C 237.401 265.577,238.661 265.579,239.491 265.492 C 240.321 265.405,239.740 265.333,238.200 265.331 C 236.660 265.329,235.981 265.400,236.691 265.489 M242.033 265.746 C 242.125 265.826,243.640 265.992,245.400 266.113 C 247.698 266.271,248.149 266.237,247.000 265.990 C 245.410 265.648,241.715 265.467,242.033 265.746 M250.100 266.687 C 250.705 266.778,251.695 266.778,252.300 266.687 C 252.905 266.595,252.410 266.520,251.200 266.520 C 249.990 266.520,249.495 266.595,250.100 266.687 M285.105 266.683 C 285.602 266.779,286.322 266.775,286.705 266.675 C 287.087 266.575,286.680 266.496,285.800 266.501 C 284.920 266.505,284.607 266.587,285.105 266.683 M261.700 267.099 C 264.945 267.166,270.255 267.166,273.500 267.099 C 276.745 267.032,274.090 266.977,267.600 266.977 C 261.110 266.977,258.455 267.032,261.700 267.099 M215.000 271.428 C 216.100 271.734,217.360 271.967,217.800 271.945 C 218.758 271.897,214.950 270.878,213.800 270.874 C 213.360 270.873,213.900 271.122,215.000 271.428 M219.505 272.283 C 220.002 272.379,220.722 272.375,221.105 272.275 C 221.487 272.175,221.080 272.096,220.200 272.101 C 219.320 272.105,219.007 272.187,219.505 272.283 M224.600 273.012 C 225.700 273.319,228.130 273.658,230.000 273.766 C 233.353 273.959,233.363 273.957,230.699 273.614 C 229.214 273.422,227.090 273.071,225.980 272.833 C 223.135 272.223,222.205 272.344,224.600 273.012 M236.200 274.607 C 237.740 274.898,239.540 275.131,240.200 275.124 C 240.860 275.116,240.140 274.872,238.600 274.580 C 237.060 274.288,235.260 274.055,234.600 274.063 C 233.940 274.071,234.660 274.315,236.200 274.607 M243.107 275.490 C 243.826 275.579,244.906 275.577,245.507 275.486 C 246.108 275.395,245.520 275.322,244.200 275.324 C 242.880 275.326,242.388 275.401,243.107 275.490 M249.105 275.883 C 249.602 275.979,250.322 275.975,250.705 275.875 C 251.087 275.775,250.680 275.696,249.800 275.701 C 248.920 275.705,248.607 275.787,249.105 275.883 M253.400 276.410 C 254.958 276.745,260.699 276.946,260.367 276.654 C 260.275 276.573,258.310 276.408,256.000 276.287 C 253.197 276.140,252.332 276.181,253.400 276.410 M291.105 276.683 C 291.602 276.779,292.322 276.775,292.705 276.675 C 293.087 276.575,292.680 276.496,291.800 276.501 C 290.920 276.505,290.607 276.587,291.105 276.683 M267.725 277.099 C 271.424 277.166,277.364 277.165,280.925 277.099 C 284.486 277.033,281.460 276.979,274.200 276.979 C 266.940 276.979,264.026 277.033,267.725 277.099 " stroke="none" fill="#2f6833" fill-rule="evenodd"></path><path id="path4" d="M272.800 85.892 C 272.470 86.019,271.829 86.499,271.375 86.961 C 270.921 87.422,269.924 88.340,269.159 89.000 C 268.394 89.660,266.232 91.640,264.354 93.400 C 262.477 95.160,259.548 97.860,257.845 99.400 C 256.142 100.940,253.621 103.280,252.242 104.600 C 250.864 105.920,247.063 109.430,243.796 112.400 C 237.909 117.752,233.358 121.934,231.913 123.318 C 231.501 123.713,229.326 125.693,227.081 127.718 C 220.547 133.610,220.039 134.075,217.375 136.600 C 215.983 137.920,213.351 140.350,211.527 142.000 C 209.702 143.650,206.854 146.260,205.196 147.800 C 202.313 150.479,197.328 155.048,191.666 160.200 C 190.216 161.520,187.668 163.860,186.005 165.400 C 181.699 169.387,175.210 175.353,173.800 176.621 C 164.665 184.835,162.147 187.358,161.832 188.616 C 161.597 189.550,162.488 192.160,163.189 192.593 C 163.672 192.892,163.301 191.778,162.501 190.527 C 161.817 189.456,162.296 188.370,164.134 186.831 C 164.812 186.264,165.838 185.350,166.414 184.800 C 168.260 183.038,176.441 175.474,181.672 170.692 C 184.462 168.142,187.090 165.728,187.512 165.328 C 187.934 164.927,190.051 162.980,192.216 161.000 C 194.382 159.020,196.487 157.077,196.895 156.682 C 197.303 156.287,199.473 154.303,201.718 152.273 C 205.531 148.826,208.064 146.492,212.214 142.600 C 213.153 141.720,215.423 139.650,217.258 138.000 C 221.707 134.001,226.713 129.367,228.233 127.839 C 228.912 127.158,230.603 125.610,231.993 124.400 C 233.382 123.190,235.000 121.750,235.590 121.200 C 236.179 120.650,238.614 118.400,240.999 116.200 C 243.385 114.000,245.981 111.594,246.768 110.853 C 247.556 110.113,249.526 108.313,251.147 106.853 C 252.768 105.394,254.748 103.574,255.547 102.809 C 256.346 102.044,258.800 99.794,261.001 97.809 C 267.161 92.252,267.756 91.704,270.595 88.962 C 273.181 86.463,274.604 85.823,275.041 86.963 C 275.238 87.476,272.197 93.370,270.998 94.800 C 270.721 95.130,270.366 95.822,270.208 96.338 C 270.051 96.853,269.396 98.054,268.754 99.007 C 268.111 99.959,267.313 101.337,266.981 102.069 C 266.649 102.801,265.930 104.120,265.382 105.000 C 264.834 105.880,264.227 106.960,264.032 107.400 C 263.837 107.840,262.320 110.589,260.662 113.509 C 259.004 116.429,257.797 118.726,257.979 118.613 C 258.161 118.500,259.778 115.841,261.573 112.704 C 263.367 109.567,266.352 104.480,268.205 101.400 C 270.058 98.320,271.866 95.260,272.222 94.600 C 273.599 92.047,274.232 90.964,274.903 90.011 C 276.622 87.571,275.280 84.945,272.800 85.892 M273.100 183.882 C 273.595 183.978,274.405 183.978,274.900 183.882 C 275.395 183.787,274.990 183.709,274.000 183.709 C 273.010 183.709,272.605 183.787,273.100 183.882 M276.520 184.280 C 276.917 184.382,278.329 185.082,279.659 185.833 C 280.989 186.585,282.183 187.200,282.313 187.200 C 282.442 187.200,282.980 187.605,283.508 188.100 C 284.646 189.168,289.118 189.210,292.573 188.185 C 297.145 186.829,298.188 187.576,295.600 190.351 C 293.080 193.053,293.271 193.390,299.000 196.376 C 301.843 197.858,302.062 197.988,306.220 200.668 C 307.991 201.810,309.926 202.966,310.520 203.236 C 311.114 203.507,311.600 203.853,311.600 204.004 C 311.600 204.338,315.498 206.800,316.027 206.800 C 316.232 206.800,316.400 206.945,316.400 207.123 C 316.400 207.301,317.129 207.976,318.020 208.623 C 325.800 214.274,337.600 225.706,337.600 227.592 C 337.600 227.785,337.871 228.213,338.201 228.544 C 338.997 229.340,342.400 236.198,342.400 237.007 C 342.400 237.355,342.706 238.216,343.079 238.920 C 344.814 242.192,343.681 251.314,341.112 254.754 C 340.721 255.279,340.400 255.928,340.400 256.196 C 340.400 257.197,335.479 262.007,332.296 264.116 C 327.721 267.147,320.663 270.400,318.659 270.400 C 318.174 270.400,317.417 270.653,316.975 270.963 C 316.533 271.272,315.281 271.659,314.192 271.822 C 313.104 271.985,311.663 272.349,310.989 272.630 C 310.316 272.911,308.603 273.259,307.183 273.404 C 305.762 273.548,303.700 273.907,302.600 274.201 C 301.500 274.496,298.980 274.854,297.000 274.998 C 295.020 275.141,290.720 275.515,287.444 275.829 C 280.714 276.474,268.395 276.570,263.000 276.018 C 261.020 275.816,256.250 275.455,252.400 275.216 C 248.550 274.977,243.690 274.526,241.600 274.214 C 239.510 273.902,236.360 273.539,234.600 273.409 C 232.840 273.279,230.050 272.912,228.400 272.595 C 224.225 271.792,217.928 270.769,214.600 270.353 C 211.849 270.010,210.101 269.655,203.085 268.020 C 201.152 267.569,199.262 267.212,198.885 267.227 C 197.830 267.268,201.448 268.327,204.800 268.959 C 206.450 269.269,210.410 270.064,213.600 270.724 C 216.790 271.384,220.300 272.038,221.400 272.176 C 222.500 272.314,225.110 272.687,227.200 273.006 C 234.977 274.190,240.373 274.858,246.600 275.408 C 250.120 275.719,255.070 276.157,257.600 276.383 C 270.030 277.491,303.710 276.263,306.395 274.603 C 306.606 274.473,308.178 274.103,309.889 273.782 C 314.835 272.852,322.640 270.531,323.757 269.657 C 324.001 269.466,324.677 269.197,325.260 269.058 C 327.997 268.405,336.499 262.652,338.585 260.041 C 339.016 259.500,339.790 258.604,340.304 258.050 C 351.485 245.986,341.447 223.598,317.402 206.969 C 312.523 203.595,309.476 201.573,307.477 200.383 C 306.199 199.622,304.489 198.601,303.677 198.113 C 302.865 197.626,301.625 196.906,300.923 196.513 C 299.190 195.546,295.028 193.125,294.885 193.002 C 294.821 192.947,295.541 191.785,296.484 190.418 C 299.065 186.679,297.648 186.175,288.747 187.666 C 285.778 188.164,284.825 188.013,282.800 186.728 C 281.014 185.595,277.182 183.990,276.400 184.048 C 275.990 184.079,276.029 184.152,276.520 184.280 M217.625 191.439 C 217.603 192.529,218.026 193.019,221.145 195.512 C 223.094 197.071,224.968 198.625,225.308 198.965 C 225.648 199.305,227.068 200.478,228.463 201.571 C 231.271 203.771,233.341 205.482,235.781 207.617 C 236.672 208.396,238.345 209.738,239.500 210.599 C 240.655 211.460,241.600 212.295,241.600 212.455 C 241.600 212.615,241.933 212.852,242.339 212.981 C 243.208 213.257,243.987 214.792,244.032 216.319 L 244.063 217.400 244.456 216.327 C 245.048 214.710,244.039 213.168,240.510 210.294 C 238.825 208.922,236.590 207.080,235.543 206.200 C 234.496 205.320,233.164 204.240,232.583 203.800 C 232.002 203.360,231.228 202.710,230.863 202.356 C 230.498 202.001,228.218 200.111,225.796 198.156 C 220.108 193.563,218.383 191.984,217.979 191.000 C 217.704 190.329,217.647 190.400,217.625 191.439 M270.791 191.984 C 271.424 193.167,275.027 196.665,276.987 198.000 C 279.673 199.830,280.755 200.827,281.020 201.718 C 281.262 202.531,283.582 207.661,285.073 210.681 C 286.600 213.773,288.393 214.172,288.403 211.424 C 288.407 210.451,289.807 204.460,290.099 204.168 C 290.267 204.000,293.797 205.829,296.000 207.225 C 296.330 207.435,297.050 207.825,297.600 208.094 C 298.150 208.362,299.453 209.171,300.496 209.891 C 301.539 210.611,302.509 211.200,302.651 211.200 C 303.220 211.200,312.150 217.473,316.200 220.718 C 318.770 222.777,320.111 223.956,323.175 226.849 C 324.949 228.524,329.600 234.429,329.600 235.007 C 329.600 235.296,329.751 235.593,329.937 235.667 C 332.277 236.594,333.672 246.343,331.969 249.867 C 331.151 251.559,327.651 255.600,327.003 255.600 C 326.873 255.600,326.190 255.993,325.484 256.474 C 322.447 258.541,322.006 258.800,321.516 258.802 C 321.232 258.804,320.460 259.089,319.800 259.437 C 315.594 261.651,303.334 264.762,296.400 265.375 C 294.750 265.520,291.690 265.934,289.600 266.295 C 284.795 267.123,252.928 267.287,247.993 266.508 C 246.340 266.247,242.110 265.838,238.593 265.598 C 235.077 265.358,231.030 264.978,229.600 264.753 C 228.170 264.528,225.020 264.088,222.600 263.774 C 220.180 263.461,216.040 262.859,213.400 262.438 C 210.760 262.016,207.790 261.568,206.800 261.443 L 205.000 261.216 206.800 261.750 C 209.083 262.429,215.638 263.509,221.694 264.204 C 224.276 264.500,226.721 264.848,227.126 264.977 C 227.532 265.105,230.369 265.476,233.432 265.800 C 236.494 266.125,240.350 266.562,242.000 266.771 C 253.031 268.171,287.537 268.058,295.200 266.596 C 296.850 266.281,299.280 265.913,300.600 265.778 C 301.920 265.642,303.630 265.299,304.400 265.013 C 305.170 264.728,306.790 264.369,308.000 264.216 C 310.625 263.882,318.867 261.194,321.400 259.844 C 322.060 259.493,322.729 259.204,322.887 259.202 C 324.902 259.185,332.269 252.132,333.500 249.041 C 334.786 245.812,334.212 240.245,332.338 237.764 C 332.156 237.524,331.462 236.305,330.795 235.055 C 329.321 232.293,329.475 232.477,323.910 226.800 C 318.819 221.607,317.447 220.368,314.600 218.390 C 313.500 217.625,312.507 216.878,312.394 216.728 C 312.113 216.358,301.976 209.600,301.702 209.600 C 301.581 209.600,300.547 208.979,299.403 208.219 C 298.259 207.460,296.800 206.609,296.162 206.329 C 295.523 206.048,294.147 205.229,293.104 204.509 C 289.501 202.021,288.005 203.184,287.994 208.480 C 287.981 214.414,287.708 214.136,282.606 203.000 C 281.216 199.965,278.053 196.800,276.410 196.800 C 276.218 196.800,274.761 195.502,273.172 193.917 C 271.583 192.331,270.511 191.461,270.791 191.984 M179.802 207.202 C 180.202 207.644,180.615 207.918,180.721 207.812 C 180.990 207.543,179.992 206.400,179.489 206.400 C 179.262 206.400,179.403 206.761,179.802 207.202 M187.152 213.806 C 188.213 215.014,188.326 215.352,187.987 216.302 C 187.664 217.209,187.683 217.291,188.098 216.775 C 188.374 216.432,188.915 216.032,189.300 215.888 C 190.589 215.404,189.866 214.522,186.862 212.911 C 186.039 212.469,186.074 212.579,187.152 213.806 M184.189 222.033 C 184.033 222.525,183.162 223.872,182.253 225.026 C 181.344 226.181,179.880 228.140,179.000 229.380 C 178.120 230.620,176.995 232.148,176.500 232.775 C 176.005 233.402,175.600 234.025,175.600 234.158 C 175.600 234.291,175.285 234.747,174.900 235.171 C 173.855 236.323,173.414 236.898,172.573 238.210 C 172.154 238.865,171.628 239.614,171.405 239.876 C 171.182 240.138,170.550 241.001,170.000 241.794 C 169.450 242.588,167.971 244.623,166.714 246.318 C 165.457 248.013,164.186 249.743,163.889 250.163 C 163.529 250.672,162.893 250.918,161.975 250.901 C 160.824 250.880,160.741 250.931,161.466 251.213 C 163.202 251.887,164.277 251.106,167.478 246.844 C 172.057 240.748,174.866 236.893,176.200 234.875 C 176.420 234.542,176.836 233.984,177.125 233.635 C 177.838 232.773,179.665 230.293,180.400 229.190 C 180.730 228.694,181.695 227.394,182.545 226.300 C 183.394 225.206,184.262 223.684,184.474 222.918 C 184.897 221.386,184.644 220.600,184.189 222.033 M154.000 255.000 C 154.550 255.314,155.180 255.572,155.400 255.572 C 155.620 255.572,155.350 255.314,154.800 255.000 C 154.250 254.686,153.620 254.428,153.400 254.428 C 153.180 254.428,153.450 254.686,154.000 255.000 M194.300 255.878 C 193.475 256.445,192.800 257.072,192.800 257.273 C 192.800 257.474,193.520 257.059,194.400 256.352 C 195.280 255.645,196.000 255.006,196.000 254.933 C 196.000 254.725,195.894 254.784,194.300 255.878 M157.071 256.184 C 158.649 256.870,158.517 257.765,156.438 260.473 C 155.647 261.504,153.200 264.807,151.000 267.814 C 148.800 270.821,146.595 273.784,146.100 274.399 C 145.605 275.013,145.200 275.625,145.200 275.758 C 145.200 275.891,144.919 276.315,144.575 276.700 C 143.880 277.477,142.125 279.823,141.200 281.209 C 140.870 281.703,139.835 283.061,138.900 284.227 C 137.965 285.392,137.200 286.445,137.200 286.566 C 137.200 286.763,132.903 292.667,129.512 297.126 C 128.791 298.076,127.930 299.271,127.600 299.782 C 126.742 301.111,124.834 303.760,123.151 305.956 C 119.849 310.266,121.774 313.152,125.845 309.994 C 126.700 309.330,127.810 308.475,128.310 308.094 C 128.811 307.712,129.441 307.219,129.710 306.998 C 129.980 306.777,132.711 304.707,135.780 302.398 C 141.417 298.157,155.664 286.932,156.834 285.808 C 157.182 285.474,157.668 285.200,157.914 285.200 C 158.159 285.200,158.504 284.949,158.680 284.642 C 159.047 284.000,165.373 278.877,171.800 274.016 C 174.220 272.186,176.560 270.364,177.000 269.968 C 177.440 269.571,178.340 268.772,179.000 268.191 C 180.518 266.856,179.510 267.350,177.400 268.976 C 176.520 269.654,175.317 270.567,174.727 271.005 C 173.050 272.247,168.905 275.504,168.114 276.201 C 167.721 276.547,166.590 277.441,165.600 278.189 C 164.610 278.937,161.640 281.209,159.000 283.238 C 156.360 285.267,153.123 287.754,151.808 288.764 C 150.492 289.774,148.964 291.005,148.412 291.500 C 147.860 291.995,147.263 292.400,147.085 292.400 C 146.907 292.400,146.365 292.813,145.881 293.317 C 145.396 293.821,143.110 295.656,140.800 297.394 C 138.490 299.132,134.782 302.004,132.560 303.777 C 130.338 305.550,128.010 307.360,127.386 307.800 C 126.762 308.240,125.764 309.005,125.168 309.500 C 123.942 310.518,122.482 310.680,122.157 309.832 C 121.913 309.196,122.619 307.971,124.987 304.926 C 125.874 303.786,127.320 301.844,128.200 300.612 C 129.080 299.379,129.992 298.152,130.226 297.885 C 130.461 297.618,131.333 296.410,132.164 295.200 C 132.995 293.990,133.794 292.910,133.939 292.800 C 134.084 292.690,134.739 291.790,135.396 290.800 C 136.052 289.810,137.494 287.830,138.600 286.400 C 139.706 284.970,141.148 282.990,141.804 282.000 C 142.461 281.010,143.098 280.110,143.219 280.000 C 143.341 279.890,144.062 278.900,144.821 277.800 C 145.579 276.700,146.389 275.620,146.621 275.400 C 146.852 275.180,147.572 274.190,148.220 273.200 C 148.868 272.210,150.246 270.305,151.283 268.966 C 158.603 259.518,160.099 256.722,158.216 256.006 C 156.607 255.394,155.611 255.549,157.071 256.184 M199.600 260.382 C 199.930 260.605,200.545 260.791,200.967 260.794 C 201.990 260.802,201.671 260.573,200.200 260.244 C 199.324 260.048,199.162 260.085,199.600 260.382 M193.184 266.209 C 194.165 266.515,195.029 266.704,195.104 266.629 C 195.309 266.424,192.777 265.596,192.040 265.627 C 191.688 265.641,192.203 265.904,193.184 266.209 " stroke="none" fill="#5f6e1f" fill-rule="evenodd"></path></g></svg>